<svg width="360" height="63" viewBox="0 0 360 63" fill="none" xmlns="http://www.w3.org/2000/svg">
<path d="M81.8479 39.6144H73.7644V23.4481H80.8779C82.0329 23.4481 83.0239 23.5558 83.8508 23.7713C84.6744 23.99 85.3194 24.302 85.786 24.7078C86.2556 25.1133 86.5953 25.5777 86.8043 26.1005C87.0165 26.6234 87.1229 27.2208 87.1229 27.8925C87.1229 28.2792 87.0633 28.6577 86.9442 29.0287C86.8219 29.4026 86.6676 29.7178 86.4808 29.9744C86.2975 30.2344 86.1318 30.4483 85.9838 30.6163C85.8326 30.7811 85.6991 30.9062 85.5834 30.9918C86.3747 31.3879 86.9829 31.9219 87.4074 32.5936C87.8321 33.2654 88.0446 34.0356 88.0446 34.9039C88.0446 35.5851 87.9287 36.2015 87.6971 36.7528C87.4655 37.3075 87.1116 37.8033 86.6354 38.2407C86.1593 38.6781 85.5157 39.0155 84.7051 39.2533C83.891 39.4939 82.9386 39.6144 81.8479 39.6144ZM77.7217 33.1261V36.2585H81.3847C82.9806 36.2585 83.7785 35.7374 83.7785 34.6946C83.7785 34.1211 83.5837 33.717 83.1945 33.4826C82.8051 33.2449 82.202 33.1261 81.3847 33.1261H77.7217ZM77.7217 26.7803V30.1552H81.1144C81.9574 30.1552 82.5429 30.022 82.871 29.7557C83.2026 29.4897 83.3682 29.035 83.3682 28.3917C83.3682 27.3173 82.6169 26.7803 81.1144 26.7803H77.7217ZM103.386 39.6144H90.8148V23.4481H103.386V27.0702H94.7721V29.8414H101.958V33.2212H94.7721V36.0067H103.386V39.6144ZM119.163 39.6144H106.591V23.4481H110.548V36.0067H119.163V39.6144ZM125.934 39.6144H121.976V23.4481H125.934V30.5639L132.203 23.4481H137.178L131.532 29.9698L138.38 39.6144H133.24L128.752 32.9407L125.934 35.9828V39.6144ZM138.814 31.5383C138.814 30.407 139.036 29.328 139.48 28.3014C139.924 27.2715 140.522 26.381 141.275 25.6298C142.028 24.8789 142.928 24.2815 143.973 23.8378C145.019 23.3942 146.119 23.1724 147.274 23.1724C148.413 23.1724 149.507 23.3942 150.556 23.8378C151.605 24.2815 152.505 24.8789 153.258 25.6298C154.011 26.381 154.614 27.2729 155.068 28.306C155.518 29.3391 155.744 30.4166 155.744 31.5383C155.744 32.6665 155.52 33.7472 155.073 34.7803C154.626 35.8134 154.022 36.7038 153.263 37.4516C152.507 38.1963 151.605 38.792 150.556 39.2391C149.507 39.6827 148.413 39.9045 147.274 39.9045C145.733 39.9045 144.313 39.5289 143.013 38.7778C141.713 38.0268 140.688 37.0111 139.938 35.7308C139.189 34.4506 138.814 33.0532 138.814 31.5383ZM142.429 31.5383C142.429 32.8536 142.903 33.9738 143.852 34.8991C144.798 35.8211 145.939 36.2824 147.274 36.2824C148.593 36.2824 149.724 35.8211 150.667 34.8991C151.609 33.9738 152.081 32.8536 152.081 31.5383C152.081 30.2392 151.609 29.1253 150.667 28.1967C149.724 27.2683 148.593 26.8039 147.274 26.8039C145.939 26.8039 144.798 27.2649 143.852 28.1873C142.903 29.1125 142.429 30.2296 142.429 31.5383ZM168.904 27.0702H163.099V23.4481H178.73V27.0702H172.91V39.6144H168.904V27.0702ZM193.999 39.6144H181.428V23.4481H193.999V27.0702H185.39V29.8414H192.576V33.2212H185.39V36.0067H193.999V39.6144ZM195.804 31.4102C195.804 30.2945 196.028 29.2346 196.475 28.23C196.922 27.2254 197.535 26.3508 198.314 25.6062C199.092 24.8647 200.035 24.2735 201.142 23.8331C202.249 23.3926 203.431 23.1724 204.689 23.1724C206.401 23.1724 207.926 23.5336 209.264 24.2562C210.606 24.9786 211.653 25.9627 212.406 27.208L209.047 29.1332C208.648 28.3758 208.075 27.7784 207.329 27.3412C206.583 26.9038 205.703 26.6852 204.689 26.6852C203.267 26.6852 202.097 27.1368 201.181 28.0398C200.267 28.9399 199.81 30.0633 199.81 31.4102C199.81 32.2593 200.014 33.0515 200.423 33.7868C200.831 34.522 201.411 35.1146 202.16 35.5645C202.91 36.0145 203.753 36.2394 204.689 36.2394C205.664 36.2394 206.521 36.0176 207.261 35.574C208.004 35.1337 208.584 34.5377 208.999 33.7868L212.358 35.693C211.589 36.9604 210.537 37.9793 209.201 38.7493C207.866 39.5193 206.362 39.9045 204.689 39.9045C203.425 39.9045 202.241 39.6842 201.137 39.2436C200.033 38.8031 199.092 38.2059 198.314 37.4516C197.535 36.6976 196.922 35.7975 196.475 34.7518C196.028 33.7059 195.804 32.5922 195.804 31.4102ZM218.969 39.6144H215.007V23.4481H218.969V29.7273H226.179V23.4481H230.161V39.6144H226.179V33.3352H218.969V39.6144ZM237.559 39.6144H233.577V23.4481H237.559L245.864 33.3115V23.4481H249.851V39.6144H245.864L237.559 29.7273V39.6144ZM252.23 31.5383C252.23 30.407 252.451 29.328 252.897 28.3014C253.34 27.2715 253.938 26.381 254.691 25.6298C255.443 24.8789 256.342 24.2815 257.389 23.8378C258.435 23.3942 259.536 23.1724 260.69 23.1724C261.829 23.1724 262.922 23.3942 263.971 23.8378C265.02 24.2815 265.922 24.8789 266.674 25.6298C267.427 26.381 268.03 27.2729 268.483 28.306C268.934 29.3391 269.159 30.4166 269.159 31.5383C269.159 32.6665 268.936 33.7472 268.488 34.7803C268.042 35.8134 267.439 36.7038 266.679 37.4516C265.922 38.1963 265.02 38.792 263.971 39.2391C262.922 39.6827 261.829 39.9045 260.69 39.9045C259.148 39.9045 257.73 39.5289 256.428 38.7778C255.129 38.0268 254.105 37.0111 253.355 35.7308C252.605 34.4506 252.23 33.0532 252.23 31.5383ZM255.845 31.5383C255.845 32.8536 256.32 33.9738 257.269 34.8991C258.215 35.8211 259.354 36.2824 260.69 36.2824C262.008 36.2824 263.141 35.8211 264.082 34.8991C265.025 33.9738 265.496 32.8536 265.496 31.5383C265.496 30.2392 265.025 29.1253 264.082 28.1967C263.141 27.2683 262.008 26.8039 260.69 26.8039C259.354 26.8039 258.215 27.2649 257.269 28.1873C256.32 29.1125 255.845 30.2296 255.845 31.5383ZM284.339 39.6144H271.767V23.4481H275.722V36.0067H284.339V39.6144ZM285.245 31.5383C285.245 30.407 285.466 29.328 285.91 28.3014C286.356 27.2715 286.954 26.381 287.706 25.6298C288.458 24.8789 289.358 24.2815 290.404 23.8378C291.45 23.3942 292.551 23.1724 293.705 23.1724C294.845 23.1724 295.938 23.3942 296.986 23.8378C298.033 24.2815 298.932 24.8789 299.69 25.6298C300.442 26.381 301.045 27.2729 301.498 28.306C301.949 29.3391 302.174 30.4166 302.174 31.5383C302.174 32.6665 301.951 33.7472 301.503 34.7803C301.057 35.8134 300.454 36.7038 299.694 37.4516C298.935 38.1963 298.033 38.792 296.986 39.2391C295.938 39.6827 294.845 39.9045 293.705 39.9045C292.164 39.9045 290.742 39.5289 289.443 38.7778C288.145 38.0268 287.118 37.0111 286.37 35.7308C285.62 34.4506 285.245 33.0532 285.245 31.5383ZM288.86 31.5383C288.86 32.8536 289.333 33.9738 290.279 34.8991C291.227 35.8211 292.369 36.2824 293.705 36.2824C295.023 36.2824 296.156 35.8211 297.097 34.8991C298.04 33.9738 298.511 32.8536 298.511 31.5383C298.511 30.2392 298.04 29.1253 297.097 28.1967C296.156 27.2683 295.023 26.8039 293.705 26.8039C292.369 26.8039 291.227 27.2649 290.279 28.1873C289.333 29.1125 288.86 30.2296 288.86 31.5383ZM303.976 31.5383C303.976 30.4229 304.199 29.3551 304.65 28.3345C305.098 27.3142 305.711 26.4237 306.49 25.6632C307.264 24.9057 308.21 24.3006 309.325 23.8474C310.443 23.3974 311.629 23.1724 312.884 23.1724C314.425 23.1724 315.822 23.4877 317.077 24.1183C318.334 24.7457 319.388 25.6093 320.238 26.7088L316.822 28.4154C315.967 27.3569 314.636 26.8278 312.835 26.8278C311.406 26.8278 310.237 27.2683 309.325 28.1491C308.416 29.0302 307.96 30.1441 307.96 31.4908C307.96 32.7995 308.426 33.9215 309.36 34.8563C310.296 35.7912 311.47 36.2585 312.884 36.2585C314.594 36.2585 315.937 35.8069 316.913 34.9039V33.3352H311.918V30.3406H320.412V36.3299C320.373 36.4154 320.255 36.5706 320.059 36.7958C319.863 37.0208 319.542 37.3169 319.099 37.6846C318.655 38.0491 318.158 38.3928 317.604 38.716C317.05 39.0361 316.354 39.3151 315.518 39.5526C314.683 39.7872 313.813 39.9045 312.908 39.9045C311.587 39.9045 310.362 39.6731 309.23 39.2103C308.1 38.7447 307.157 38.1251 306.397 37.3519C305.642 36.5786 305.049 35.6881 304.62 34.6804C304.189 33.6757 303.976 32.6286 303.976 31.5383ZM327.367 39.6144H323.404V23.4481H327.367V39.6144ZM343.6 39.6144H331.028V23.4481H343.6V27.0702H334.986V29.8414H342.176V33.2212H334.986V36.0067H343.6V39.6144ZM346.053 33.9627H349.987C349.996 34.0323 350.014 34.1259 350.038 34.243C350.067 34.3572 350.158 34.5616 350.31 34.8563C350.464 35.1511 350.656 35.4108 350.888 35.6357C351.119 35.8576 351.469 36.062 351.94 36.2491C352.413 36.4359 352.952 36.5296 353.557 36.5296C354.373 36.5296 354.981 36.3869 355.376 36.1016C355.773 35.8197 355.971 35.4854 355.971 35.0987C355.971 34.8991 355.915 34.7185 355.802 34.5568C355.689 34.3922 355.554 34.2558 355.4 34.1481C355.246 34.0402 355.025 33.934 354.733 33.8295C354.444 33.725 354.189 33.6441 353.966 33.5872C353.748 33.5268 353.452 33.4508 353.074 33.3591C351.511 32.9946 350.362 32.6617 349.624 32.3607C347.406 31.4543 346.298 30.1014 346.298 28.3014C346.298 27.3316 346.595 26.4554 347.185 25.6726C347.781 24.8869 348.587 24.2735 349.604 23.8331C350.621 23.3926 351.746 23.1724 352.979 23.1724C354.001 23.1724 354.939 23.334 355.792 23.6572C356.64 23.9836 357.331 24.4068 357.861 24.9265C358.392 25.4493 358.802 26.0259 359.088 26.6567C359.375 27.2872 359.517 27.9242 359.517 28.5674H355.584C355.584 28.1112 355.339 27.6801 354.846 27.2746C354.356 26.8657 353.719 26.6615 352.935 26.6615C352.28 26.6615 351.68 26.7959 351.129 27.0653C350.58 27.3316 350.305 27.6818 350.305 28.1158C350.305 28.4772 350.543 28.7639 351.018 28.9763C351.494 29.1919 352.388 29.4658 353.697 29.7987C355.189 30.1757 356.265 30.5117 356.924 30.8065C358.718 31.6018 359.706 32.7616 359.895 34.286C359.919 34.4793 359.931 34.6772 359.931 34.88C359.931 36.4043 359.321 37.6228 358.098 38.5354C356.875 39.4481 355.29 39.9045 353.344 39.9045C352.354 39.9045 351.445 39.7793 350.619 39.5289C349.788 39.2755 349.097 38.9458 348.548 38.5403C347.997 38.1345 347.531 37.6686 347.149 37.1427C346.762 36.6167 346.482 36.0842 346.308 35.5455C346.137 35.0101 346.053 34.4824 346.053 33.9627Z" fill="white"/>
<path d="M0 0.000244141L33.0357 18.9182V23.8912L62.7787 40.4305V43.9981L0 8.00007V0.000244141Z" fill="white"/>
<path d="M33.0357 48.1058L45.9513 55.2881L43.0784 56.9164L0 32.2146V24.2148L33.0357 43.1327V48.1058Z" fill="white"/>
<path d="M33.0357 60.213L35.169 61.3994L32.4598 62.935L0 44.3218V36.3228L33.0357 55.2408V60.213Z" fill="white"/>
<path d="M33.0357 31.0257V35.9982L56.7337 49.177L53.6969 50.898L0 20.107V12.1079L33.0357 31.0257Z" fill="white"/>
<path d="M33.1995 14.6946L62.7788 0V31.1686L33.1995 14.6946Z" fill="#D2E45D"/>
</svg>
