<svg width="159" height="28" viewBox="0 0 159 28" fill="none" xmlns="http://www.w3.org/2000/svg">
<g clip-path="url(#clip0_18_1371)">
<path d="M36.1495 17.6064H32.5793V10.4214H35.7211C36.2313 10.4214 36.669 10.4692 37.0342 10.565C37.3979 10.6622 37.6828 10.8009 37.8889 10.9812C38.0963 11.1615 38.2463 11.3679 38.3386 11.6002C38.4324 11.8326 38.4793 12.0981 38.4793 12.3967C38.4793 12.5685 38.453 12.7368 38.4004 12.9016C38.3464 13.0678 38.2782 13.2079 38.1958 13.322C38.1148 13.4375 38.0416 13.5326 37.9763 13.6072C37.9095 13.6805 37.8505 13.7361 37.7994 13.7742C38.1489 13.9502 38.4175 14.1875 38.605 14.4861C38.7926 14.7846 38.8864 15.127 38.8864 15.5128C38.8864 15.8156 38.8352 16.0896 38.7329 16.3346C38.6307 16.5811 38.4744 16.8015 38.2641 16.9959C38.0538 17.1903 37.7695 17.3402 37.4115 17.4459C37.0519 17.5529 36.6313 17.6064 36.1495 17.6064ZM34.3272 14.7227V16.1149H35.945C36.6498 16.1149 37.0022 15.8833 37.0022 15.4198C37.0022 15.1649 36.9162 14.9853 36.7443 14.8812C36.5723 14.7755 36.3059 14.7227 35.945 14.7227H34.3272ZM34.3272 11.9023V13.4023H35.8256C36.1979 13.4023 36.4565 13.3431 36.6014 13.2248C36.7479 13.1066 36.821 12.9044 36.821 12.6185C36.821 12.141 36.4892 11.9023 35.8256 11.9023H34.3272ZM45.6624 17.6064H40.1099V10.4214H45.6624V12.0312H41.8577V13.2629H45.0315V14.765H41.8577V16.003H45.6624V17.6064ZM52.6302 17.6064H47.0777V10.4214H48.8255V16.003H52.6302V17.6064ZM55.6207 17.6064H53.8729V10.4214H55.6207V13.5839L58.3895 10.4214H60.5871L58.0933 13.3199L61.1178 17.6064H58.8478L56.8655 14.6403L55.6207 15.9924V17.6064ZM61.3096 14.017C61.3096 13.5142 61.4077 13.0347 61.6038 12.5784C61.7998 12.1207 62.0642 11.7249 62.3967 11.391C62.7292 11.0573 63.1264 10.7918 63.5883 10.5946C64.05 10.3974 64.536 10.2988 65.0461 10.2988C65.5492 10.2988 66.0323 10.3974 66.4956 10.5946C66.9587 10.7918 67.3566 11.0573 67.6891 11.391C68.0217 11.7249 68.2881 12.1213 68.4885 12.5805C68.6874 13.0396 68.7869 13.5185 68.7869 14.017C68.7869 14.5185 68.6882 14.9988 68.4906 15.4579C68.2931 15.9171 68.0266 16.3128 67.6913 16.6452C67.3574 16.9761 66.9587 17.2409 66.4956 17.4396C66.0323 17.6368 65.5492 17.7353 65.0461 17.7353C64.3655 17.7353 63.7382 17.5684 63.1641 17.2346C62.59 16.9008 62.1373 16.4494 61.8062 15.8804C61.4751 15.3114 61.3096 14.6903 61.3096 14.017ZM62.9061 14.017C62.9061 14.6016 63.1157 15.0995 63.5349 15.5107C63.9527 15.9205 64.4564 16.1255 65.0461 16.1255C65.6287 16.1255 66.1282 15.9205 66.5445 15.5107C66.9609 15.0995 67.169 14.6016 67.169 14.017C67.169 13.4397 66.9609 12.9446 66.5445 12.5319C66.1282 12.1193 65.6287 11.9129 65.0461 11.9129C64.4564 11.9129 63.9527 12.1178 63.5349 12.5277C63.1157 12.9389 62.9061 13.4354 62.9061 14.017ZM74.5994 12.0312H72.0353V10.4214H78.9392V12.0312H76.3686V17.6064H74.5994V12.0312ZM85.6832 17.6064H80.1306V10.4214H85.6832V12.0312H81.8806V13.2629H85.0544V14.765H81.8806V16.003H85.6832V17.6064ZM86.4804 13.9601C86.4804 13.4642 86.5791 12.9932 86.7766 12.5467C86.9741 12.1002 87.2448 11.7115 87.5887 11.3805C87.9326 11.051 88.349 10.7882 88.8378 10.5925C89.3266 10.3967 89.8488 10.2988 90.4044 10.2988C91.1604 10.2988 91.834 10.4594 92.4251 10.7805C93.0176 11.1016 93.4801 11.539 93.8126 12.0924L92.3292 12.9481C92.1529 12.6115 91.9 12.3459 91.5703 12.1517C91.2407 11.9573 90.852 11.8601 90.4044 11.8601C89.7764 11.8601 89.2598 12.0608 88.8549 12.4621C88.4512 12.8622 88.2495 13.3614 88.2495 13.9601C88.2495 14.3375 88.3398 14.6896 88.5202 15.0163C88.7006 15.3431 88.9564 15.6065 89.2875 15.8065C89.6186 16.0064 89.9909 16.1064 90.4044 16.1064C90.8349 16.1064 91.2137 16.0078 91.5405 15.8106C91.8687 15.615 92.1246 15.3501 92.3078 15.0163L93.7913 15.8635C93.4518 16.4269 92.9871 16.8797 92.3973 17.2219C91.8077 17.5641 91.1433 17.7353 90.4044 17.7353C89.846 17.7353 89.3231 17.6374 88.8357 17.4416C88.3482 17.2458 87.9326 16.9804 87.5887 16.6452C87.2448 16.31 86.9741 15.91 86.7766 15.4453C86.5791 14.9804 86.4804 14.4854 86.4804 13.9601ZM96.7114 17.6064H94.9616V10.4214H96.7114V13.2121H99.8959V10.4214H101.654V17.6064H99.8959V14.8156H96.7114V17.6064ZM104.922 17.6064H103.163V10.4214H104.922L108.59 14.8051V10.4214H110.351V17.6064H108.59L104.922 13.2121V17.6064ZM111.402 14.017C111.402 13.5142 111.499 13.0347 111.696 12.5784C111.892 12.1207 112.156 11.7249 112.489 11.391C112.821 11.0573 113.218 10.7918 113.68 10.5946C114.142 10.3974 114.628 10.2988 115.138 10.2988C115.641 10.2988 116.124 10.3974 116.587 10.5946C117.051 10.7918 117.449 11.0573 117.781 11.391C118.114 11.7249 118.38 12.1213 118.58 12.5805C118.779 13.0396 118.879 13.5185 118.879 14.017C118.879 14.5185 118.78 14.9988 118.582 15.4579C118.385 15.9171 118.119 16.3128 117.783 16.6452C117.449 16.9761 117.051 17.2409 116.587 17.4396C116.124 17.6368 115.641 17.7353 115.138 17.7353C114.457 17.7353 113.831 17.5684 113.256 17.2346C112.682 16.9008 112.23 16.4494 111.899 15.8804C111.567 15.3114 111.402 14.6903 111.402 14.017ZM112.998 14.017C112.998 14.6016 113.208 15.0995 113.627 15.5107C114.045 15.9205 114.548 16.1255 115.138 16.1255C115.72 16.1255 116.221 15.9205 116.636 15.5107C117.053 15.0995 117.261 14.6016 117.261 14.017C117.261 13.4397 117.053 12.9446 116.636 12.5319C116.221 12.1193 115.72 11.9129 115.138 11.9129C114.548 11.9129 114.045 12.1178 113.627 12.5277C113.208 12.9389 112.998 13.4354 112.998 14.017ZM125.583 17.6064H120.03V10.4214H121.777V16.003H125.583V17.6064ZM125.983 14.017C125.983 13.5142 126.081 13.0347 126.277 12.5784C126.474 12.1207 126.738 11.7249 127.07 11.391C127.402 11.0573 127.8 10.7918 128.262 10.5946C128.724 10.3974 129.21 10.2988 129.72 10.2988C130.223 10.2988 130.706 10.3974 131.169 10.5946C131.631 10.7918 132.029 11.0573 132.363 11.391C132.695 11.7249 132.962 12.1213 133.162 12.5805C133.361 13.0396 133.46 13.5185 133.46 14.017C133.46 14.5185 133.362 14.9988 133.164 15.4579C132.967 15.9171 132.701 16.3128 132.365 16.6452C132.03 16.9761 131.631 17.2409 131.169 17.4396C130.706 17.6368 130.223 17.7353 129.72 17.7353C129.039 17.7353 128.411 17.5684 127.838 17.2346C127.264 16.9008 126.81 16.4494 126.48 15.8804C126.149 15.3114 125.983 14.6903 125.983 14.017ZM127.58 14.017C127.58 14.6016 127.789 15.0995 128.207 15.5107C128.626 15.9205 129.13 16.1255 129.72 16.1255C130.302 16.1255 130.802 15.9205 131.218 15.5107C131.635 15.0995 131.842 14.6016 131.842 14.017C131.842 13.4397 131.635 12.9446 131.218 12.5319C130.802 12.1193 130.302 11.9129 129.72 11.9129C129.13 11.9129 128.626 12.1178 128.207 12.5277C127.789 12.9389 127.58 13.4354 127.58 14.017ZM134.256 14.017C134.256 13.5213 134.355 13.0467 134.554 12.5931C134.752 12.1396 135.022 11.7439 135.367 11.4058C135.709 11.0692 136.126 10.8003 136.619 10.5988C137.112 10.3988 137.636 10.2988 138.19 10.2988C138.871 10.2988 139.488 10.439 140.042 10.7192C140.598 10.9981 141.063 11.3819 141.439 11.8706L139.93 12.6291C139.552 12.1586 138.964 11.9235 138.169 11.9235C137.538 11.9235 137.021 12.1193 136.619 12.5107C136.217 12.9023 136.016 13.3974 136.016 13.9959C136.016 14.5776 136.222 15.0762 136.634 15.4917C137.047 15.9072 137.566 16.1149 138.19 16.1149C138.946 16.1149 139.539 15.9142 139.97 15.5128V14.8156H137.764V13.4847H141.515V16.1466C141.498 16.1846 141.446 16.2536 141.36 16.3537C141.273 16.4537 141.131 16.5853 140.935 16.7487C140.739 16.9107 140.52 17.0635 140.275 17.2071C140.03 17.3494 139.723 17.4734 139.354 17.5789C138.985 17.6832 138.601 17.7353 138.201 17.7353C137.618 17.7353 137.077 17.6325 136.577 17.4268C136.078 17.2199 135.661 16.9445 135.325 16.6009C134.992 16.2571 134.73 15.8614 134.541 15.4135C134.35 14.967 134.256 14.5016 134.256 14.017ZM144.587 17.6064H142.837V10.4214H144.587V17.6064ZM151.757 17.6064H146.204V10.4214H151.757V12.0312H147.952V13.2629H151.128V14.765H147.952V16.003H151.757V17.6064ZM152.84 15.0946H154.578C154.582 15.1254 154.589 15.1671 154.6 15.2191C154.613 15.2698 154.653 15.3607 154.72 15.4917C154.789 15.6227 154.873 15.7381 154.976 15.8381C155.078 15.9367 155.232 16.0276 155.44 16.1107C155.649 16.1937 155.887 16.2354 156.155 16.2354C156.515 16.2354 156.783 16.172 156.958 16.0452C157.133 15.9199 157.221 15.7713 157.221 15.5994C157.221 15.5107 157.196 15.4304 157.146 15.3586C157.096 15.2854 157.037 15.2248 156.968 15.1769C156.9 15.129 156.803 15.0818 156.674 15.0353C156.546 14.9889 156.434 14.9529 156.335 14.9276C156.239 14.9008 156.108 14.867 155.941 14.8262C155.251 14.6643 154.743 14.5163 154.417 14.3825C153.438 13.9797 152.949 13.3784 152.949 12.5784C152.949 12.1474 153.08 11.7579 153.34 11.41C153.603 11.0608 153.959 10.7882 154.409 10.5925C154.858 10.3967 155.355 10.2988 155.899 10.2988C156.35 10.2988 156.765 10.3707 157.142 10.5143C157.516 10.6594 157.821 10.8475 158.055 11.0784C158.29 11.3108 158.471 11.5671 158.597 11.8474C158.724 12.1276 158.787 12.4107 158.787 12.6966H157.05C157.05 12.4939 156.941 12.3023 156.724 12.122C156.507 11.9403 156.226 11.8496 155.88 11.8496C155.591 11.8496 155.325 11.9093 155.082 12.029C154.839 12.1474 154.718 12.303 154.718 12.4959C154.718 12.6565 154.823 12.784 155.033 12.8784C155.243 12.9742 155.638 13.0959 156.216 13.2439C156.875 13.4114 157.351 13.5608 157.642 13.6918C158.434 14.0452 158.87 14.5607 158.954 15.2382C158.964 15.3241 158.97 15.4121 158.97 15.5022C158.97 16.1797 158.7 16.7212 158.16 17.1269C157.62 17.5325 156.92 17.7353 156.06 17.7353C155.623 17.7353 155.222 17.6797 154.857 17.5684C154.49 17.4558 154.185 17.3092 153.942 17.129C153.699 16.9487 153.493 16.7416 153.324 16.5079C153.153 16.2741 153.03 16.0374 152.953 15.798C152.877 15.56 152.84 15.3255 152.84 15.0946Z" fill="#131C25"/>
<path d="M0 0.000244141L14.5908 8.40822V10.6184L27.7273 17.9692V19.5548L0 3.55572V0.000244141Z" fill="#131C25"/>
<path d="M14.5908 21.3804L20.2952 24.5725L19.0263 25.2962L0 14.3177V10.7622L14.5908 19.1701V21.3804Z" fill="#131C25"/>
<path d="M14.5908 26.7613L15.533 27.2886L14.3364 27.9711L0 19.6986V16.1434L14.5908 24.5515V26.7613Z" fill="#131C25"/>
<path d="M14.5908 13.7892V15.9991L25.0574 21.8564L23.7161 22.6213L0 8.93638V5.38123L14.5908 13.7892Z" fill="#131C25"/>
<path d="M14.6631 6.53093L27.7273 0V13.8527L14.6631 6.53093Z" fill="#131C25"/>
</g>
<defs>
<clipPath id="clip0_18_1371">
<rect width="159" height="28" fill="white"/>
</clipPath>
</defs>
</svg>
