<svg width="673" height="700" viewBox="0 0 673 700" fill="none" xmlns="http://www.w3.org/2000/svg">
<path style="mix-blend-mode:screen" d="M313.685 298.811C342.93 298.811 366.637 275.104 366.637 245.859C366.637 216.615 342.93 192.907 313.685 192.907C284.441 192.907 260.733 216.615 260.733 245.859C260.733 275.104 284.441 298.811 313.685 298.811Z" fill="url(#paint0_linear_446_106)"/>
<g opacity="0.6">
<path opacity="0.0344828" d="M85.9362 163.146C89.1063 159.308 93.9015 156.907 100.261 155.938C106.628 154.967 114.502 155.445 123.711 157.315C142.129 161.055 165.682 170.321 192.785 184.329C246.977 212.338 315.16 259.201 384.47 318.287C453.779 377.374 511.045 437.455 547.605 486.812C565.89 511.496 578.962 533.453 585.785 551.231C589.197 560.121 591.027 567.916 591.193 574.455C591.358 580.986 589.863 586.2 586.693 590.039C583.522 593.877 578.727 596.278 572.368 597.247C566.001 598.217 558.127 597.74 548.918 595.87C530.5 592.13 506.947 582.864 479.844 568.856C425.652 540.847 357.469 493.984 288.159 434.898C218.849 375.811 161.584 315.73 125.023 266.373C106.739 241.688 93.6669 219.731 86.8434 201.953C83.4314 193.064 81.6013 185.269 81.4362 178.73C81.2712 172.199 82.7661 166.984 85.9362 163.146Z" stroke="#5697B6" stroke-opacity="0.7" stroke-width="2"/>
<path opacity="0.0689655" d="M105.198 139.129C108.685 135.587 113.667 133.62 120.085 133.217C126.511 132.815 134.314 133.987 143.328 136.666C161.355 142.023 184.024 153.339 209.823 169.694C261.406 202.395 325.309 255.117 389.287 320.116C453.264 385.115 505.158 450.039 537.345 502.445C553.443 528.655 564.581 551.686 569.854 570.001C572.49 579.159 573.645 587.086 573.248 593.615C572.852 600.136 570.916 605.198 567.43 608.74C563.943 612.282 558.961 614.249 552.543 614.651C546.117 615.054 538.314 613.881 529.3 611.203C511.273 605.846 488.603 594.53 462.805 578.175C411.222 545.474 347.319 492.752 283.341 427.753C219.364 362.754 167.47 297.83 135.283 245.424C119.185 219.213 108.046 196.182 102.774 177.868C100.137 168.71 98.9829 160.782 99.3794 154.253C99.7753 147.733 101.712 142.671 105.198 139.129Z" stroke="#5697B6" stroke-opacity="0.7" stroke-width="2"/>
<path opacity="0.103448" d="M126.22 116.898C129.996 113.679 135.127 112.16 141.555 112.328C147.992 112.495 155.665 114.355 164.415 117.821C181.914 124.754 203.526 138.035 227.824 156.612C276.405 193.756 335.543 251.936 393.701 322.353C451.859 392.77 497.986 462.042 525.555 517.099C539.344 544.635 548.464 568.565 552.145 587.278C553.986 596.634 554.456 604.634 553.501 611.103C552.547 617.564 550.184 622.434 546.408 625.653C542.632 628.872 537.501 630.391 531.073 630.223C524.636 630.055 516.964 628.196 508.214 624.729C490.715 617.797 469.102 604.516 444.805 585.939C396.223 548.795 337.085 490.614 278.927 420.197C220.769 349.781 174.642 280.509 147.073 225.451C133.285 197.915 124.164 173.985 120.483 155.273C118.642 145.916 118.172 137.917 119.127 131.448C120.081 124.987 122.444 120.117 126.22 116.898Z" stroke="#5697B6" stroke-opacity="0.7" stroke-width="2"/>
<path opacity="0.137931" d="M148.842 96.6037C152.878 93.732 158.119 92.6732 164.509 93.4093C170.906 94.1464 178.39 96.6781 186.81 100.906C203.648 109.362 224.039 124.506 246.651 145.164C291.861 186.469 345.783 249.665 397.679 324.964C449.575 400.262 489.584 473.355 512.326 530.645C523.699 559.297 530.732 583.944 532.794 602.911C533.825 612.396 533.607 620.407 532.101 626.766C530.597 633.118 527.825 637.76 523.788 640.631C519.751 643.503 514.51 644.562 508.121 643.826C501.723 643.088 494.239 640.557 485.82 636.328C468.981 627.873 448.59 612.728 425.979 592.071C380.768 550.766 326.847 487.57 274.95 412.271C223.054 336.972 183.045 263.879 160.304 206.59C148.93 177.938 141.897 153.291 139.835 134.323C138.804 124.839 139.022 116.828 140.529 110.468C142.033 104.117 144.805 99.4753 148.842 96.6037Z" stroke="#5697B6" stroke-opacity="0.7" stroke-width="2"/>
<path opacity="0.172414" d="M172.888 78.3777C177.155 75.875 182.466 75.284 188.768 76.5832C195.078 77.884 202.316 81.0688 210.341 86.0266C226.39 95.9414 245.405 112.834 266.158 135.415C307.653 180.567 355.949 248.297 401.188 327.904C446.427 407.512 480.014 483.87 497.754 542.955C506.626 572.506 511.518 597.682 511.945 616.76C512.159 626.3 511.254 634.261 509.208 640.463C507.165 646.657 504.005 651.035 499.739 653.538C495.472 656.04 490.161 656.631 483.859 655.332C477.549 654.031 470.311 650.846 462.286 645.889C446.237 635.974 427.222 619.082 406.469 596.5C364.973 551.349 316.678 483.619 271.439 404.011C226.199 324.403 192.613 248.046 174.873 188.96C166.001 159.41 161.109 134.233 160.681 115.155C160.468 105.616 161.372 97.6544 163.419 91.4522C165.462 85.2578 168.621 80.8803 172.888 78.3777Z" stroke="#5697B6" stroke-opacity="0.7" stroke-width="2"/>
<path opacity="0.206897" d="M198.181 62.3393C202.645 60.2244 207.986 60.1058 214.152 61.958C220.327 63.8126 227.265 67.6262 234.834 73.2758C249.971 84.5743 267.465 103.086 286.202 127.42C323.666 176.074 365.968 247.823 404.205 331.133C442.443 414.444 469.352 493.485 481.956 553.917C488.259 584.141 490.973 609.655 489.762 628.698C489.156 638.221 487.572 646.072 485.002 652.069C482.434 658.059 478.912 662.139 474.448 664.254C469.984 666.369 464.643 666.488 458.476 664.636C452.302 662.781 445.364 658.967 437.795 653.318C422.657 642.019 405.164 623.508 386.427 599.174C348.962 550.52 306.661 478.771 268.423 395.46C230.185 312.15 203.277 233.108 190.673 172.677C184.369 142.453 181.656 116.939 182.867 97.8953C183.472 88.3729 185.056 80.5219 187.627 74.5245C190.194 68.5346 193.717 64.4541 198.181 62.3393Z" stroke="#5697B6" stroke-opacity="0.7" stroke-width="2"/>
<path opacity="0.241379" d="M224.524 48.593C229.151 46.8818 234.481 47.2363 240.466 49.6275C246.457 52.0217 253.042 56.4352 260.098 62.7336C274.209 75.3296 290.047 95.3201 306.626 121.22C339.774 173.007 375.759 248.229 406.705 334.608C437.651 420.988 457.676 502.111 465.048 563.429C468.735 594.097 469.249 619.754 466.409 638.618C464.989 648.051 462.737 655.732 459.662 661.479C456.591 667.218 452.732 670.971 448.104 672.682C443.477 674.393 438.146 674.039 432.162 671.647C426.17 669.253 419.586 664.84 412.53 658.541C398.419 645.945 382.58 625.955 366.002 600.055C332.854 548.268 296.868 473.046 265.923 386.667C234.977 300.287 214.952 219.163 207.58 157.846C203.893 127.178 203.379 101.521 206.219 82.6571C207.639 73.2243 209.891 65.5434 212.966 59.7964C216.037 54.0566 219.896 50.3042 224.524 48.593Z" stroke="#5697B6" stroke-opacity="0.7" stroke-width="2"/>
<path opacity="0.275862" d="M251.718 37.2227C256.474 35.928 261.753 36.7529 267.51 39.665C273.273 42.5806 279.454 47.5604 285.943 54.4597C298.92 68.2573 312.984 89.5745 327.277 116.844C355.857 171.369 385.252 249.491 408.67 338.282C432.087 427.073 445.077 509.662 447.161 571.399C448.203 602.276 446.514 627.882 442.067 646.423C439.843 655.694 436.941 663.146 433.384 668.599C429.832 674.045 425.666 677.441 420.91 678.736C416.154 680.031 410.875 679.206 405.119 676.294C399.355 673.378 393.174 668.398 386.686 661.499C373.709 647.701 359.645 626.384 345.352 599.115C316.772 544.59 287.377 466.468 263.959 377.676C240.541 288.885 227.551 206.297 225.468 144.559C224.426 113.682 226.114 88.077 230.562 69.5359C232.786 60.2647 235.688 52.8124 239.244 47.3596C242.797 41.9135 246.962 38.5175 251.718 37.2227Z" stroke="#5697B6" stroke-opacity="0.7" stroke-width="2"/>
<path opacity="0.310345" d="M279.557 28.2933C284.405 27.4247 289.593 28.7137 295.078 32.1243C300.569 35.5393 306.299 41.0474 312.172 48.4952C323.915 63.3894 336.097 85.8709 347.997 114.302C371.79 171.15 394.372 251.578 410.084 342.105C425.795 432.632 431.651 516.057 428.43 577.744C426.819 608.596 422.941 633.954 416.919 652.031C413.908 661.07 410.378 668.237 406.367 673.355C402.361 678.465 397.92 681.479 393.072 682.348C388.223 683.216 383.036 681.927 377.551 678.517C372.059 675.102 366.329 669.594 360.457 662.146C348.713 647.252 336.532 624.77 324.632 596.339C300.838 539.491 278.256 459.063 262.545 368.536C246.833 278.009 240.978 194.584 244.199 132.897C245.809 102.045 249.688 76.6867 255.709 58.6099C258.72 49.5708 262.251 42.4038 266.261 37.2866C270.267 32.1757 274.708 29.1618 279.557 28.2933Z" stroke="#5697B6" stroke-opacity="0.7" stroke-width="2"/>
<path opacity="0.344828" d="M307.827 21.852C312.732 21.4161 317.789 23.1593 322.96 27.0427C328.138 30.9309 333.374 36.9255 338.585 44.8649C349.006 60.7425 359.213 84.2171 368.628 113.594C387.454 172.333 403.051 254.454 410.937 346.028C418.822 437.602 417.499 521.227 408.999 582.395C404.747 612.987 398.708 637.905 391.159 655.38C387.384 664.118 383.252 670.946 378.818 675.688C374.389 680.425 369.706 683.034 364.802 683.47C359.898 683.906 354.84 682.162 349.669 678.279C344.491 674.391 339.256 668.396 334.045 660.457C323.623 644.579 313.417 621.105 304.001 591.728C285.175 532.989 269.579 450.868 261.693 359.294C253.807 267.72 255.13 184.094 263.631 122.927C267.882 92.3351 273.921 67.4165 281.471 49.9415C285.246 41.2034 289.377 34.3762 293.812 29.6336C298.241 24.8969 302.923 22.2879 307.827 21.852Z" stroke="#5697B6" stroke-opacity="0.7" stroke-width="2"/>
<path opacity="0.37931" d="M336.314 17.9294C341.236 17.9294 346.125 20.1138 350.943 24.4403C355.768 28.7722 360.469 35.2076 364.98 43.5782C373.999 60.3182 382.153 84.6072 389.013 114.706C402.728 174.888 411.22 258.078 411.22 350.002C411.22 441.926 402.728 525.116 389.013 585.298C382.153 615.397 373.999 639.686 364.98 656.426C360.469 664.797 355.768 671.232 350.943 675.564C346.125 679.89 341.236 682.075 336.314 682.075C331.391 682.075 326.502 679.89 321.684 675.564C316.859 671.232 312.158 664.797 307.648 656.426C298.628 639.686 290.474 615.397 283.614 585.298C269.899 525.116 261.407 441.926 261.407 350.002C261.407 258.078 269.899 174.888 283.614 114.706C290.474 84.6072 298.628 60.3182 307.648 43.5782C312.158 35.2076 316.859 28.7722 321.684 24.4403C326.502 20.1138 331.391 17.9294 336.314 17.9294Z" stroke="#5697B6" stroke-opacity="0.7" stroke-width="2"/>
<path opacity="0.413793" d="M364.801 16.5319C369.705 16.9678 374.388 19.5769 378.817 24.3136C383.251 29.0561 387.383 35.8834 391.158 44.6215C398.707 62.0964 404.747 87.015 408.998 117.607C417.498 178.774 418.822 262.4 410.936 353.974C403.05 445.547 387.454 527.669 368.628 586.408C359.212 615.785 349.006 639.259 338.584 655.137C333.373 663.076 328.137 669.071 322.96 672.959C317.788 676.842 312.731 678.586 307.827 678.15C302.923 677.714 298.24 675.105 293.811 670.368C289.377 665.626 285.245 658.798 281.47 650.06C273.921 632.585 267.881 607.667 263.63 577.075C255.13 515.907 253.806 432.282 261.692 340.708C269.578 249.134 285.174 167.013 304 108.274C313.416 78.897 323.622 55.4225 334.044 39.5449C339.255 31.6055 344.491 25.6109 349.668 21.7227C354.84 17.8393 359.897 16.096 364.801 16.5319Z" stroke="#5697B6" stroke-opacity="0.7" stroke-width="2"/>
<path opacity="0.448276" d="M393.072 17.6539C397.921 18.5225 402.362 21.5364 406.367 26.6472C410.378 31.7644 413.908 38.9314 416.919 47.9706C422.941 66.0473 426.819 91.4059 428.43 122.258C431.651 183.945 425.795 267.369 410.084 357.896C394.372 448.423 371.79 528.851 347.997 585.699C336.097 614.131 323.916 636.612 312.172 651.507C306.3 658.954 300.57 664.462 295.078 667.877C289.593 671.288 284.405 672.577 279.557 671.708C274.708 670.84 270.267 667.826 266.262 662.715C262.251 657.598 258.721 650.431 255.71 641.392C249.688 623.315 245.81 597.957 244.199 567.105C240.978 505.417 246.834 421.993 262.545 331.466C278.257 240.939 300.839 160.511 324.632 103.663C336.532 75.2316 348.713 52.7501 360.457 37.8558C366.33 30.4081 372.06 24.8999 377.551 21.485C383.036 18.0743 388.224 16.7854 393.072 17.6539Z" stroke="#5697B6" stroke-opacity="0.7" stroke-width="2"/>
<path opacity="0.482759" d="M420.91 21.2678C425.666 22.5625 429.832 25.9585 433.384 31.4046C436.94 36.8574 439.842 44.3097 442.066 53.581C446.514 72.122 448.202 97.7273 447.16 128.604C445.077 190.342 432.087 272.93 408.669 361.721C385.252 450.513 355.856 528.635 327.277 583.16C312.983 610.429 298.919 631.746 285.943 645.544C279.454 652.443 273.273 657.423 267.509 660.339C261.753 663.251 256.474 664.076 251.718 662.781C246.962 661.486 242.796 658.09 239.244 652.644C235.688 647.191 232.786 639.739 230.562 630.468C226.114 611.927 224.425 586.321 225.467 555.444C227.551 493.707 240.541 411.118 263.958 322.327C287.376 233.536 316.772 155.414 345.351 100.889C359.645 73.6195 373.708 52.3024 386.685 38.5047C393.174 31.6054 399.355 26.6256 405.118 23.71C410.875 20.7979 416.154 19.973 420.91 21.2678Z" stroke="#5697B6" stroke-opacity="0.7" stroke-width="2"/>
<path opacity="0.517241" d="M448.104 27.3174C452.732 29.0286 456.591 32.781 459.662 38.5208C462.737 44.2678 464.989 51.9487 466.409 61.3815C469.25 80.2456 468.735 105.903 465.048 136.57C457.676 197.888 437.651 279.012 406.705 365.391C375.76 451.771 339.774 526.993 306.626 578.779C290.048 604.679 274.209 624.67 260.098 637.266C253.042 643.564 246.458 647.978 240.466 650.372C234.482 652.763 229.152 653.118 224.524 651.406C219.896 649.695 216.038 645.943 212.966 640.203C209.891 634.456 207.639 626.775 206.219 617.342C203.379 598.478 203.894 572.821 207.58 542.154C214.952 480.836 234.978 399.712 265.923 313.333C296.869 226.953 332.854 151.731 366.002 99.9447C382.581 74.0446 398.419 54.054 412.53 41.4581C419.586 35.1596 426.171 30.7461 432.162 28.3519C438.147 25.9607 443.477 25.6062 448.104 27.3174Z" stroke="#5697B6" stroke-opacity="0.7" stroke-width="2"/>
<path opacity="0.551724" d="M474.447 35.7464C478.912 37.8612 482.434 41.9417 485.001 47.9316C487.572 53.929 489.156 61.78 489.761 71.3024C490.973 90.3461 488.259 115.86 481.955 146.084C469.351 206.515 442.443 285.557 404.205 368.867C365.967 452.178 323.666 523.927 286.201 572.581C267.464 596.915 249.971 615.426 234.833 626.725C227.264 632.374 220.326 636.188 214.152 638.043C207.985 639.895 202.644 639.776 198.18 637.661C193.716 635.547 190.194 631.466 187.627 625.476C185.056 619.479 183.472 611.628 182.866 602.105C181.655 583.062 184.369 557.548 190.672 527.324C203.276 466.892 230.185 387.851 268.423 304.54C306.661 221.23 348.962 149.481 386.426 100.827C405.164 76.4932 422.657 57.9814 437.794 46.6829C445.364 41.0333 452.301 37.2197 458.476 35.3651C464.643 33.5129 469.983 33.6315 474.447 35.7464Z" stroke="#5697B6" stroke-opacity="0.7" stroke-width="2"/>
<path opacity="0.586207" d="M499.739 46.4665C504.006 48.9691 507.165 53.3466 509.209 59.541C511.255 65.7432 512.159 73.7045 511.946 83.2442C511.518 102.322 506.627 127.498 497.754 157.049C480.014 216.134 446.428 292.492 401.188 372.1C355.949 451.707 307.654 519.438 266.158 564.589C245.405 587.17 226.39 604.063 210.341 613.978C202.316 618.935 195.078 622.12 188.768 623.421C182.466 624.72 177.155 624.129 172.888 621.626C168.622 619.124 165.462 614.746 163.419 608.552C161.373 602.35 160.468 594.388 160.682 584.849C161.109 565.771 166.001 540.594 174.873 511.044C192.613 451.959 226.2 375.601 271.439 295.993C316.678 216.385 364.974 148.655 406.469 103.504C427.222 80.9225 446.237 64.0302 462.286 54.1154C470.311 49.1576 477.549 45.9728 483.859 44.672C490.161 43.3729 495.472 43.9638 499.739 46.4665Z" stroke="#5697B6" stroke-opacity="0.7" stroke-width="2"/>
<path opacity="0.62069" d="M523.788 59.3713C527.824 62.2429 530.596 66.8843 532.101 73.236C533.607 79.5958 533.825 87.6067 532.794 97.091C530.732 116.058 523.699 140.705 512.325 169.358C489.584 226.647 449.575 299.74 397.679 375.039C345.783 450.338 291.861 513.533 246.65 554.838C224.039 575.496 203.648 590.64 186.81 599.096C178.39 603.324 170.906 605.856 164.508 606.593C158.119 607.329 152.878 606.27 148.841 603.399C144.805 600.527 142.033 595.886 140.528 589.534C139.022 583.174 138.804 575.163 139.835 565.679C141.897 546.712 148.93 522.065 160.304 493.412C183.045 436.123 223.054 363.03 274.95 287.731C326.846 212.433 380.768 149.237 425.979 107.932C448.59 87.274 468.981 72.1299 485.819 63.674C494.239 59.4457 501.723 56.914 508.121 56.1769C514.51 55.4408 519.751 56.4996 523.788 59.3713Z" stroke="#5697B6" stroke-opacity="0.7" stroke-width="2"/>
<path opacity="0.655172" d="M546.409 74.3507C550.185 77.5696 552.548 82.4396 553.502 88.9003C554.457 95.3694 553.987 103.369 552.146 112.726C548.465 131.438 539.344 155.368 525.556 182.904C497.987 237.962 451.86 307.233 393.702 377.65C335.544 448.067 276.406 506.247 227.824 543.392C203.527 561.969 181.915 575.249 164.416 582.182C155.665 585.649 147.993 587.508 141.556 587.676C135.128 587.843 129.997 586.325 126.221 583.106C122.445 579.887 120.082 575.017 119.128 568.556C118.173 562.087 118.643 554.087 120.484 544.73C124.165 526.018 133.286 502.088 147.074 474.552C174.643 419.495 220.77 350.223 278.928 279.806C337.086 209.389 396.224 151.209 444.806 114.065C469.103 95.4875 490.715 82.2067 508.215 75.2741C516.965 71.8076 524.637 69.9482 531.074 69.7804C537.502 69.6128 542.633 71.1317 546.409 74.3507Z" stroke="#5697B6" stroke-opacity="0.7" stroke-width="2"/>
<path opacity="0.689655" d="M567.43 91.2625C570.917 94.8046 572.853 99.8662 573.249 106.387C573.646 112.916 572.491 120.843 569.855 130.001C564.582 148.316 553.444 171.347 537.346 197.557C505.159 249.964 453.265 314.887 389.288 379.886C325.31 444.885 261.407 497.607 209.824 530.308C184.025 546.663 161.356 557.98 143.329 563.336C134.315 566.015 126.512 567.188 120.086 566.785C113.668 566.383 108.686 564.415 105.199 560.873C101.713 557.331 99.7763 552.269 99.3803 545.749C98.9839 539.22 100.138 531.292 102.775 522.135C108.047 503.82 119.186 480.789 135.284 454.578C167.471 402.172 219.365 337.248 283.342 272.249C347.32 207.25 411.223 154.528 462.806 121.827C488.604 105.472 511.274 94.1561 529.301 88.7994C538.315 86.1209 546.118 84.948 552.544 85.3508C558.962 85.753 563.944 87.7205 567.43 91.2625Z" stroke="#5697B6" stroke-opacity="0.7" stroke-width="2"/>
<path opacity="0.724138" d="M586.691 109.965C589.861 113.803 591.356 119.018 591.191 125.549C591.026 132.088 589.196 139.883 585.784 148.773C578.961 166.55 565.889 188.507 547.604 213.192C511.044 262.549 453.778 322.63 384.468 381.717C315.158 440.803 246.976 487.666 192.784 515.675C165.681 529.683 142.127 538.949 123.71 542.689C114.501 544.559 106.627 545.037 100.259 544.066C93.9003 543.097 89.1051 540.696 85.935 536.858C82.7649 533.019 81.27 527.805 81.435 521.274C81.6001 514.735 83.4303 506.94 86.8422 498.05C93.6657 480.272 106.737 458.316 125.022 433.631C161.582 384.274 218.848 324.193 288.158 265.106C357.468 206.02 425.651 159.157 479.842 131.148C506.946 117.14 530.499 107.874 548.917 104.134C558.126 102.264 566 101.786 572.367 102.757C578.726 103.726 583.521 106.127 586.691 109.965Z" stroke="#5697B6" stroke-opacity="0.7" stroke-width="2"/>
<path opacity="0.758621" d="M604.049 130.287C606.879 134.393 607.92 139.721 607.196 146.212C606.47 152.712 603.978 160.315 599.817 168.868C591.495 185.974 576.589 206.69 556.256 229.662C515.601 275.593 453.4 330.375 379.285 383.099C305.17 435.823 233.227 476.47 176.839 499.574C148.637 511.129 124.379 518.273 105.711 520.368C96.3766 521.416 88.492 521.194 82.232 519.664C75.9803 518.136 71.4085 515.319 68.579 511.213C65.7495 507.108 64.7078 501.78 65.4323 495.289C66.1579 488.789 68.6497 481.186 72.8111 472.632C81.1336 455.527 96.0389 434.811 116.372 411.839C157.027 365.908 219.228 311.126 293.343 258.402C367.458 205.678 439.401 165.03 495.789 141.927C523.991 130.372 548.249 123.227 566.917 121.132C576.252 120.085 584.136 120.306 590.396 121.837C596.648 123.365 601.22 126.182 604.049 130.287Z" stroke="#5697B6" stroke-opacity="0.7" stroke-width="2"/>
<path opacity="0.793103" d="M619.369 152.059C621.836 156.401 622.417 161.801 621.138 168.204C619.858 174.615 616.723 181.968 611.844 190.12C602.086 206.424 585.46 225.741 563.234 246.824C518.794 288.981 452.13 338.046 373.774 384.007C295.419 429.968 220.262 464.09 162.107 482.112C133.022 491.126 108.243 496.096 89.4669 496.53C80.0783 496.746 72.2428 495.828 66.1379 493.749C60.0411 491.673 55.7277 488.461 53.2605 484.12C50.7934 479.779 50.2129 474.378 51.4915 467.976C52.7719 461.565 55.9064 454.211 60.7857 446.059C70.5438 429.756 87.1693 410.439 109.395 389.355C153.836 347.199 220.5 298.133 298.855 252.172C377.211 206.212 452.367 172.09 510.522 154.067C539.608 145.053 564.386 140.084 583.163 139.65C592.551 139.433 600.387 140.352 606.492 142.431C612.589 144.507 616.902 147.718 619.369 152.059Z" stroke="#5697B6" stroke-opacity="0.7" stroke-width="2"/>
<path opacity="0.827586" d="M632.533 175.097C634.618 179.641 634.733 185.074 632.91 191.338C631.085 197.611 627.331 204.659 621.771 212.348C610.652 227.725 592.433 245.496 568.483 264.532C520.595 302.592 449.976 345.568 367.976 384.416C285.976 423.263 208.178 450.601 148.699 463.405C118.951 469.809 93.8409 472.566 75.099 471.335C65.7277 470.72 58.0009 469.111 52.0976 466.499C46.2021 463.891 42.1799 460.31 40.0942 455.766C38.0084 451.222 37.8936 445.789 39.7166 439.524C41.542 433.251 45.2955 426.204 50.8554 418.515C61.9748 403.138 80.194 385.367 104.144 366.331C152.031 328.27 222.651 285.295 304.651 246.447C386.651 207.599 464.448 180.262 523.928 167.458C553.675 161.054 578.786 158.297 597.528 159.528C606.899 160.143 614.626 161.752 620.529 164.363C626.425 166.971 630.447 170.553 632.533 175.097Z" stroke="#5697B6" stroke-opacity="0.7" stroke-width="2"/>
<path opacity="0.862069" d="M643.444 199.202C645.133 203.914 644.781 209.337 642.427 215.416C640.071 221.504 635.727 228.192 629.529 235.359C617.133 249.693 597.459 265.783 571.967 282.626C520.997 316.301 446.959 352.86 361.939 384.299C276.919 415.738 197.072 436.082 136.721 443.571C106.537 447.317 81.2862 447.839 62.7213 444.954C53.4386 443.511 45.8793 441.224 40.2225 438.1C34.5733 434.98 30.873 431.056 29.1847 426.343C27.4964 421.631 27.8483 416.208 30.2018 410.129C32.5584 404.041 36.9022 397.353 43.1004 390.185C55.4965 375.851 75.1707 359.761 100.662 342.919C151.632 309.244 225.67 272.685 310.69 241.246C395.711 209.807 475.557 189.463 535.908 181.974C566.092 178.228 591.343 177.706 609.908 180.591C619.191 182.033 626.75 184.321 632.407 187.445C638.056 190.565 641.756 194.489 643.444 199.202Z" stroke="#5697B6" stroke-opacity="0.7" stroke-width="2"/>
<path opacity="0.896552" d="M652.017 224.171C653.295 229.016 652.479 234.387 649.613 240.235C646.743 246.091 641.842 252.369 635.053 258.96C621.474 272.142 600.495 286.428 573.655 300.949C519.991 329.983 443.099 359.847 355.705 383.638C268.311 407.429 187.024 420.626 126.26 422.742C95.8701 423.801 70.6704 422.085 52.4239 417.567C43.3003 415.308 35.9661 412.361 30.5988 408.747C25.2387 405.139 21.8888 400.902 20.611 396.057C19.3332 391.212 20.1491 385.841 23.0152 379.993C25.8851 374.137 30.7861 367.859 37.5755 361.268C51.1539 348.086 72.1334 333.8 98.9729 319.279C152.638 290.245 229.529 260.381 316.923 236.59C404.317 212.799 485.604 199.602 546.368 197.486C576.758 196.427 601.958 198.143 620.205 202.661C629.328 204.92 636.662 207.867 642.03 211.481C647.39 215.089 650.74 219.326 652.017 224.171Z" stroke="#5697B6" stroke-opacity="0.7" stroke-width="2"/>
<path opacity="0.931035" d="M658.188 249.792C659.046 254.732 657.772 260.011 654.415 265.583C651.054 271.162 645.633 276.983 638.304 282.947C623.646 294.876 601.521 307.251 573.538 319.34C517.587 343.511 438.426 366.453 349.324 382.415C260.222 398.377 178.112 404.326 117.398 401.054C87.033 399.417 62.0764 395.477 44.2871 389.361C35.3921 386.302 28.3387 382.717 23.3018 378.642C18.2717 374.572 15.2977 370.055 14.4403 365.114C13.5829 360.174 14.8567 354.896 18.2135 349.324C21.5748 343.744 26.9957 337.924 34.3247 331.959C48.9821 320.03 71.1072 307.656 99.0902 295.567C155.041 271.395 234.202 248.453 323.304 232.492C412.406 216.53 494.516 210.581 555.23 213.853C585.596 215.489 610.552 219.429 628.341 225.546C637.236 228.604 644.29 232.19 649.327 236.265C654.357 240.334 657.331 244.852 658.188 249.792Z" stroke="#5697B6" stroke-opacity="0.7" stroke-width="2"/>
<path opacity="0.965517" d="M661.909 275.855C662.34 280.853 660.618 285.999 656.796 291.252C652.969 296.513 647.069 301.831 639.256 307.124C623.631 317.71 600.529 328.078 571.615 337.643C513.804 356.768 432.976 372.613 342.844 380.625C252.712 388.636 170.404 387.292 110.202 378.656C80.0924 374.337 55.5689 368.202 38.372 360.534C29.7733 356.7 23.0544 352.503 18.3862 347.998C13.7244 343.498 11.1491 338.734 10.7187 333.737C10.2884 328.739 12.0102 323.593 15.8323 318.34C19.6595 313.079 25.559 307.761 33.3717 302.468C48.9966 291.882 72.099 281.514 101.013 271.949C158.824 252.823 239.652 236.979 329.784 228.967C419.916 220.956 502.224 222.3 562.426 230.936C592.536 235.255 617.059 241.39 634.256 249.058C642.855 252.892 649.574 257.089 654.242 261.594C658.904 266.094 661.479 270.858 661.909 275.855Z" stroke="#5697B6" stroke-opacity="0.7" stroke-width="2"/>
<path d="M663.152 302.138C663.152 312.184 654.462 322.073 637.903 331.282C621.43 340.444 597.526 348.727 567.902 355.696C508.669 369.629 426.79 378.257 336.314 378.257C245.837 378.257 163.958 369.629 104.725 355.696C75.1013 348.727 51.1974 340.444 34.7239 331.282C18.1649 322.073 9.47461 312.184 9.47461 302.138C9.47461 292.092 18.1649 282.203 34.7239 272.994C51.1974 263.832 75.1013 255.549 104.725 248.58C163.958 234.647 245.837 226.02 336.314 226.02C426.79 226.02 508.669 234.647 567.902 248.58C597.526 255.549 621.43 263.832 637.903 272.994C654.462 282.203 663.152 292.092 663.152 302.138Z" stroke="#5697B6" stroke-opacity="0.7" stroke-width="2"/>
</g>
<defs>
<linearGradient id="paint0_linear_446_106" x1="276.245" y1="208.419" x2="351.125" y2="283.299" gradientUnits="userSpaceOnUse">
<stop stop-color="#5697B6"/>
<stop offset="1" stop-color="#D2E45D"/>
</linearGradient>
</defs>
</svg>
