<svg width="794" height="814" viewBox="0 0 794 814" fill="none" xmlns="http://www.w3.org/2000/svg">
<path style="mix-blend-mode:screen" d="M362.5 366C397.018 366 425 338.018 425 303.5C425 268.982 397.018 241 362.5 241C327.982 241 300 268.982 300 303.5C300 338.018 327.982 366 362.5 366Z" fill="url(#paint0_linear_0_556)"/>
<path opacity="0.0344828" d="M101.3 189.425C105.075 184.926 110.777 182.123 118.311 180.993C125.853 179.862 135.168 180.42 146.049 182.595C167.81 186.944 195.626 197.717 227.623 213.994C291.601 246.541 372.089 300.993 453.903 369.644C535.717 438.294 603.319 508.104 646.481 565.458C668.068 594.142 683.507 619.665 691.569 640.34C695.6 650.678 697.767 659.755 697.963 667.379C698.158 674.994 696.387 681.097 692.612 685.596C688.837 690.094 683.135 692.898 675.602 694.028C668.06 695.159 658.745 694.601 647.864 692.426C626.103 688.077 598.286 677.304 566.29 661.027C502.312 628.48 421.824 574.028 340.009 505.377C258.195 436.727 190.593 366.917 147.431 309.563C125.845 280.879 110.405 255.356 102.343 234.681C98.3121 224.342 96.145 215.266 95.9494 207.642C95.754 200.027 97.5248 193.924 101.3 189.425Z" stroke="#5697B6" stroke-opacity="0.7" stroke-width="2"/>
<path opacity="0.0689655" d="M124.045 161.513C128.198 157.361 134.123 155.065 141.727 154.595C149.338 154.126 158.569 155.494 169.219 158.609C190.518 164.838 217.29 177.994 247.746 196.998C308.644 234.998 384.08 296.258 459.6 371.777C535.12 447.297 596.38 522.733 634.379 583.631C653.383 614.087 666.539 640.859 672.769 662.158C675.884 672.808 677.251 682.039 676.782 689.651C676.313 697.254 674.017 703.179 669.864 707.332C665.711 711.484 659.786 713.78 652.183 714.25C644.571 714.719 635.34 713.351 624.69 710.236C603.391 704.007 576.619 690.851 546.163 671.847C485.265 633.847 409.829 572.587 334.31 497.068C258.79 421.548 197.53 346.112 159.53 285.214C140.526 254.758 127.37 227.986 121.141 206.687C118.026 196.037 116.658 186.806 117.128 179.194C117.597 171.591 119.893 165.666 124.045 161.513Z" stroke="#5697B6" stroke-opacity="0.7" stroke-width="2"/>
<path opacity="0.103448" d="M148.87 135.677C153.369 131.902 159.471 130.131 167.087 130.326C174.711 130.522 183.787 132.689 194.125 136.72C214.8 144.782 240.324 160.222 269.007 181.808C326.362 224.97 396.171 292.572 464.822 374.386C533.472 456.201 587.925 536.689 620.472 600.667C636.749 632.663 647.522 660.48 651.871 682.241C654.046 693.122 654.604 702.437 653.473 709.979C652.343 717.512 649.539 723.214 645.04 726.989C640.541 730.764 634.439 732.535 626.824 732.34C619.2 732.144 610.123 729.977 599.785 725.946C579.11 717.884 553.587 702.445 524.903 680.858C467.549 637.696 397.739 570.094 329.089 488.28C260.438 406.466 205.986 325.978 173.439 262C157.161 230.003 146.389 202.187 142.039 180.426C139.864 169.545 139.306 160.23 140.438 152.688C141.568 145.154 144.371 139.452 148.87 135.677Z" stroke="#5697B6" stroke-opacity="0.7" stroke-width="2"/>
<path opacity="0.137931" d="M175.584 112.091C180.394 108.723 186.628 107.491 194.197 108.349C201.775 109.208 210.628 112.158 220.576 117.075C240.469 126.909 264.55 144.514 291.243 168.518C344.617 216.515 408.27 289.943 469.528 377.429C530.787 464.916 578.017 549.844 604.864 616.415C618.291 649.708 626.598 678.358 629.034 700.415C630.253 711.444 629.997 720.772 628.212 728.187C626.43 735.593 623.14 741.029 618.329 744.398C613.519 747.767 607.285 748.999 599.716 748.14C592.138 747.281 583.285 744.331 573.337 739.414C553.444 729.581 529.363 711.976 502.67 687.972C449.296 639.975 385.643 566.546 324.385 479.06C263.126 391.574 215.896 306.646 189.049 240.075C175.622 206.781 167.315 178.132 164.879 156.075C163.66 145.045 163.916 135.717 165.701 128.303C167.483 120.896 170.773 115.46 175.584 112.091Z" stroke="#5697B6" stroke-opacity="0.7" stroke-width="2"/>
<path opacity="0.172414" d="M203.979 90.9109C209.065 87.9744 215.382 87.2901 222.848 88.805C230.322 90.3215 238.884 94.0318 248.365 99.797C267.326 111.327 289.781 130.964 314.28 157.203C363.268 209.669 420.279 288.366 473.679 380.858C527.08 473.351 566.728 562.072 587.671 630.729C598.145 665.066 603.924 694.331 604.428 716.516C604.681 727.61 603.613 736.88 601.189 744.111C598.768 751.334 595.017 756.463 589.931 759.399C584.845 762.336 578.528 763.02 571.062 761.505C563.588 759.988 555.025 756.278 545.544 750.513C526.583 738.983 504.129 719.346 479.629 693.107C430.641 640.641 373.631 561.944 320.231 469.452C266.83 376.959 227.182 288.239 206.239 219.581C195.765 185.244 189.986 155.979 189.481 133.794C189.229 122.7 190.297 113.43 192.721 106.199C195.142 98.9759 198.893 93.8473 203.979 90.9109Z" stroke="#5697B6" stroke-opacity="0.7" stroke-width="2"/>
<path opacity="0.206897" d="M233.845 72.2723C239.168 69.7903 245.521 69.6592 252.826 71.819C260.14 73.9812 268.346 78.4236 277.288 84.9931C295.172 98.1316 315.83 119.651 337.949 147.925C382.178 204.461 432.113 287.828 477.249 384.622C522.385 481.417 554.15 573.256 569.029 643.478C576.471 678.597 579.677 708.254 578.246 730.399C577.53 741.472 575.658 750.614 572.614 757.606C569.572 764.591 565.389 769.373 560.066 771.855C554.743 774.337 548.391 774.468 541.085 772.308C533.772 770.146 525.565 765.704 516.623 759.134C498.739 745.995 478.081 724.476 455.962 696.202C411.733 639.666 361.799 556.3 316.662 459.505C271.526 362.71 239.761 270.871 224.882 200.649C217.44 165.531 214.234 135.874 215.665 113.728C216.381 102.655 218.253 93.5134 221.297 86.5211C224.339 79.5365 228.523 74.7543 233.845 72.2723Z" stroke="#5697B6" stroke-opacity="0.7" stroke-width="2"/>
<path opacity="0.241379" d="M264.951 56.2981C270.47 54.2894 276.81 54.7125 283.899 57.5008C290.997 60.2921 298.785 65.4328 307.12 72.7568C323.791 87.404 342.495 110.642 362.066 140.736C401.199 200.912 443.677 288.313 480.205 388.673C516.734 489.034 540.373 583.292 549.076 654.543C553.428 690.177 554.037 720 550.682 741.937C549.004 752.905 546.342 761.849 542.7 768.549C539.061 775.242 534.477 779.642 528.958 781.65C523.439 783.659 517.099 783.236 510.01 780.448C502.913 777.656 495.125 772.516 486.789 765.192C470.118 750.544 451.415 727.307 431.844 697.212C392.711 637.036 350.232 549.635 313.704 449.275C277.176 348.915 253.536 254.657 244.833 183.406C240.481 147.772 239.872 117.948 243.227 96.0119C244.905 85.0433 247.567 76.0993 251.209 69.399C254.848 62.706 259.433 58.3067 264.951 56.2981Z" stroke="#5697B6" stroke-opacity="0.7" stroke-width="2"/>
<path opacity="0.275862" d="M297.064 43.0869C302.736 41.5669 309.015 42.5409 315.835 45.9365C322.662 49.3358 329.972 55.1357 337.638 63.1583C352.968 79.2027 369.576 103.982 386.449 135.668C420.188 199.025 454.888 289.796 482.53 392.958C510.172 496.12 525.507 592.08 527.967 663.818C529.197 699.696 527.204 729.459 521.949 751.019C519.322 761.8 515.891 770.478 511.678 776.835C507.47 783.186 502.52 787.169 496.847 788.689C491.174 790.209 484.895 789.235 478.076 785.839C471.249 782.44 463.939 776.64 456.273 768.617C440.942 752.573 424.335 727.794 407.461 696.108C373.722 632.75 339.022 541.98 311.38 438.818C283.738 335.656 268.404 239.696 265.944 167.957C264.714 132.08 266.706 102.317 271.961 80.7563C274.588 69.9756 278.019 61.2976 282.232 54.9403C286.44 48.5899 291.391 44.6069 297.064 43.0869Z" stroke="#5697B6" stroke-opacity="0.7" stroke-width="2"/>
<path opacity="0.310345" d="M329.935 32.7097C335.719 31.6899 341.889 33.2075 348.387 37.1844C354.891 41.1658 361.668 47.5808 368.606 56.241C382.48 73.5605 396.864 99.693 410.912 132.729C439.001 198.786 465.657 292.236 484.203 397.414C502.749 502.593 509.661 599.524 505.859 671.204C503.958 707.052 499.379 736.528 492.265 757.548C488.708 768.059 484.534 776.405 479.783 782.371C475.038 788.33 469.759 791.867 463.975 792.887C458.191 793.906 452.021 792.389 445.524 788.412C439.019 784.431 432.242 778.016 425.305 769.355C411.43 752.036 397.046 725.903 382.998 692.867C354.909 626.81 328.253 533.361 309.707 428.182C291.162 323.004 284.249 226.073 288.051 154.393C289.952 118.544 294.531 89.0681 301.645 68.0479C305.202 57.5373 309.376 49.1913 314.127 43.2253C318.872 37.2659 324.152 33.7295 329.935 32.7097Z" stroke="#5697B6" stroke-opacity="0.7" stroke-width="2"/>
<path opacity="0.344828" d="M363.318 25.2253C369.168 24.7134 375.183 26.763 381.309 31.2911C387.442 35.8243 393.634 42.8055 399.79 52.0373C412.102 70.5001 424.154 97.7869 435.269 131.922C457.494 200.175 475.904 295.592 485.212 401.987C494.521 508.382 492.959 605.546 482.924 676.622C477.905 712.168 470.775 741.133 461.856 761.454C457.397 771.614 452.511 779.565 447.258 785.094C442.011 790.617 436.444 793.68 430.594 794.192C424.743 794.704 418.729 792.654 412.603 788.126C406.47 783.593 400.277 776.612 394.121 767.38C381.81 748.917 369.758 721.63 358.643 687.496C336.418 619.242 318.008 523.825 308.699 417.43C299.391 311.035 300.952 213.871 310.987 142.795C316.006 107.249 323.137 78.2836 332.055 57.9634C336.515 47.8027 341.401 39.8523 346.653 34.3231C351.9 28.7999 357.467 25.7371 363.318 25.2253Z" stroke="#5697B6" stroke-opacity="0.7" stroke-width="2"/>
<path opacity="0.37931" d="M396.955 20.6655C402.827 20.6655 408.64 23.2314 414.349 28.2763C420.063 33.3267 425.623 40.821 430.951 50.5543C441.607 70.0199 451.235 98.2532 459.333 133.227C475.524 203.158 485.548 299.816 485.548 406.617C485.548 513.419 475.524 610.077 459.333 680.008C451.235 714.982 441.607 743.215 430.951 762.681C425.623 772.414 420.063 779.908 414.349 784.959C408.64 790.003 402.827 792.569 396.955 792.569C391.082 792.569 385.269 790.003 379.561 784.959C373.846 779.908 368.286 772.414 362.958 762.681C352.302 743.215 342.674 714.982 334.577 680.008C318.385 610.077 308.361 513.419 308.361 406.617C308.361 299.816 318.385 203.158 334.577 133.227C342.674 98.2532 352.302 70.0199 362.958 50.5543C368.286 40.821 373.846 33.3267 379.561 28.2763C385.269 23.2314 391.082 20.6655 396.955 20.6655Z" stroke="#5697B6" stroke-opacity="0.7" stroke-width="2"/>
<path opacity="0.413793" d="M430.593 19.0446C436.444 19.5565 442.011 22.6193 447.258 28.1424C452.51 33.6717 457.396 41.6221 461.856 51.7827C470.774 72.1029 477.905 101.068 482.924 136.614C492.959 207.69 494.52 304.855 485.212 411.249C475.904 517.644 457.493 613.061 435.269 681.315C424.154 715.45 412.102 742.736 399.79 761.199C393.634 770.431 387.442 777.412 381.309 781.945C375.182 786.473 369.168 788.523 363.318 788.011C357.467 787.499 351.9 784.436 346.653 778.913C341.4 773.384 336.515 765.434 332.055 755.273C323.136 734.953 316.006 705.988 310.987 670.442C300.952 599.366 299.391 502.201 308.699 395.806C318.007 289.412 336.417 193.995 358.642 125.741C369.757 91.6063 381.809 64.3195 394.121 45.8567C400.277 36.6248 406.469 29.6436 412.602 25.1105C418.728 20.5823 424.743 18.5328 430.593 19.0446Z" stroke="#5697B6" stroke-opacity="0.7" stroke-width="2"/>
<path opacity="0.448276" d="M463.976 20.3492C469.759 21.369 475.038 24.9054 479.784 30.8648C484.534 36.8308 488.709 45.1768 492.266 55.6874C499.379 76.7076 503.958 106.184 505.86 142.032C509.662 213.712 502.749 310.643 484.203 415.822C465.658 521 439.001 614.45 410.912 680.507C396.865 713.543 382.48 739.675 368.606 756.995C361.669 765.655 354.892 772.07 348.387 776.051C341.89 780.028 335.719 781.546 329.936 780.526C324.152 779.506 318.873 775.97 314.128 770.01C309.377 764.044 305.203 755.699 301.646 745.188C294.532 724.168 289.953 694.691 288.051 658.843C284.249 587.163 291.162 490.232 309.708 385.054C328.254 279.875 354.91 186.425 382.999 120.368C397.047 87.3325 411.431 61.2 425.305 43.8805C432.243 35.2203 439.019 28.8053 445.524 24.8239C452.022 20.8469 458.192 19.3294 463.976 20.3492Z" stroke="#5697B6" stroke-opacity="0.7" stroke-width="2"/>
<path opacity="0.482759" d="M496.847 24.5495C502.52 26.0695 507.47 30.0525 511.678 36.4028C515.891 42.7602 519.322 51.4382 521.949 62.2188C527.204 83.779 529.197 113.542 527.966 149.42C525.507 221.159 510.172 317.118 482.53 420.28C454.888 523.442 420.188 614.213 386.449 677.57C369.575 709.256 352.968 734.036 337.638 750.08C329.972 758.103 322.662 763.902 315.835 767.302C309.015 770.697 302.736 771.671 297.063 770.151C291.391 768.631 286.44 764.648 282.232 758.298C278.019 751.941 274.588 743.263 271.961 732.482C266.706 710.922 264.714 681.159 265.944 645.281C268.403 573.542 283.738 477.583 311.38 374.421C339.022 271.259 373.722 180.488 407.461 117.131C424.335 85.4446 440.942 60.6652 456.273 44.6208C463.939 36.5982 471.249 30.7983 478.076 27.399C484.895 24.0035 491.174 23.0295 496.847 24.5495Z" stroke="#5697B6" stroke-opacity="0.7" stroke-width="2"/>
<path opacity="0.517241" d="M528.959 31.5823C534.478 33.5909 539.063 37.9902 542.701 44.6832C546.344 51.3835 549.005 60.3275 550.683 71.2961C554.039 93.2323 553.429 123.056 549.077 158.69C540.374 229.941 516.735 324.199 480.207 424.559C443.678 524.919 401.2 612.321 362.067 672.496C342.496 702.591 323.792 725.829 307.121 740.476C298.786 747.8 290.998 752.941 283.901 755.732C276.811 758.52 270.471 758.943 264.952 756.935C259.434 754.926 254.849 750.527 251.21 743.834C247.568 737.133 244.906 728.189 243.229 717.221C239.873 695.285 240.482 665.461 244.834 629.827C253.537 558.576 277.177 464.318 313.705 363.958C350.233 263.597 392.712 176.196 431.845 116.021C451.416 85.9259 470.119 62.6882 486.79 48.041C495.126 40.717 502.914 35.5763 510.011 32.785C517.1 29.9967 523.44 29.5736 528.959 31.5823Z" stroke="#5697B6" stroke-opacity="0.7" stroke-width="2"/>
<path opacity="0.551724" d="M560.066 41.3786C565.388 43.8606 569.572 48.6427 572.614 55.6273C575.658 62.6196 577.53 71.7615 578.246 82.8347C579.677 104.98 576.47 134.637 569.029 169.756C554.149 239.978 522.385 331.816 477.249 428.611C432.112 525.406 382.178 608.772 337.949 665.308C315.83 693.583 295.172 715.102 277.288 728.24C268.346 734.81 260.139 739.252 252.826 741.414C245.52 743.574 239.168 743.443 233.845 740.961C228.522 738.479 224.339 733.697 221.297 726.712C218.252 719.72 216.381 710.578 215.665 699.505C214.234 677.36 217.44 647.703 224.882 612.584C239.761 542.362 271.526 450.523 316.662 353.729C361.798 256.934 411.733 173.568 455.962 117.032C478.081 88.757 498.739 67.2379 516.623 54.0994C525.565 47.5298 533.771 43.0874 541.085 40.9252C548.39 38.7655 554.743 38.8966 560.066 41.3786Z" stroke="#5697B6" stroke-opacity="0.7" stroke-width="2"/>
<path opacity="0.586207" d="M589.931 53.837C595.017 56.7735 598.768 61.9021 601.189 69.1252C603.613 76.3562 604.681 85.6265 604.429 96.7198C603.924 118.905 598.145 148.17 587.671 182.507C566.728 251.165 527.08 339.886 473.679 432.378C420.279 524.87 363.268 603.567 314.281 656.034C289.781 682.273 267.326 701.909 248.365 713.439C238.885 719.204 230.322 722.915 222.848 724.431C215.382 725.946 209.065 725.262 203.979 722.325C198.893 719.389 195.142 714.26 192.721 707.037C190.297 699.806 189.229 690.536 189.481 679.443C189.986 657.257 195.765 627.992 206.239 593.655C227.182 524.998 266.83 436.277 320.231 343.784C373.631 251.292 430.642 172.595 479.629 120.129C504.129 93.8898 526.584 74.2529 545.545 62.7231C555.025 56.9579 563.588 53.2477 571.062 51.7312C578.528 50.2163 584.845 50.9006 589.931 53.837Z" stroke="#5697B6" stroke-opacity="0.7" stroke-width="2"/>
<path opacity="0.62069" d="M618.329 68.8373C623.139 72.2058 626.429 77.6419 628.212 85.0485C629.996 92.4632 630.252 101.791 629.034 112.82C626.597 134.878 618.29 163.527 604.863 196.821C578.016 263.392 530.786 348.319 469.527 435.806C408.269 523.292 344.616 596.721 291.242 644.718C264.549 668.722 240.468 686.327 220.575 696.16C210.627 701.077 201.774 704.027 194.197 704.886C186.627 705.745 180.394 704.512 175.583 701.144C170.772 697.775 167.482 692.339 165.7 684.933C163.916 677.518 163.66 668.19 164.878 657.161C167.314 635.104 175.621 606.454 189.048 573.161C215.895 506.589 263.125 421.662 324.384 334.175C385.643 246.689 449.295 173.26 502.669 125.263C529.362 101.259 553.443 83.6544 573.337 73.821C583.284 68.9041 592.137 65.9542 599.715 65.0949C607.284 64.2365 613.518 65.4687 618.329 68.8373Z" stroke="#5697B6" stroke-opacity="0.7" stroke-width="2"/>
<path opacity="0.655172" d="M645.041 86.2464C649.54 90.0214 652.344 95.7235 653.474 103.257C654.605 110.799 654.047 120.114 651.872 130.995C647.523 152.756 636.75 180.573 620.473 212.569C587.925 276.547 533.473 357.035 464.823 438.85C396.172 520.664 326.362 588.266 269.008 631.428C240.325 653.014 214.801 668.453 194.126 676.516C183.788 680.547 174.712 682.714 167.088 682.909C159.472 683.105 153.37 681.334 148.871 677.559C144.372 673.784 141.568 668.082 140.438 660.548C139.307 653.006 139.865 643.691 142.04 632.81C146.39 611.049 157.162 583.233 173.44 551.236C205.987 487.258 260.439 406.77 329.089 324.956C397.74 243.141 467.55 175.54 524.904 132.377C553.588 110.791 579.111 95.352 599.786 87.2899C610.124 83.2586 619.201 81.0915 626.824 80.8959C634.44 80.7005 640.542 82.4714 645.041 86.2464Z" stroke="#5697B6" stroke-opacity="0.7" stroke-width="2"/>
<path opacity="0.689655" d="M669.866 105.903C674.018 110.056 676.314 115.98 676.783 123.584C677.253 131.196 675.885 140.427 672.77 151.077C666.541 172.376 653.385 199.148 634.381 229.604C596.381 290.501 535.121 365.938 459.602 441.457C384.082 516.977 308.646 578.237 247.748 616.237C217.292 635.241 190.52 648.397 169.221 654.626C158.571 657.741 149.34 659.109 141.728 658.639C134.125 658.17 128.2 655.874 124.047 651.721C119.894 647.569 117.598 641.644 117.129 634.04C116.66 626.428 118.028 617.197 121.142 606.547C127.372 585.248 140.528 558.477 159.532 528.021C197.531 467.123 258.791 391.687 334.311 316.167C409.831 240.647 485.267 179.387 546.165 141.388C576.621 122.384 603.393 109.228 624.692 102.998C635.342 99.8832 644.573 98.5155 652.185 98.9851C659.788 99.4542 665.713 101.75 669.866 105.903Z" stroke="#5697B6" stroke-opacity="0.7" stroke-width="2"/>
<path opacity="0.724138" d="M692.611 127.64C696.386 132.139 698.157 138.241 697.961 145.857C697.766 153.481 695.599 162.557 691.568 172.895C683.505 193.57 668.066 219.094 646.48 247.777C603.318 305.132 535.716 374.941 453.902 443.592C372.087 512.242 291.599 566.694 227.621 599.242C195.625 615.519 167.808 626.292 146.047 630.641C135.166 632.816 125.851 633.374 118.309 632.243C110.775 631.113 105.073 628.309 101.298 623.81C97.5233 619.311 95.7525 613.209 95.9479 605.594C96.1435 597.97 98.3106 588.893 102.342 578.555C110.404 557.88 125.843 532.357 147.429 503.673C190.592 446.319 258.193 376.509 340.008 307.858C421.822 239.208 502.31 184.756 566.288 152.209C598.285 135.931 626.101 125.159 647.862 120.809C658.743 118.634 668.058 118.076 675.6 119.208C683.134 120.338 688.836 123.141 692.611 127.64Z" stroke="#5697B6" stroke-opacity="0.7" stroke-width="2"/>
<path opacity="0.758621" d="M713.109 151.261C716.477 156.072 717.71 162.306 716.851 169.875C715.992 177.453 713.042 186.306 708.125 196.253C698.292 216.147 680.687 240.228 656.683 266.921C608.686 320.295 535.257 383.947 447.771 445.206C360.285 506.465 275.357 553.695 208.786 580.542C175.492 593.969 146.843 602.276 124.785 604.712C113.756 605.93 104.428 605.674 97.0135 603.89C89.6069 602.108 84.1709 598.818 80.8023 594.007C77.4338 589.196 76.2015 582.963 77.0599 575.393C77.9193 567.816 80.8691 558.963 85.7861 549.015C95.6195 529.122 113.224 505.041 137.228 478.348C185.225 424.974 258.654 361.321 346.14 300.063C433.627 238.804 518.554 191.574 585.126 164.727C618.419 151.3 647.069 142.993 669.126 140.556C680.155 139.338 689.483 139.594 696.898 141.378C704.304 143.161 709.74 146.451 713.109 151.261Z" stroke="#5697B6" stroke-opacity="0.7" stroke-width="2"/>
<path opacity="0.793103" d="M731.201 176.567C734.137 181.653 734.822 187.97 733.307 195.436C731.79 202.91 728.08 211.473 722.315 220.954C710.785 239.915 691.148 262.369 664.909 286.869C612.443 335.857 533.746 392.867 441.254 446.267C348.761 499.668 260.04 539.316 191.382 560.259C157.046 570.733 127.781 576.512 105.595 577.017C94.5021 577.269 85.2319 576.201 78.0008 573.777C70.7777 571.356 65.6491 567.605 62.7127 562.519C59.7762 557.433 59.0919 551.116 60.6068 543.65C62.1233 536.176 65.8335 527.614 71.5987 518.133C83.1286 499.172 102.765 476.717 129.004 452.218C181.471 403.23 260.168 346.219 352.66 292.819C445.152 239.418 533.873 199.77 602.531 178.827C636.868 168.353 666.133 162.574 688.318 162.07C699.411 161.817 708.682 162.885 715.913 165.309C723.136 167.73 728.265 171.481 731.201 176.567Z" stroke="#5697B6" stroke-opacity="0.7" stroke-width="2"/>
<path opacity="0.827586" d="M746.746 203.345C749.228 208.667 749.359 215.02 747.199 222.326C745.037 229.639 740.595 237.845 734.025 246.788C720.887 264.672 699.368 285.329 671.093 307.449C614.557 351.678 531.191 401.612 434.396 446.748C337.601 491.884 245.763 523.649 175.541 538.529C140.422 545.97 110.765 549.176 88.6196 547.745C77.5465 547.03 68.4046 545.158 61.4123 542.113C54.4277 539.072 49.6455 534.888 47.1635 529.565C44.6815 524.243 44.5504 517.89 46.7102 510.585C48.8724 503.271 53.3148 495.065 59.8843 486.122C73.0228 468.238 94.542 447.581 122.816 425.461C179.353 381.233 262.719 331.298 359.513 286.162C456.308 241.026 548.147 209.261 618.369 194.381C653.488 186.94 683.145 183.734 705.29 185.165C716.363 185.88 725.505 187.752 732.497 190.797C739.482 193.838 744.264 198.022 746.746 203.345Z" stroke="#5697B6" stroke-opacity="0.7" stroke-width="2"/>
<path opacity="0.862069" d="M759.632 231.362C761.64 236.881 761.217 243.221 758.429 250.31C755.638 257.408 750.497 265.196 743.173 273.531C728.526 290.202 705.288 308.906 675.193 328.477C615.018 367.61 527.617 410.088 427.256 446.616C326.896 483.145 232.638 506.784 161.387 515.487C125.753 519.839 95.9294 520.448 73.9933 517.093C63.0247 515.415 54.0807 512.754 47.3803 509.111C40.6874 505.472 36.2881 500.888 34.2794 495.369C32.2708 489.85 32.6938 483.51 35.4821 476.421C38.2735 469.324 43.4142 461.536 50.7381 453.2C65.3853 436.529 88.623 417.826 118.718 398.255C178.893 359.122 266.295 316.643 366.655 280.115C467.015 243.587 561.273 219.947 632.524 211.244C668.158 206.892 697.982 206.283 719.918 209.638C730.887 211.316 739.831 213.978 746.531 217.62C753.224 221.259 757.623 225.844 759.632 231.362Z" stroke="#5697B6" stroke-opacity="0.7" stroke-width="2"/>
<path opacity="0.896552" d="M769.756 260.384C771.276 266.057 770.302 272.336 766.907 279.155C763.507 285.982 757.708 293.293 749.685 300.958C733.641 316.289 708.861 332.896 677.175 349.77C613.818 383.509 523.047 418.209 419.885 445.851C316.723 473.493 220.764 488.828 149.025 491.287C113.147 492.517 83.3841 490.525 61.8238 485.27C51.0432 482.643 42.3652 479.212 36.0078 474.999C29.6575 470.791 25.6745 465.841 24.1545 460.168C22.6345 454.495 23.6085 448.216 27.004 441.397C30.4033 434.57 36.2032 427.259 44.2258 419.594C60.2702 404.263 85.0496 387.656 116.736 370.782C180.093 337.043 270.864 302.343 374.026 274.701C477.188 247.059 573.147 231.724 644.886 229.265C680.764 228.035 710.527 230.027 732.087 235.282C742.868 237.909 751.546 241.34 757.903 245.553C764.253 249.761 768.236 254.712 769.756 260.384Z" stroke="#5697B6" stroke-opacity="0.7" stroke-width="2"/>
<path opacity="0.931035" d="M777.044 290.167C778.064 295.95 776.546 302.12 772.569 308.618C768.588 315.123 762.173 321.9 753.513 328.837C736.193 342.711 710.061 357.095 677.025 371.143C610.968 399.232 517.518 425.888 412.34 444.434C307.161 462.98 210.23 469.893 138.55 466.091C102.702 464.189 73.2254 459.61 52.2052 452.496C41.6946 448.939 33.3487 444.765 27.3827 440.015C21.4232 435.269 17.8869 429.99 16.867 424.206C15.8472 418.423 17.3648 412.253 21.3418 405.755C25.3232 399.25 31.7381 392.473 40.3983 385.536C57.7178 371.662 83.8503 357.278 116.886 343.23C182.943 315.141 276.393 288.485 381.571 269.939C486.75 251.393 583.681 244.48 655.361 248.282C691.209 250.184 720.686 254.763 741.706 261.877C752.216 265.434 760.562 269.608 766.528 274.358C772.488 279.104 776.024 284.383 777.044 290.167Z" stroke="#5697B6" stroke-opacity="0.7" stroke-width="2"/>
<path opacity="0.965517" d="M781.438 320.46C781.95 326.311 779.901 332.325 775.372 338.451C770.839 344.584 763.858 350.776 754.626 356.932C736.163 369.244 708.877 381.296 674.742 392.411C606.488 414.636 511.071 433.046 404.676 442.354C298.282 451.663 201.117 450.101 130.041 440.066C94.4951 435.048 65.5301 427.917 45.2098 418.998C35.0492 414.539 27.0989 409.653 21.5696 404.4C16.0464 399.154 12.9836 393.586 12.4718 387.736C11.9599 381.885 14.0095 375.871 18.5376 369.745C23.0708 363.612 30.052 357.42 39.2838 351.264C57.7466 338.952 85.0334 326.9 119.168 315.785C187.422 293.56 282.839 275.15 389.234 265.841C495.628 256.533 592.793 258.095 663.869 268.13C699.415 273.148 728.38 280.279 748.7 289.198C758.861 293.657 766.811 298.543 772.34 303.796C777.864 309.042 780.926 314.609 781.438 320.46Z" stroke="#5697B6" stroke-opacity="0.7" stroke-width="2"/>
<path d="M782.907 351.01C782.907 356.883 780.341 362.695 775.296 368.404C770.246 374.118 762.751 379.678 753.018 385.006C733.553 395.662 705.319 405.29 670.346 413.388C600.415 429.579 503.756 439.603 396.955 439.603C290.154 439.603 193.495 429.579 123.564 413.388C88.5909 405.29 60.3576 395.662 40.8919 385.006C31.1587 379.678 23.6644 374.118 18.614 368.404C13.5691 362.695 11.0032 356.883 11.0032 351.01C11.0032 345.137 13.5691 339.324 18.614 333.616C23.6644 327.901 31.1587 322.341 40.8919 317.013C60.3576 306.357 88.5909 296.729 123.564 288.632C193.495 272.44 290.154 262.416 396.955 262.416C503.756 262.416 600.415 272.44 670.346 288.632C705.319 296.729 733.553 306.357 753.018 317.013C762.751 322.341 770.246 327.901 775.296 333.616C780.341 339.324 782.907 345.137 782.907 351.01Z" stroke="#5697B6" stroke-opacity="0.7" stroke-width="2"/>
<defs>
<linearGradient id="paint0_linear_0_556" x1="318.309" y1="259.309" x2="406.691" y2="347.691" gradientUnits="userSpaceOnUse">
<stop stop-color="#5697B6"/>
<stop offset="1" stop-color="#D2E45D"/>
</linearGradient>
</defs>
</svg>
