<svg width="191" height="191" viewBox="0 0 191 191" fill="none" xmlns="http://www.w3.org/2000/svg">
<circle cx="95.5" cy="95.5" r="95.5" fill="#5697B6"/>
<mask id="mask0_18_1243" style="mask-type:alpha" maskUnits="userSpaceOnUse" x="0" y="0" width="191" height="191">
<circle cx="95.5" cy="95.5" r="95.5" fill="#C4C4C4"/>
</mask>
<g mask="url(#mask0_18_1243)">
<path d="M141.564 187.82L136.183 254.201L143.575 295.318L113.409 297.869L105.748 277.145L105.178 211.994L121.991 136.141L144.575 137.711L145.825 140.711C152.456 156.794 156.337 183.859 160.668 218.725L155.107 267.684L130.262 276.365" fill="#494F5E"/>
<path d="M86.2244 116.997V133.4C86.2244 133.4 94.7159 145.292 107.448 137.951L114.569 132.95V115.687L86.2244 116.997Z" fill="#FFB399"/>
<path d="M65.671 78.9108C63.9707 79.6109 57.2195 79.8209 61.2502 91.843C65.2809 103.865 70.7719 102.845 70.7719 102.845L65.671 78.9108Z" fill="#EAB69B"/>
<path d="M68.3914 96.9939C68.3914 97.044 68.1914 97.0939 67.8313 97.0639C67.3167 97.0272 66.814 96.8914 66.351 96.6639C65.6539 96.3279 65.0314 95.8551 64.5207 95.2736C64.2233 94.9227 63.965 94.5404 63.7506 94.1334C63.5208 93.6931 63.3461 93.2262 63.2305 92.7432C63.0295 91.8103 63.0569 90.8427 63.3105 89.9227C63.5064 89.1803 63.8462 88.4837 64.3107 87.8724C64.623 87.4763 65.0021 87.1378 65.4309 86.8722C65.7409 86.6821 65.941 86.6321 65.971 86.6721C66.001 86.7121 65.4109 87.2322 64.8008 88.2524C64.4452 88.84 64.1884 89.482 64.0406 90.1527C63.8707 90.9641 63.8707 91.8018 64.0406 92.6132C64.1385 93.0281 64.2828 93.4307 64.4707 93.8133C64.651 94.1668 64.8654 94.5018 65.1108 94.8135C65.5398 95.347 66.0534 95.8065 66.6311 96.1738C67.6313 96.7639 68.4114 96.8539 68.3914 96.9939Z" fill="#D68772"/>
<path d="M68.7817 92.1929C68.6817 92.2529 68.4316 91.9528 67.9615 91.6528C67.3812 91.2413 66.666 91.0661 65.9612 91.1627C65.5034 91.2393 65.0729 91.4321 64.711 91.7228C64.4251 91.9466 64.1755 92.2131 63.9709 92.5129L63.5608 92.3029C63.8008 92.0129 63.9709 91.8628 64.0509 91.9129C64.1309 91.9629 64.0509 92.1729 63.9608 92.533L63.5508 92.3229C63.673 91.8918 63.9037 91.4993 64.2209 91.1827C64.6499 90.7322 65.2162 90.4367 65.8312 90.3426C66.3383 90.2608 66.8581 90.3232 67.3314 90.5226C67.7099 90.6746 68.0511 90.9066 68.3316 91.2027C68.8117 91.7128 68.8717 92.1529 68.7817 92.1929Z" fill="#D68772"/>
<path d="M127.512 74.3397C131.343 72.3394 135.413 75.1399 133.193 86.6119C131.193 96.9637 125.592 96.4736 125.592 96.4736L127.512 74.3397Z" fill="#EAB69B"/>
<path d="M127.512 90.8829C127.512 90.7629 128.102 90.6129 128.872 89.9427C129.324 89.5384 129.706 89.0619 130.002 88.5325C130.183 88.2126 130.337 87.878 130.462 87.5323C130.588 87.1509 130.682 86.7594 130.742 86.3622C130.922 84.9545 130.641 83.5263 129.942 82.2914C129.412 81.3713 128.892 81.0012 128.942 80.8912C128.992 80.7812 129.122 80.8912 129.372 81.0412C129.738 81.2773 130.057 81.5791 130.312 81.9314C130.718 82.4966 131.02 83.13 131.202 83.8017C131.438 84.6712 131.499 85.5789 131.382 86.4722C131.321 86.9327 131.21 87.3854 131.052 87.8224C130.898 88.2143 130.711 88.5924 130.492 88.9526C130.133 89.5254 129.664 90.0216 129.112 90.4129C128.765 90.6538 128.374 90.8237 127.962 90.9129C127.682 90.963 127.522 90.9329 127.512 90.8829Z" fill="#D68772"/>
<path d="M127.442 86.352C127.362 86.352 127.392 85.902 127.732 85.3519C127.875 85.0762 128.084 84.8405 128.34 84.6659C128.597 84.4912 128.893 84.3833 129.202 84.3517C129.708 84.4117 130.175 84.6492 130.522 85.0218C130.786 85.3074 130.981 85.6495 131.092 86.022L130.782 86.252C130.662 85.9219 130.632 85.7119 130.682 85.6719C130.732 85.6319 130.892 85.7519 131.082 86.0019L130.772 86.232C130.608 85.9905 130.41 85.7748 130.182 85.5919C129.9 85.3515 129.551 85.2016 129.182 85.1618C128.562 85.1018 128.442 85.4318 128.102 85.7519C127.762 86.0719 127.522 86.402 127.442 86.352Z" fill="#D68772"/>
<path d="M125.611 103.295C125.34 105.443 124.569 107.499 123.361 109.296C117.85 116.677 113.479 120.438 109.969 123.998C109.005 124.986 107.744 125.63 106.378 125.829C102.267 126.449 92.2257 128.269 88.295 125.309C83.4241 121.638 75.4327 115.067 73.8625 113.307C69.1116 108.066 61.4403 72.8295 60.6501 69.1989C60.6501 68.9688 60.5701 68.7688 60.5401 68.5487C56.7495 39.5437 73.0423 31.8223 91.1255 31.1422C107.808 30.5221 128.562 28.5418 129.742 57.5668C129.767 57.8998 129.767 58.2341 129.742 58.567L125.611 103.295Z" fill="#FCCAB1"/>
<path d="M101.177 98.8444C99.7983 98.6651 98.4296 98.4147 97.0765 98.0943C95.6007 97.7976 94.2504 97.0579 93.2058 95.9739C91.7656 93.9036 93.7559 91.6232 94.8761 88.6127C95.9963 85.6021 96.5864 83.8818 96.5864 82.6816C96.9502 81.4566 97.0758 80.1732 96.9565 78.9009V78.6009C96.9565 78.4709 96.9565 78.3208 96.9065 78.1908C96.7464 77.0806 96.4964 76.0304 96.2764 75.0903C95.3662 71.2996 95.2762 71.8397 95.4462 71.7997C95.7555 72.2833 95.9852 72.8135 96.1263 73.37C96.5374 74.2965 96.8882 75.2487 97.1765 76.2205C97.4042 76.8181 97.5815 77.4337 97.7066 78.0608C97.7066 78.2108 97.7066 79.481 97.7066 79.5611C97.7066 79.6411 97.6466 80.1012 97.6066 80.2512C97.4166 80.8313 97.2865 83.2517 97.0865 83.8818C96.6888 85.8573 96.0923 87.7874 95.3062 89.6428C94.9061 91.0831 92.0356 94.0936 94.8861 96.374C96.1764 97.4142 101.177 98.7944 101.177 98.8444Z" fill="#E2A893"/>
<path d="M114.69 68.0188L112.179 68.2189L107.818 68.5589L103.858 68.849L104.728 64.0081L106.568 63.9081L110.869 63.7181L113.189 63.6181L116.39 63.428L118.52 63.328L123.991 67.3487L117.79 67.7788L114.69 68.0188Z" fill="#705A41"/>
<path d="M90.3554 70.1091L86.1747 70.5892C85.1145 70.6392 83.9043 70.7393 82.694 70.8793L78.9234 71.1693C77.5631 71.2693 76.2529 71.4194 75.0527 71.5094L69.2417 71.9495L73.4024 66.9486L75.4028 66.7586L76.563 66.6585L77.9732 66.5185L79.5635 66.3685L83.7742 65.9384L86.9248 65.6484L87.925 65.5483C87.925 65.5483 90.7354 70.0591 90.3554 70.1091Z" fill="#705A41"/>
<path d="M129.502 76.4003L127.612 77.4005C127.612 77.4005 129.262 59.3974 125.151 55.3967C124.081 54.3965 123.791 51.396 123.401 48.1354C123.229 46.5227 122.955 44.9226 122.581 43.3446C122.531 43.1445 122.491 43.0045 122.441 42.8145C122.235 42.0732 121.855 41.3917 121.334 40.8264C120.812 40.2611 120.163 39.8283 119.44 39.5639C118.786 39.3411 118.093 39.2563 117.404 39.3148C116.716 39.3733 116.047 39.5739 115.44 39.904C114.405 40.4364 113.339 40.9073 112.249 41.3142L111.419 41.6042C110.119 42.0843 108.668 42.6044 107.418 43.0545C107.368 43.0545 107.368 43.0545 107.318 43.0545C106.84 43.1781 106.372 43.3386 105.918 43.5346C104.918 43.8747 105.188 43.7746 104.128 44.1647C103.978 44.2147 103.788 44.2647 103.548 44.3547C102.727 44.6448 101.947 44.8948 101.217 45.0849C99.8669 45.4749 98.6067 45.805 97.3965 46.085C97.3464 46.085 97.3464 46.085 97.3464 46.085C95.9903 46.3698 94.6172 46.5669 93.2357 46.6751C90.6674 46.9503 88.0717 46.8187 85.5444 46.2851C85.3607 46.2761 85.179 46.2425 85.0043 46.1851C81.961 45.3937 79.0231 44.242 76.2528 42.7545C75.5226 42.4144 74.7525 42.0744 74.0224 41.7543C71.942 40.9742 68.2114 40.8341 66.021 43.8846C65.5168 44.6476 65.1259 45.4798 64.8608 46.3551C63.5448 50.4719 62.8274 54.7564 62.7304 59.0773V59.1273C62.6804 60.4776 62.6804 61.8378 62.7304 63.238C62.8341 70.1274 63.6451 76.988 65.1508 83.7116L64.3207 84.6318C64.3207 84.6318 61.4202 73.3098 59.5799 63.3381C58.8597 59.6074 58.3196 56.0768 58.0796 53.3363C58.0796 52.5662 58.0796 51.8861 58.0796 51.256C58.2296 33.7329 63.0805 27.4018 69.7916 25.0214C70.5619 24.7225 71.359 24.4981 72.172 24.3512C72.3236 24.2773 72.4854 24.2267 72.6521 24.2012C76.2627 23.5547 79.9172 23.1836 83.584 23.091C86.1117 22.9619 88.6224 22.6037 91.0854 22.0208C91.388 21.9393 91.6953 21.8759 92.0055 21.8308C93.914 21.4111 95.8624 21.1999 97.8165 21.2007H97.8665C99.2067 21.2142 100.544 21.3279 101.867 21.5407C102.447 21.6408 103.077 21.7308 103.658 21.8808C110.189 23.141 115.95 26.4316 120.11 29.3321C121.321 30.2023 122.431 31.0224 123.351 31.7525C125.041 33.0628 126.302 34.123 126.932 34.563C128.482 35.6232 129.402 39.3039 129.882 44.0947C130.132 46.4151 130.272 49.0255 130.322 51.736C130.522 63.4281 129.502 76.4003 129.502 76.4003Z" fill="#A8935E"/>
<path d="M129.312 40.9242L113.779 30.1823L110.239 31.6826L109.759 31.8726L105.068 33.873L104.918 33.923L101.527 32.9228L96.5264 31.4625L90.2353 31.2725L78.8133 30.9324L62.7004 30.4524C62.7004 30.4524 64.5808 26.4517 70.0017 22.751C71.3764 21.838 72.8173 21.029 74.3125 20.3306C77.9928 18.6481 81.9087 17.5384 85.9245 17.04C86.0245 17.04 86.1245 17.04 86.2145 17.04C87.0847 16.94 88.785 16.6499 91.0554 16.4099C91.6855 16.3599 92.3656 16.3099 93.0558 16.2099C93.5958 16.2099 94.1759 16.1599 94.756 16.1199C100.588 15.6351 106.46 16.0193 112.179 17.26C118.76 18.8503 119.49 29.8423 119.49 29.8423C119.49 29.8423 122.441 27.4718 125.291 29.4522C128.142 31.4325 129.312 40.9242 129.312 40.9242Z" fill="#A8935E"/>
<path opacity="0.66" d="M65.9612 43.9749C65.4569 44.7379 65.0661 45.57 64.801 46.4453C63.485 50.562 62.7676 54.8466 62.6706 59.1675V59.2175L59.52 63.4282C58.7999 59.6976 58.2598 56.167 58.0198 53.4265C59.7201 49.4458 64.5509 45.1351 65.9612 43.9749Z" fill="#7F654B"/>
<path opacity="0.66" d="M93.1058 16.1897C96.1063 17.3099 100.897 19.5303 102.787 21.3206C103.028 21.5606 103.278 21.7607 103.518 22.0007C107.048 25.2413 109.079 27.8518 110.049 30.9023C110.136 31.156 110.199 31.4172 110.239 31.6824C111.399 36.1832 109.859 40.924 107.388 43.0544C107.338 43.0544 107.338 43.0544 107.288 43.0544L105.888 43.5345C104.888 43.8746 105.158 43.7745 104.098 44.1646C103.948 44.2146 103.758 44.2646 103.518 44.3546C102.687 44.6447 101.917 44.8947 101.187 45.0848C99.837 45.4748 98.5768 45.8049 97.3665 46.0849C100.367 43.1744 104.628 38.7236 105.068 33.8828C105.172 32.8758 105.087 31.8582 104.818 30.8823C103.818 27.5417 103.128 25.8814 97.7566 21.3006H97.7066C96.8865 20.6205 95.9663 19.8504 94.8961 19.0302C93.8259 18.2101 92.5257 17.3299 91.0754 16.3698L93.1058 16.1897Z" fill="#7F654B"/>
<path opacity="0.66" d="M123.181 31.8724C122.538 34.694 121.247 37.3272 119.41 39.5637C118.756 39.3409 118.063 39.2561 117.374 39.3146C116.686 39.3731 116.017 39.5738 115.41 39.9038C114.375 40.4363 113.309 40.9072 112.219 41.3141C116.09 37.7734 119.57 33.5627 119.48 29.842L119.96 29.452C120.69 28.9719 122.091 28.1917 123.391 28.7318C123.495 29.7831 123.424 30.8443 123.181 31.8724Z" fill="#7F654B"/>
<path opacity="0.66" d="M130.182 51.856L123.401 48.1353C123.229 46.5226 122.955 44.9225 122.581 43.3445C124.181 43.3445 128.102 43.4445 129.742 44.2146L130.182 51.856Z" fill="#7F654B"/>
<path opacity="0.06" d="M112.179 68.2187L110.869 63.7179L106.568 63.9079L107.818 68.5587L112.179 68.2187Z" fill="white"/>
<path opacity="0.06" d="M117.79 67.7786L116.39 63.4279L113.189 63.6179L113.97 68.0187H114.69L117.79 67.7786Z" fill="white"/>
<path opacity="0.06" d="M86.9646 65.5885L86.1745 70.5894C85.1143 70.6394 83.9041 70.7394 82.6938 70.8794L83.804 65.9485L86.9646 65.5885Z" fill="white"/>
<path opacity="0.06" d="M79.6037 66.3285L78.9336 71.1193C77.5733 71.2194 76.2631 71.3694 75.0629 71.4594L74.3328 66.8286L75.443 66.7186L76.6031 66.6186L77.3333 70.2992L78.0134 66.4785L79.6037 66.3285Z" fill="white"/>
<path d="M111.769 103.825C111.909 104.035 111.169 104.825 109.719 105.775C108.864 106.322 107.968 106.8 107.038 107.206C105.899 107.705 104.722 108.114 103.518 108.426C102.313 108.735 101.086 108.946 99.847 109.056C98.8485 109.137 97.845 109.137 96.8465 109.056C95.1162 108.926 94.086 108.586 94.106 108.336C94.106 107.766 98.2567 107.756 103.108 106.496C107.958 105.235 111.459 103.345 111.769 103.825Z" fill="#D68772"/>
<path d="M104.708 80.1311C104.708 80.1311 106.598 69.7393 114.049 70.1294C121.501 70.5194 122.821 79.461 122.821 79.461L104.708 80.1311Z" fill="#EFA98E"/>
<path d="M104.708 80.1311C104.708 80.1311 105.288 73.5799 112.989 72.6598C120.691 71.7396 122.821 79.4909 122.821 79.4909C122.821 79.4909 108.868 80.1011 104.708 80.1311Z" fill="#ECE9DE"/>
<path d="M109.269 80.0207C109.269 80.0207 109.079 74.6198 113.899 74.0197C118.72 73.4196 119.01 79.7407 119.01 79.7407C115.794 80.3096 112.51 80.3939 109.269 79.9907" fill="#373638"/>
<path d="M122.821 79.4911C122.661 79.5511 122.231 78.1609 120.881 76.3906C120.096 75.3714 119.109 74.5266 117.98 73.9102C116.6 73.1846 115.044 72.8622 113.489 72.98C111.927 73.1098 110.425 73.6403 109.129 74.5202C108.056 75.2368 107.135 76.1578 106.418 77.2307C105.188 79.0911 104.908 80.5113 104.738 80.4613C104.568 80.4113 104.688 80.0912 104.818 79.4611C105.025 78.5542 105.362 77.6818 105.818 76.8707C106.515 75.6579 107.463 74.6077 108.598 73.7901C110.006 72.7717 111.667 72.1593 113.399 72.0198C115.141 71.8815 116.884 72.2719 118.4 73.14C119.606 73.8509 120.633 74.8296 121.401 76.0005C122.731 77.9909 122.911 79.4711 122.821 79.4911Z" fill="#443949"/>
<path d="M120.481 76.9403C120.481 77.2103 119.671 77.5704 118.57 77.6504C117.47 77.7304 116.57 77.5004 116.57 77.2303C116.57 76.9603 117.44 76.7602 118.5 76.6802C119.561 76.6002 120.441 76.6802 120.481 76.9403Z" fill="white"/>
<path d="M72.9724 81.8812C72.9724 81.8812 74.8627 71.4894 82.304 71.8795C89.7453 72.2696 91.0856 81.2111 91.0856 81.2111L72.9724 81.8812Z" fill="#EFA98E"/>
<path d="M72.9724 81.8813C72.9724 81.8813 73.5525 75.3302 81.2439 74.41C88.9352 73.4898 91.0856 81.2412 91.0856 81.2412C91.0856 81.2412 77.1731 81.8513 72.9724 81.8813Z" fill="#ECE9DE"/>
<path d="M78.5432 81.6913C78.5432 81.6913 78.3532 76.3003 83.1841 75.6902C88.0149 75.0801 88.295 81.4112 88.295 81.4112C85.0748 81.9796 81.7875 82.0605 78.5432 81.6513" fill="#373638"/>
<path d="M91.0853 81.2411C90.9152 81.3111 90.4951 79.9208 89.1449 78.1405C88.3513 77.1292 87.3612 76.2889 86.2344 75.6701C84.8583 74.934 83.2989 74.611 81.7436 74.7399C80.1816 74.8618 78.6785 75.3893 77.3829 76.2702C76.3149 76.9893 75.3976 77.9101 74.6824 78.9807C73.4422 80.841 73.1621 82.2712 72.9921 82.2212C72.8221 82.1712 72.9921 81.8412 73.0721 81.2211C73.2797 80.3173 73.6165 79.4482 74.0723 78.6406C74.7662 77.4225 75.7146 76.3684 76.8528 75.5501C78.2608 74.5316 79.9214 73.9193 81.6536 73.7798C83.3952 73.6427 85.1378 74.033 86.6545 74.9C87.8586 75.6137 88.8846 76.5918 89.655 77.7605C90.9952 79.7408 91.1753 81.2211 91.0853 81.2411Z" fill="#443949"/>
<path d="M88.7452 78.701C88.7452 78.961 87.935 79.3211 86.8248 79.4011C85.7146 79.4811 84.8245 79.2511 84.8245 78.991C84.8245 78.731 85.6946 78.5109 86.7448 78.4309C87.795 78.3509 88.6952 78.4309 88.7452 78.701Z" fill="white"/>
<path d="M65.6909 136.311L82.9339 133.641L119.2 134.021L128.902 135.771L106.858 222.546L79.7134 219.265L65.6909 136.311Z" fill="#E0E0E0"/>
<path d="M98.9865 143.092C98.9865 143.092 87.2845 221.616 100.177 249.521L109.178 257.622L117.78 246.76C117.78 246.76 105.018 219.616 103.417 187.96C101.817 156.304 102.867 142.952 102.867 142.952L98.9865 143.092Z" fill="#0444AA"/>
<path d="M81.9639 133.33L82.474 127.389L97.9867 134.781L97.2565 143.392L81.9639 133.33Z" fill="#EAEAEA"/>
<path d="M97.9866 134.78L100.367 140.331L97.4465 141.112L97.9866 134.78Z" fill="#CECECE"/>
<path d="M100.367 140.331L102.327 134.78L104.438 141.542L100.367 140.331Z" fill="#CECECE"/>
<path d="M116.62 127.789C116.62 128.009 102.327 134.791 102.327 134.791L104.438 142.962L119.18 134.03L116.62 127.789Z" fill="#EAEAEA"/>
<path d="M60.4901 187.97L67.4913 254.202L61.0802 295.479L91.3055 297.309L98.4667 276.405L97.4666 211.264L78.7733 134.031L54.9791 138.161C54.9791 138.161 54.419 139.912 53.6689 141.872C47.4178 158.115 38.2862 211.614 38.6663 206.963L50.3183 264.833L74.4525 264.323" fill="#494F5E"/>
<path d="M139.244 174.998C138.65 162.341 140.396 149.684 144.395 137.661L119.18 134.031L97.4265 211.264L97.5865 278.956L101.987 294.259L138.834 291.788C138.834 291.788 129.892 220.126 129.762 218.635C129.632 217.145 139.244 174.998 139.244 174.998Z" fill="#494F5E"/>
<path d="M56.6194 141.122C56.7775 141.699 56.8681 142.293 56.8895 142.892C57.0095 144.042 57.1796 145.682 57.3896 147.723C57.8097 151.804 58.4698 157.435 59.1999 163.666C59.93 169.897 60.5001 175.548 60.7802 179.668C60.9202 181.719 61.0102 183.379 61.0402 184.529C61.1177 185.124 61.1177 185.725 61.0402 186.32C60.8911 185.74 60.8006 185.147 60.7702 184.549L60.2701 179.718C59.85 175.628 59.1999 169.997 58.4698 163.776C57.7397 157.555 57.1696 151.894 56.8795 147.773C56.7395 145.772 56.6495 144.062 56.6194 142.912C56.5549 142.317 56.5549 141.717 56.6194 141.122Z" fill="#3C424C"/>
<path d="M74.4124 134.791C74.8924 134.701 78.7531 178.548 78.7531 178.548L86.2244 187.77L85.0342 193.701L97.4464 216.405V211.264L78.7531 134.031L74.4124 134.791Z" fill="#3C424C"/>
<path d="M97.4567 139.651L103.828 139.391L105.178 143.032L97.3767 143.582L97.4567 139.651Z" fill="#1A316B"/>
<path d="M99.0668 139.391L98.7068 145.082L102.727 145.732L102.928 139.481L99.0668 139.391Z" fill="#0444AA"/>
<path d="M144.575 138.151C144.685 138.151 144.095 140.221 143.264 143.532C143.054 144.362 142.834 145.262 142.614 146.242C142.394 147.222 142.154 148.243 141.914 149.373C141.464 151.583 141.004 154.014 140.594 156.584C140.184 159.155 139.894 161.585 139.664 163.865C139.554 164.986 139.444 166.056 139.374 167.056C139.304 168.056 139.224 168.986 139.174 169.846C139.139 171.692 139.008 173.535 138.784 175.367C138.673 174.879 138.626 174.378 138.644 173.877C138.644 173.397 138.644 172.817 138.644 172.137C138.644 171.457 138.644 170.677 138.644 169.816C138.644 168.956 138.694 168.026 138.754 167.016C138.814 166.006 138.884 164.936 138.974 163.805C139.174 161.545 139.454 159.065 139.854 156.474C140.254 153.884 140.744 151.473 141.234 149.223C141.504 148.113 141.744 147.062 142.004 146.092C142.264 145.122 142.514 144.212 142.754 143.392C142.994 142.572 143.234 141.822 143.434 141.171C143.634 140.521 143.835 139.971 144.005 139.521C144.128 139.039 144.32 138.578 144.575 138.151Z" fill="#3C424C"/>
<path d="M97.5165 215.665L109.969 190.35L108.238 185.589L116.41 177.418L122.491 134.59L119.2 134.02L97.4465 211.264L97.5165 215.665Z" fill="#3C424C"/>
<path d="M118.49 181.169V178.878L126.432 178.888L126.492 180.749L118.49 181.169Z" fill="#E0E0E0"/>
<path d="M117.26 180.479H127.182C127.468 181.253 127.468 182.105 127.182 182.879L116.88 182.999L117.26 180.479Z" fill="#3C424C"/>
<path opacity="0.66" d="M69.4417 23.1611C70.1913 23.5792 70.9662 23.95 71.7621 24.2713V24.3213C71.8554 24.3524 71.9408 24.4036 72.0121 24.4714C75.7828 26.0617 82.0139 31.1425 82.0139 31.1925C85.4045 34.5331 87.3848 36.2534 87.3848 42.4245C87.1519 43.8963 86.4789 45.2631 85.4545 46.3452C85.2708 46.3362 85.0891 46.3026 84.9144 46.2452C81.8711 45.4538 78.9332 44.3022 76.1629 42.8146C76.9749 41.7417 77.5574 40.5132 77.874 39.2054C78.1906 37.8977 78.2346 36.5387 78.0032 35.2133C77.8532 34.1431 76.6429 32.5528 75.1427 30.8525C73.6424 29.1522 71.7521 27.2719 70.2518 25.7316C70.0554 25.5208 69.8449 25.3237 69.6217 25.1415C69.2416 24.8114 68.7516 24.3714 68.2715 23.9813L69.4417 23.1611Z" fill="#7F654B"/>
</g>
</svg>
