<svg width="191" height="191" viewBox="0 0 191 191" fill="none" xmlns="http://www.w3.org/2000/svg">
<circle cx="95.5" cy="95.5" r="95.5" fill="#5697B6"/>
<mask id="mask0_18_1312" style="mask-type:alpha" maskUnits="userSpaceOnUse" x="0" y="0" width="191" height="191">
<circle cx="95.5" cy="95.5" r="95.5" fill="#5697B6"/>
</mask>
<g mask="url(#mask0_18_1312)">
<path d="M49.9259 183.761L57.062 245.196L49.1289 283.379L83.7901 285.409L92.3071 266.132L92.029 205.762L71.705 135.671L45.8018 137.422L44.4117 140.203C36.9975 155.188 33.2255 169.386 31.0754 192.37V275.177H65.3659" fill="#494F5E"/>
<path d="M113.595 117.654V132.251C113.595 132.251 102.909 143.78 88.9242 137.218L81.0837 132.723L81.5193 114.188L113.595 117.654Z" fill="#FFB399"/>
<path d="M136.328 135.207L116.496 132.927L74.8651 133.678L63.7532 135.402L90.2402 215.558L121.361 212.231L136.328 135.207Z" fill="#E0E0E0"/>
<path d="M102.436 141.204C102.436 141.204 116.931 213.825 102.501 239.821L92.3069 247.43L81.5471 231.091C81.5471 231.091 95.1428 212.111 96.5515 182.751C97.9602 153.391 97.9787 141.129 97.9787 141.129L102.436 141.204Z" fill="#491D33"/>
<path d="M117.608 132.631L115.782 127.599L104.179 132.325L105.134 140.295L117.608 132.631Z" fill="#EAEAEA"/>
<path d="M104.272 132.733L101.621 137.895L104.976 138.599L104.272 132.733Z" fill="#CECECE"/>
<path d="M101.241 137.96L98.9058 132.844L96.5796 139.118L101.241 137.96Z" fill="#CECECE"/>
<path d="M77.7382 127.876C77.7382 128.08 98.9056 132.844 98.9056 132.844L95.3376 141.639L74.8652 133.715L77.7382 127.876Z" fill="#EAEAEA"/>
<path d="M143.001 183.019L135.838 244.464L143.752 282.638L109.082 284.658L100.583 265.381L100.889 205.012L121.278 133.243L147.116 136.625L148.506 139.452C155.921 154.428 155.921 173.362 163.483 194.28L150.11 277.995L122.483 278.514" fill="#494F5E"/>
<path d="M52.4189 171.861C52.9023 160.011 50.707 148.205 45.9963 137.32L74.8652 133.715L100.889 205.076L101.621 267.791L96.774 281.998L54.4392 280.145C54.4392 280.145 63.7069 213.649 63.8644 212.268C64.022 210.887 52.4189 171.861 52.4189 171.861Z" fill="#494F5E"/>
<path d="M146.801 139.563C146.637 140.098 146.543 140.653 146.523 141.213C146.393 142.278 146.226 143.808 146.004 145.698C145.578 149.479 144.901 154.706 144.15 160.526C143.4 166.347 142.816 171.546 142.547 175.355C142.417 177.264 142.334 178.802 142.315 179.868C142.257 180.421 142.275 180.979 142.371 181.527C142.536 180.992 142.633 180.437 142.658 179.877C142.779 178.812 142.955 177.282 143.168 175.392C143.594 171.611 144.271 166.384 145.022 160.564C145.772 154.743 146.356 149.544 146.625 145.735C146.764 143.826 146.847 142.288 146.866 141.222C146.925 140.669 146.903 140.11 146.801 139.563Z" fill="#3C424C"/>
<path d="M126.301 133.891C125.745 133.826 121.908 174.493 121.908 174.493L113.456 183.112L114.892 188.598L100.991 209.766L100.926 205.012L121.315 133.243L126.301 133.891Z" fill="#3C424C"/>
<path d="M104.151 137.997L96.8297 137.821L95.3376 141.213L104.299 141.63L104.151 137.997Z" fill="#301323"/>
<path d="M102.298 137.774L102.789 143.038L98.1828 143.687L97.8677 137.904L102.298 137.774Z" fill="#491D33"/>
<path d="M46.0149 144.447C46.3999 146.258 46.8856 148.047 47.4699 149.804C47.7016 150.629 47.9518 151.537 48.1928 152.51C48.4337 153.483 48.7025 154.521 48.962 155.615C49.4717 157.802 49.9814 160.249 50.4263 162.769C50.8711 165.29 51.2048 167.746 51.4643 169.952C51.5755 171.064 51.696 172.111 51.7794 173.103C51.8628 174.094 51.9369 174.956 52.0018 175.883C52.0434 177.703 52.1826 179.519 52.4189 181.323C52.554 180.854 52.6073 180.365 52.5764 179.877C52.5764 179.405 52.6227 178.83 52.6227 178.163C52.6227 177.496 52.6227 176.736 52.6227 175.902C52.6227 175.068 52.5671 174.132 52.5023 173.121C52.4374 172.111 52.3632 171.073 52.2613 169.952C52.0481 167.728 51.7331 165.318 51.2882 162.723C50.8434 160.128 50.3058 157.728 49.759 155.531C49.4625 154.428 49.1937 153.39 48.8971 152.417C48.6006 151.444 48.3411 150.564 48.0723 149.72C47.8036 148.877 47.5441 148.154 47.3124 147.505C47.0807 146.857 46.8675 146.301 46.6822 145.856C46.527 145.357 46.3024 144.883 46.0149 144.447Z" fill="#3C424C"/>
<path d="M100.87 209.08L86.2274 185.772L88.1551 181.333L78.665 173.854L71.1025 134.234L74.8652 133.678L100.889 205.002L100.87 209.08Z" fill="#3C424C"/>
<path d="M76.3295 177.347L69.4251 169.377C69.4251 169.377 68.1461 169.776 67.6642 169.905C67.1823 170.035 67.1267 177.051 67.1267 177.051L76.3295 177.347Z" fill="#E0E0E0"/>
<path d="M77.7197 176.699L66.3111 176.81C66.3111 176.81 65.8385 177.487 66.3111 179.034H78.146L77.7197 176.699Z" fill="#3C424C"/>
<path d="M67.6734 73.5215C67.1451 68.7764 58.3223 68.5355 61.5382 80.1572C64.7541 91.7788 71.3434 89.7863 71.3434 89.7863L67.6734 73.5215Z" fill="#EAB69B"/>
<path d="M68.3038 85.4583C68.3038 85.5139 68.0536 85.551 67.6272 85.4583C67.0279 85.3682 66.4481 85.1771 65.9127 84.893C65.1276 84.4721 64.4344 83.8986 63.8738 83.2063C63.5502 82.8001 63.2735 82.3586 63.049 81.8903C62.8163 81.3859 62.6512 80.853 62.5578 80.3055C62.3933 79.2516 62.5018 78.173 62.8729 77.173C63.174 76.3536 63.6374 75.6034 64.2353 74.9673C64.6411 74.5323 65.1173 74.1689 65.644 73.8923C66.0239 73.7069 66.2556 73.6606 66.2927 73.7069C66.3298 73.7532 65.5791 74.2908 64.7821 75.3751C64.3163 75.9949 63.9619 76.6911 63.7348 77.4325C63.4593 78.3163 63.3895 79.2515 63.5309 80.1665C63.6119 80.6353 63.7488 81.0926 63.9387 81.5288C64.118 81.9441 64.3417 82.3387 64.606 82.7058C65.0716 83.3413 65.642 83.8929 66.2927 84.3369C67.4233 85.1432 68.3409 85.3008 68.3038 85.4583Z" fill="#D68772"/>
<path d="M69.1562 80.148C69.0172 80.2128 68.7577 79.8607 68.2294 79.4807C67.5722 78.9872 66.7606 78.7441 65.9403 78.7949C65.3954 78.8447 64.8706 79.0259 64.4111 79.3231C64.0615 79.5449 63.7488 79.8201 63.4844 80.1387L63.0117 79.8792C63.3176 79.5734 63.5307 79.4251 63.6141 79.4714C63.6975 79.5178 63.6141 79.7772 63.4751 80.1572L63.0024 79.8977C63.1811 79.4235 63.4815 79.0047 63.8736 78.6837C64.4329 78.2106 65.1267 77.9253 65.8569 77.8681C66.4583 77.818 67.0623 77.9267 67.6085 78.1832C68.0344 78.3788 68.4135 78.6632 68.7206 79.0173C69.2211 79.6197 69.2674 80.1109 69.1562 80.148Z" fill="#D68772"/>
<path d="M120.407 120.351C119.619 121.009 118.738 121.732 117.728 122.529C114.753 124.892 110.194 129.016 105.143 130.953C100.486 130.923 95.8386 130.536 91.2412 129.795C90.7037 129.517 90.1754 129.211 89.675 128.868L73.197 114.04L70.3055 109.573C70.3055 109.573 70.3055 109.573 70.3055 109.489C69.5548 104.133 68.9339 97.9603 68.452 91.9827C68.211 89.2024 67.9886 86.4221 67.7847 83.8364C67.0433 73.9756 66.6633 66.2278 66.6633 66.2278C64.6893 38.2579 80.8614 27.1274 97.2467 23.1701C109.1 20.3157 123.919 26.5065 130.74 40.3061C133.335 45.5886 133.094 54.2076 133.52 60.5838C133.52 60.5838 132.872 77.7383 131.046 94.5869C130.898 95.8566 130.759 97.117 130.601 98.3867C130.601 98.5628 130.601 98.7481 130.536 98.9242C130.471 99.1003 130.481 99.1837 130.462 99.3134C130.444 99.4432 130.462 99.3969 130.462 99.4339C130.342 100.018 130.221 100.565 130.128 101.037C129.721 102.891 129.304 104.865 128.942 106.496C128.933 106.52 128.933 106.546 128.942 106.57L120.407 120.351Z" fill="#FCCAB1"/>
<path d="M130.972 94.6797C130.823 95.9586 130.684 97.219 130.536 98.4794C130.49 98.8316 130.434 99.1838 130.36 99.536C129.489 103.697 129.387 104.911 128.924 106.338C127.561 110.398 129.202 111.139 117.71 123.243C114.945 126.074 111.767 128.471 108.284 130.351C106.679 131.198 104.921 131.718 103.113 131.88C102.186 131.973 100.972 132.047 99.7489 132.047C96.4496 132.047 94.1883 131.676 91.8065 130.388C88.5999 128.729 75.2451 117.979 71.3434 111.927C70.3134 109.988 69.5437 107.922 69.0543 105.782C67.4788 98.8038 67.6827 83.9199 67.6827 83.9199H69.2211C69.2211 83.9199 70.0923 91.8345 71.8161 96.7093C73.5399 101.584 81.0004 106.904 84.0402 106.848C85.8937 106.848 88.3404 97.4229 94.4849 96.7742C99.0718 96.3901 103.689 96.6082 108.22 97.4229C114.29 98.7668 115.18 108.767 117.265 108.22C120.736 106.986 123.881 104.977 126.458 102.344C129.127 99.4989 130.045 96.3571 130.972 94.6797Z" fill="#544737"/>
<path d="M129.841 67.6922L122.483 67.2381L120.481 67.0991L117.265 66.9137L112.733 66.645L108.748 66.3855L109.916 59.4347L111.324 59.6664L115.754 60.3059H115.81L119.897 60.9546L121.018 61.1399L125.652 61.8258L129.841 67.6922Z" fill="#544737"/>
<path d="M108.22 77.5993C108.22 77.5993 110.889 67.9146 118.34 68.8413C125.791 69.7681 126.459 78.2758 126.459 78.2758L108.22 77.5993Z" fill="#EFA98E"/>
<path d="M108.22 77.5992C108.22 77.5992 109.295 71.4454 117.089 71.1118C124.883 70.7782 126.459 78.2572 126.459 78.2572C126.459 78.2572 112.399 77.8587 108.22 77.5992Z" fill="#ECE9DE"/>
<path d="M112.798 77.8125C112.798 77.8125 113.011 72.6967 117.905 72.5021C122.798 72.3075 122.613 78.2666 122.613 78.2666C119.336 78.5833 116.031 78.4303 112.798 77.8125Z" fill="#2B3949"/>
<path d="M126.459 78.2666C126.282 78.3222 125.967 76.9784 124.744 75.2083C124.018 74.1794 123.087 73.3117 122.01 72.6596C120.664 71.8704 119.131 71.4575 117.571 71.4641C116.002 71.4704 114.458 71.8618 113.076 72.604C111.956 73.199 110.962 74.0046 110.147 74.9766C108.776 76.6447 108.387 77.9793 108.22 77.9144C108.053 77.8496 108.22 77.5623 108.377 76.9877C108.661 76.1406 109.07 75.3409 109.591 74.6151C110.391 73.5031 111.422 72.5769 112.613 71.8997C114.118 71.0316 115.824 70.5716 117.562 70.5651C119.309 70.5538 121.023 71.0426 122.501 71.9738C123.658 72.7132 124.626 73.713 125.328 74.8932C126.477 76.8486 126.542 78.2573 126.459 78.2666Z" fill="#443949"/>
<path d="M124.345 75.6994C124.345 75.9496 123.484 76.2369 122.371 76.2277C121.259 76.2184 120.37 75.9496 120.397 75.6994C120.425 75.4492 121.324 75.3102 122.371 75.3102C123.419 75.3102 124.271 75.4399 124.345 75.6994Z" fill="white"/>
<path d="M76.209 77.0156C76.209 77.0156 78.9337 67.3308 86.3478 68.2483C93.762 69.1658 94.4571 77.6921 94.4571 77.6921L76.209 77.0156Z" fill="#EFA98E"/>
<path d="M76.209 77.0154C76.209 77.0154 77.2841 70.8709 85.0874 70.528C92.8908 70.1851 94.4478 77.6827 94.4478 77.6827C94.4478 77.6827 80.398 77.2842 76.209 77.0154Z" fill="#ECE9DE"/>
<path d="M81.8252 77.2286C81.8252 77.2286 82.0384 72.1221 86.9224 71.9182C91.8065 71.7143 91.6397 77.6919 91.6397 77.6919C88.3627 78.002 85.0584 77.846 81.8252 77.2286Z" fill="#2B3949"/>
<path d="M94.4478 77.6921C94.281 77.7384 93.9566 76.3946 92.7333 74.6245C92.0073 73.5956 91.0765 72.7279 89.9993 72.0758C88.6538 71.2858 87.1203 70.8728 85.5601 70.8803C83.9912 70.8877 82.448 71.2791 81.0652 72.0202C79.9517 72.6206 78.9613 73.4255 78.1459 74.3928C76.765 76.0609 76.3758 77.3955 76.209 77.3399C76.0422 77.2843 76.209 76.9785 76.3665 76.4131C76.6466 75.5645 77.0561 74.7642 77.5806 74.0406C78.3813 72.9234 79.4154 71.9937 80.6111 71.3159C82.116 70.4467 83.8222 69.9865 85.5601 69.9814C87.3065 69.9761 89.0188 70.4644 90.4998 71.39C91.6377 72.1376 92.5889 73.1363 93.2801 74.3094C94.4756 76.2556 94.5405 77.6828 94.4478 77.6921Z" fill="#443949"/>
<path d="M92.2885 75.1157C92.2885 75.3659 91.4359 75.6532 90.3145 75.6532C89.1931 75.6532 88.3127 75.3659 88.3405 75.1157C88.3683 74.8654 89.2673 74.7264 90.3145 74.7264C91.3618 74.7264 92.27 74.8562 92.2885 75.1157Z" fill="white"/>
<path d="M94.4569 66.0055C94.4105 66.0889 91.7322 65.8665 89.6377 65.9128L86.0233 65.9592H78.4238C74.7167 65.9592 71.7974 65.9128 71.7974 65.9128L77.9326 60.6302L80.231 60.3615L81.9362 60.1761L83.4469 59.9908L87.8768 59.4439L91 59.2586L93.873 59.0732C93.873 59.0732 94.5588 65.6348 94.4569 66.0055Z" fill="#544737"/>
<path d="M135.114 54.291C135.114 54.4856 135.114 54.6524 135.114 54.8471V55.0324C134.966 65.7459 132.408 78.7948 132.408 78.7948L132.251 78.4148C132.251 78.4148 132.955 65.8015 132.594 59.9906C132.492 58.3873 132.334 55.7182 132.056 52.9286C131.861 50.6676 131.511 48.4226 131.009 46.2096C130.903 45.7025 130.761 45.2039 130.583 44.7175C128.312 38.2301 122.965 34.662 119.406 35.6259H119.304C116.601 36.3715 113.852 36.935 111.074 37.3126C109.823 37.4887 108.581 37.5999 107.367 37.6555C106.301 37.6555 105.254 37.6555 104.253 37.6555L101.538 37.4794L99.4617 37.3126C98.4793 37.257 97.5154 37.1829 96.5331 37.1087L93.6972 36.877L91.6397 36.7102L85.384 36.1542H85.245C81.3248 35.7649 77.9884 35.9132 74.0589 41.4553C73.1621 42.6478 72.4267 43.9534 71.8718 45.3384C70.4581 49.1272 69.4908 53.0678 68.9895 57.0806L68.9339 57.8683C68.3112 66.5524 68.4259 75.2736 69.2768 83.9383L67.8032 84.3554C67.8032 84.3554 66.1165 72.3074 64.8098 61.0564C64.8098 60.9359 64.8098 60.8062 64.8098 60.695C64.4669 57.6274 64.1425 54.5968 63.883 51.9277C63.883 51.5663 63.7996 51.1863 63.7811 50.8527C63.5245 48.4887 63.3915 46.113 63.3826 43.7351C63.4845 37.8779 76.311 30.436 88.7019 25.2739C91.0188 24.2915 93.3357 23.4203 95.5229 22.6048C97.7101 21.7892 99.8046 21.122 101.714 20.5752C104.448 19.7782 107.867 22.2433 110.564 22.6048C112.353 22.8457 113.484 20.7512 115.198 21.3351C115.782 21.5205 116.347 21.7336 116.913 21.956C117.117 22.058 117.33 22.1321 117.534 22.2248C119.778 23.185 121.946 24.3127 124.021 25.5982C124.948 26.1821 125.875 26.766 126.672 27.3313C127.839 28.1469 128.924 28.9253 129.869 29.6297L130.193 29.8707C131.806 31.0847 133.029 32.0115 133.697 32.3915C134.679 32.9568 135.105 40.4914 135.207 47.6275C135.133 49.9815 135.133 52.2892 135.114 54.291Z" fill="#544737"/>
<path d="M133.613 32.3729L110.444 33.485L98.9148 34.0411L93.1411 34.3191L90.3608 34.4581L81.9364 34.8474L77.3026 37.3311L73.7067 39.1847L63.3084 44.7453C63.3084 44.7453 62.7245 39.1012 65.4956 37.0345C67.831 35.2922 70.5279 33.726 71.3713 32.966C71.5749 32.0373 71.886 31.1353 72.298 30.2784C72.298 30.2784 75.1525 24.3934 79.5825 21.5297C80.2172 21.1173 80.8985 20.7813 81.6121 20.5288C81.6819 20.4884 81.7566 20.4572 81.8345 20.4361C82.2979 20.2878 82.7613 20.1303 83.2988 19.982H83.4193C86.3817 19.2224 89.3909 18.6589 92.4275 18.2953C94.8834 17.9894 97.4598 17.767 99.9714 17.6095C103.468 17.4016 106.973 17.3768 110.472 17.5354C113.372 17.7114 120.11 20.8902 124.271 23.9393C124.976 24.449 125.68 25.0144 126.403 25.6446C126.811 25.9597 127.228 26.3211 127.626 26.6826L128.275 27.2664C129.202 28.1005 130.064 28.9161 130.805 29.6575C132.473 31.1774 133.613 32.3729 133.613 32.3729Z" fill="#544737"/>
<path opacity="0.07" d="M63.7068 50.8344C65.5603 48.8418 68.8967 46.8585 71.816 45.3201C70.4024 49.1089 69.4351 53.0495 68.9337 57.0622L68.8781 57.8592L64.717 60.6396L63.7068 50.8344Z" fill="white"/>
<path opacity="0.66" d="M135.096 47.609V54.8471L132.037 52.9287C131.843 50.6676 131.493 48.4226 130.99 46.2096C132.686 46.4413 134.605 46.8769 135.096 47.609Z" fill="#7F654B"/>
<path opacity="0.13" d="M117.265 66.9137L112.733 66.645L111.324 59.6664L115.754 60.3059H115.81L117.265 66.9137Z" fill="#DDCF94"/>
<path opacity="0.07" d="M121.018 61.1399L122.483 67.2381L120.481 67.0991L119.897 60.9546L121.018 61.1399Z" fill="white"/>
<path opacity="0.13" d="M91.0004 59.2585L89.6381 65.9035L86.0237 65.9498L87.8772 59.4439L91.0004 59.2585Z" fill="#DDCF94"/>
<path opacity="0.07" d="M77.9329 60.6302L78.4148 65.9498H82.2238L83.4379 59.9907L81.9272 60.1761L81.6863 60.2688L80.7595 64.6246L80.222 60.3614L77.9329 60.6302Z" fill="white"/>
<path d="M98.3959 94.1514C100.441 95.0201 102.677 95.3396 104.883 95.0781C109.406 94.6982 110.305 92.0476 110.444 92.0198C110.666 88.702 109.61 86.7001 108.183 84.2998C107.412 83.045 106.748 81.7274 106.199 80.361C106.005 79.8328 105.569 77.7754 105.523 77.6549L105.476 77.4881C105.476 77.4881 105.476 77.4047 105.476 77.3583V77.0339C105.476 76.9227 105.476 76.8022 105.523 76.6818C105.671 75.755 105.893 74.8282 106.097 74.0312C106.623 72.292 107.053 70.5254 107.386 68.7394C107.103 69.1481 106.893 69.6028 106.765 70.0832C106.431 71.0099 105.977 72.2611 105.486 73.8829C105.245 74.6985 104.985 75.5789 104.791 76.5798C104.791 76.7096 104.744 76.83 104.735 76.9691V77.173V77.3954V77.6549C104.735 77.729 104.781 77.7939 104.8 77.8588C104.818 77.9237 104.874 78.1183 104.92 78.2388C105.087 78.7485 105.458 79.6567 105.634 80.1849C106.348 82.298 106.885 83.2711 107.969 86.0977C108.322 87.3211 110.926 90.9911 107.497 93.4377C101.871 96.3571 96.1994 93.3265 98.3959 94.1514Z" fill="#E2A893"/>
<path d="M93.3449 102.427C93.2522 102.641 93.6785 103.753 95.0316 105.134C95.8409 105.609 96.6907 106.013 97.571 106.338C98.6691 106.627 99.7875 106.831 100.917 106.95C102.044 107.056 103.178 107.074 104.309 107.006L104.92 106.922C106.252 106.65 107.506 106.083 108.59 105.263C109.517 104.587 109.999 104.225 109.962 104.059C109.832 103.549 106.255 104.503 101.741 104.059C97.2281 103.614 93.5581 101.946 93.3449 102.427Z" fill="#D68772"/>
<path opacity="0.66" d="M130.833 29.5928C130.518 29.5928 130.156 29.5928 129.767 29.5928C125.504 29.6854 118.043 30.1952 112.9 32.2433C112.041 32.5647 111.218 32.9746 110.444 33.4666C109.637 33.8831 108.935 34.4788 108.394 35.2081C107.853 35.9374 107.486 36.781 107.321 37.6742C106.255 37.6742 105.208 37.6742 104.207 37.6742L98.0066 37.2386C98.1437 36.1541 98.4567 35.0992 98.9334 34.1154C98.9334 34.1154 98.9334 34.1154 98.9334 34.0598C99.8601 32.2804 103.141 29.4259 106.014 28.0543C111.343 25.5706 116.153 25.6725 123.938 25.5984C124.401 25.5984 125.624 25.5984 126.449 25.5984C126.857 25.9135 127.274 26.2749 127.672 26.6364L128.321 27.2202L130.833 29.5928Z" fill="#7F654B"/>
<path opacity="0.07" d="M77.3025 37.3312C77.3486 37.4766 77.4108 37.6165 77.4879 37.7482L74.7076 40.5841C74.359 40.1517 74.0489 39.6896 73.7808 39.2032C72.709 37.7115 71.9494 36.0188 71.5473 34.2265C71.5473 34.2265 71.5473 34.1709 71.5473 34.1524C71.4441 33.7627 71.4158 33.357 71.4639 32.9568C71.6675 32.028 71.9785 31.1261 72.3906 30.2692C72.3906 30.2692 75.2451 24.3842 79.675 21.5205C80.3098 21.1081 80.9911 20.7721 81.7047 20.5196L83.3914 19.9728H83.5119C83.1875 20.3528 78.878 25.3666 77.3396 30.7048C76.5617 32.8429 76.5486 35.1845 77.3025 37.3312Z" fill="white"/>
<path opacity="0.66" d="M95.3467 38.7862C95.198 38.7584 95.0543 38.7084 94.9204 38.6379L95.3467 38.7862Z" fill="#7F654B"/>
<path opacity="0.66" d="M99.9899 17.5447C98.1511 18.9012 96.6063 20.6163 95.4487 22.5863C94.3744 24.3874 93.6834 26.3909 93.4191 28.4713C93.1152 30.4048 93.0189 32.3652 93.1318 34.3192C93.182 35.1914 93.3535 36.0523 93.6415 36.8771L91.5841 36.7102C91.1131 35.9875 90.689 35.2353 90.3144 34.4582C88.822 31.6361 88.2331 28.4234 88.6277 25.2554C89.0721 22.5503 90.4177 20.0748 92.446 18.2305C94.9019 17.9247 97.4691 17.7022 99.9899 17.5447Z" fill="#7F654B"/>
</g>
</svg>
