<svg width="46" height="46" viewBox="0 0 46 46" fill="none" xmlns="http://www.w3.org/2000/svg">
<path d="M32.8847 16.7325L31.8365 16.2783C31.7616 16.0512 31.6868 15.8241 31.5745 15.6349L31.9862 14.5373C32.0237 14.3859 32.0237 14.2345 31.9114 14.1209L31.275 13.4775C31.1627 13.364 31.0129 13.3261 30.8632 13.4018L29.7776 13.856C29.5904 13.7425 29.3658 13.6668 29.1412 13.5911L28.692 12.4935C28.6172 12.3421 28.5049 12.2664 28.3551 12.2664H27.4567C27.307 12.2664 27.1572 12.3421 27.1198 12.4935L26.6706 13.5911C26.446 13.6668 26.2214 13.7425 26.0342 13.856L24.9486 13.4018C24.7989 13.364 24.6491 13.364 24.5368 13.4775L23.9004 14.1209C23.7881 14.2345 23.7507 14.3859 23.8256 14.5373L24.2748 15.6349C24.1625 15.862 24.0876 16.0512 24.0128 16.2783L22.8523 16.7325C22.7026 16.8082 22.6277 16.9218 22.6277 17.0731V17.9815C22.6277 18.1329 22.7026 18.2843 22.8523 18.3222L23.9004 18.7763C23.9753 19.0034 24.0502 19.2305 24.1625 19.4198L23.7133 20.5174C23.6758 20.6688 23.6758 20.8202 23.7881 20.9337L24.4245 21.5772C24.5368 21.6907 24.6866 21.7285 24.8363 21.6528L25.9219 21.2365C26.1091 21.3501 26.3337 21.4258 26.5583 21.5015L27.0075 22.5991C27.0824 22.7505 27.1947 22.8262 27.3444 22.8262H28.2428C28.3925 22.8262 28.5423 22.7505 28.5797 22.5991L29.0289 21.5015C29.2535 21.4258 29.4781 21.3501 29.6653 21.2365L30.7509 21.6528C30.9006 21.7285 31.0504 21.6907 31.1627 21.5772L31.7991 20.9337C31.9114 20.8202 31.9488 20.6688 31.8739 20.5174L31.4622 19.4198C31.5745 19.1927 31.6493 19.0034 31.7242 18.7763L32.7724 18.3222C32.9221 18.2465 32.997 18.1329 32.997 17.9815V17.0731C33.1093 16.9218 32.997 16.8082 32.8847 16.7325ZM27.8685 19.7983C26.6331 19.7983 25.6224 18.7763 25.6224 17.5273C25.6224 16.2783 26.6331 15.2564 27.8685 15.2564C29.1038 15.2564 30.1145 16.2783 30.1145 17.5273C30.1145 18.7763 29.1038 19.7983 27.8685 19.7983Z" fill="#D2E45D"/>
<path d="M6.34748 8.475H6.19748V8.48323C5.36353 8.56065 4.71084 9.27153 4.71084 10.1317V20.6989V20.8489H4.86084H5.57917H5.72917V20.6989V10.1317C5.72917 9.78455 6.0086 9.50433 6.34871 9.50433H34.6177C34.96 9.50433 35.2404 9.78516 35.2404 10.1317V20.6989V20.8489H35.3904H36.1087H36.2587V20.6989V10.1317C36.2587 9.27108 35.6043 8.5603 34.7688 8.4831V8.475H34.6188H6.34748Z" fill="#D2E45D" stroke="#D2E45D" stroke-width="0.3"/>
<path d="M19.2027 12.0326H7.43054C7.14659 12.0326 6.91641 12.2628 6.91641 12.5467C6.91641 12.8307 7.14659 13.0609 7.43054 13.0609H19.2027C19.4867 13.0609 19.7169 12.8307 19.7169 12.5467C19.7169 12.2628 19.4867 12.0326 19.2027 12.0326Z" fill="#D2E45D" stroke="#D2E45D" stroke-width="0.3"/>
<path d="M19.2027 15.5902H7.43054C7.14659 15.5902 6.91641 15.8204 6.91641 16.1044C6.91641 16.3883 7.14659 16.6185 7.43054 16.6185H19.2027C19.4867 16.6185 19.7169 16.3883 19.7169 16.1044C19.7169 15.8204 19.4867 15.5902 19.2027 15.5902Z" fill="#D2E45D" stroke="#D2E45D" stroke-width="0.3"/>
<path d="M19.2027 19.1476H7.43054C7.14659 19.1476 6.91641 19.3778 6.91641 19.6617C6.91641 19.9457 7.14659 20.1759 7.43054 20.1759H19.2027C19.4867 20.1759 19.7169 19.9457 19.7169 19.6617C19.7169 19.3778 19.4867 19.1476 19.2027 19.1476Z" fill="#D2E45D" stroke="#D2E45D" stroke-width="0.3"/>
<path d="M10.1015 32.5542L10.1015 32.7042H10.2515H16.7548V34.4553H16.0436C15.7596 34.4553 15.5295 34.6855 15.5295 34.9694C15.5295 35.2541 15.7619 35.4835 16.045 35.4835H16.0713H16.0974H16.1235H16.1496H16.1755H16.2014H16.2273H16.2531H16.2788H16.3045H16.3301H16.3557H16.3812H16.4067H16.432H16.4574H16.4826H16.5078H16.533H16.5581H16.5831H16.6081H16.633H16.6579H16.6827H16.7075H16.7322H16.7568H16.7814H16.8059H16.8304H16.8548H16.8791H16.9034H16.9277H16.9519H16.976H17.0001H17.0241H17.0481H17.072H17.0959H17.1197H17.1434H17.1671H17.1908H17.2144H17.2379H17.2614H17.2848H17.3082H17.3315H17.3548H17.378H17.4012H17.4243H17.4474H17.4704H17.4933H17.5162H17.5391H17.5619H17.5847H17.6074H17.63H17.6526H17.6752H17.6977H17.7201H17.7425H17.7649H17.7872H17.8094H17.8316H17.8538H17.8759H17.8979H17.9199H17.9419H17.9638H17.9856H18.0074H18.0292H18.0509H18.0726H18.0942H18.1158H18.1373H18.1588H18.1802H18.2016H18.2229H18.2442H18.2654H18.2866H18.3078H18.3289H18.3499H18.3709H18.3919H18.4128H18.4337H18.4545H18.4753H18.496H18.5167H18.5374H18.558H18.5785H18.599H18.6195H18.6399H18.6603H18.6807H18.701H18.7212H18.7414H18.7616H18.7817H18.8018H18.8218H18.8418H18.8618H18.8817H18.9016H18.9214H18.9412H18.9609H18.9806H19.0003H19.0199H19.0395H19.0591H19.0786H19.098H19.1174H19.1368H19.1562H19.1755H19.1947H19.2139H19.2331H19.2523H19.2714H19.2904H19.3095H19.3285H19.3474H19.3663H19.3852H19.404H19.4228H19.4416H19.4603H19.479H19.4976H19.5162H19.5348H19.5534H19.5719H19.5903H19.6088H19.6271H19.6455H19.6638H19.6821H19.7004H19.7186H19.7368H19.7549H19.773H19.7911H19.8091H19.8271H19.8451H19.863H19.8809H19.8988H19.9166H19.9344H19.9522H19.9699H19.9876H20.0053H20.023H20.0406H20.0581H20.0757H20.0932H20.1107H20.1281H20.1455H20.1629H20.1802H20.1975H20.2148H20.2321H20.2493H20.2665H20.2837H20.3008H20.3179H20.335H20.352H20.369H20.386H20.403H20.4199H20.4368H20.4537H20.4705H20.4873H20.5041H20.5208H20.5376H20.5543H20.5709H20.5876H20.6042H20.6208H20.6373H20.6538H20.6704H20.6868H20.7033H20.7197H20.7361H20.7525H20.7688H20.7851H20.8014H20.8177H20.8339H20.8502H20.8663H20.8825H20.8987H20.9148H20.9309H20.9469H20.963H20.979H20.995H21.011H21.0269H21.0428H21.0587H21.0746H21.0905H21.1063H21.1221H21.1379H21.1537H21.1694H21.1851H21.2008H21.2165H21.2321H21.2478H21.2634H21.279H21.2945H21.3101H21.3256H21.3411H21.3566H21.3721H21.3875H21.4029H21.4183H21.4337H21.4491H21.4644H21.4798H21.4951H21.5104H21.5256H21.5409H21.5561H21.5713H21.5865H21.6017H21.6169H21.632H21.6471H21.6622H21.6773H21.6924H21.7075H21.7225H21.7375H21.7525H21.7675H21.7825H21.7975H21.8124H21.8273H21.8422H21.8571H21.872H21.8869H21.9017H21.9165H21.9314H21.9462H21.961H21.9757H21.9905H22.0052H22.02H22.0347H22.0494H22.0641H22.0788H22.0935H22.1081H22.1227H22.1374H22.152H22.1666H22.1812H22.1958H22.2103H22.2249H22.2394H22.254H22.2685H22.283H22.2975H22.312H22.3265H22.3409H22.3554H22.3698H22.3843H22.3987H22.4131H22.4275H22.4419H22.4563H22.4707H22.4851H22.4994H22.5138H22.5281H22.5425H22.5568H22.5711H22.5854H22.5998H22.6141H22.6283H22.6426H22.6569H22.6712H22.6854H22.6997H22.7139H22.7282H22.7424H22.7566H22.7709H22.7851H22.7993H22.8135H22.8277H22.8419H22.8561H22.8703H22.8845H22.8986H22.9128H22.927H22.9412H22.9553H22.9695H22.9836H22.9978H23.0119H23.0261H23.0402H23.0543H23.0685H23.0826H23.0967H23.1109H23.125H23.1391H23.1532H23.1674H23.1815H23.1956H23.2097H23.2238H23.2379H23.2521H23.2662H23.2803H23.2944H23.3085H23.3226H23.3367H23.3508H23.3649H23.3791H23.3932H23.4073H23.4214H23.4355H23.4496H23.4638H23.4779H23.492H23.5061H23.5203H23.5344H23.5485H23.5626H23.5768H23.5909H23.6051H23.6192H23.6334H23.6475H23.6617H23.6758H23.69H23.7042H23.7183H23.7325H23.7467H23.7609H23.7751H23.7893H23.8035H23.8177H23.8319H23.8461H23.8603H23.8745H23.8888H23.903H23.9173H23.9315H23.9458H23.9601H23.9743H23.9886H24.0029H24.0172H24.0315H24.0458H24.0601H24.0745H24.0888H24.1031H24.1175H24.1318H24.1462H24.1606H24.175H24.1894H24.2038H24.2182H24.2326H24.2471H24.2615H24.276H24.2904H24.3049H24.3194H24.3339H24.3484H24.3629H24.3774H24.392H24.4065H24.4211H24.4357H24.4503H24.4649H24.4795H24.4941H24.5087H24.5234H24.5381H24.5527H24.5674H24.5821H24.5968H24.6116H24.6263H24.6411H24.6559H24.6706H24.6854H24.7003H24.7151H24.7299H24.7448H24.7597H24.7746H24.7895H24.8044H24.8193H24.8343H24.8492H24.8642H24.8792H24.8942H24.9093H24.9243C25.208 35.4835 25.439 35.2537 25.439 34.9694C25.439 34.6855 25.2089 34.4553 24.9249 34.4553H24.2135V32.7042H24.2146H24.2251H24.2356H24.2461H24.2567H24.2673H24.278H24.2887H24.2995H24.3103H24.3212H24.3321H24.343H24.354H24.3651H24.3761H24.3873H24.3984H24.4097H24.4209H24.4322H24.4436H24.455H24.4664H24.4779H24.4895H24.501H24.5126H24.5243H24.536H24.5478H24.5596H24.5714H24.5833H24.5952H24.6072H24.6192H24.6312H24.6433H24.6555H24.6676H24.6799H24.6921H24.7044H24.7168H24.7292H24.7416H24.7541H24.7666H24.7792H24.7918H24.8044H24.8171H24.8298H24.8426H24.8554H24.8683H24.8812H24.8941H24.9071H24.9201H24.9331H24.9462H24.9594H24.9726H24.9858H24.999H25.0123H25.0257H25.0391H25.0525H25.0659H25.0794H25.093H25.1066H25.1202H25.1338H25.1475H25.1613H25.175H25.1889H25.2027H25.2166H25.2305H25.2445H25.2585H25.2726H25.2866H25.3008H25.3149H25.3291H25.3434H25.3576H25.372H25.3863H25.4007H25.4151H25.4296H25.4441H25.4586H25.4732H25.4878H25.5025H25.5172H25.5319H25.5466H25.5614H25.5763H25.5911H25.606H25.621H25.636H25.651H25.666H25.6811H25.6962H25.7114H25.7266H25.7418H25.7571H25.7724H25.7877H25.8031H25.8185H25.834H25.8494H25.8649H25.8805H25.8961H25.9117H25.9273H25.943H25.9587H25.9745H25.9903H26.0061H26.0219H26.0378H26.0538H26.0697H26.0857H26.1017H26.1178H26.1339H26.15H26.1661H26.1823H26.1986H26.2148H26.2311H26.2474H26.2638H26.2802H26.2966H26.313H26.3295H26.346H26.3626H26.3791H26.3957H26.4124H26.4291H26.4458H26.4625H26.4793H26.4961H26.5129H26.5297H26.5466H26.5636H26.5805H26.5975H26.6145H26.6316H26.6486H26.6657H26.6829H26.7H26.7172H26.7345H26.7517H26.769H26.7863H26.8036H26.821H26.8384H26.8559H26.8733H26.8908H26.9083H26.9259H26.9435H26.9611H26.9787H26.9964H27.0141H27.0318H27.0495H27.0673H27.0851H27.1029H27.1208H27.1387H27.1566H27.1745H27.1925H27.2105H27.2285H27.2466H27.2647H27.2828H27.3009H27.3191H27.3373H27.3555H27.3737H27.392H27.4103H27.4286H27.447H27.4653H27.4837H27.5022H27.5206H27.5391H27.5576H27.5761H27.5947H27.6133H27.6319H27.6505H27.6692H27.6878H27.7065H27.7253H27.744H27.7628H27.7816H27.8004H27.8193H27.8382H27.8571H27.876H27.895H27.9139H27.9329H27.952H27.971H27.9901H28.0092H28.0283H28.0474H28.0666H28.0858H28.105H28.1242H28.1435H28.1627H28.182H28.2014H28.2207H28.2401H28.2595H28.2789H28.2983H28.3178H28.3373H28.3568H28.3763H28.3958H28.4154H28.435H28.4546H28.4742H28.4939H28.5135H28.5332H28.553H28.5727H28.5924H28.6122H28.632H28.6518H28.6717H28.6915H28.7114H28.7313H28.7512H28.7712H28.7911H28.8111H28.8311H28.8511H28.8712H28.8912H28.9113H28.9314H28.9515H28.9716H28.9918H29.012H29.0322H29.0524H29.0726H29.0928H29.1131H29.1334H29.1537H29.174H29.1943H29.2147H29.2351H29.2555H29.2759H29.2963H29.3167H29.3372H29.3577H29.3782H29.3987H29.4192H29.4397H29.4603H29.4809H29.5015H29.5221H29.5427H29.5634H29.584H29.6047H29.6254H29.6461H29.6668H29.6876H29.7083H29.7291H29.7499H29.7707H29.7915H29.8124H29.8332H29.8541H29.8749H29.8958H29.9167H29.9377H29.9586H29.9796H30.0005H30.0215H30.0425H30.0635H30.0845H30.1056H30.1266H30.1477H30.1688H30.1899H30.211H30.2321H30.2532H30.2744H30.2955H30.3167H30.3379H30.3591H30.3803H30.4015H30.4228H30.444H30.4653H30.4865H30.5078H30.5291H30.5504H30.5718H30.5931H30.6144H30.6358H30.6572H30.6785H30.6999H30.7213H30.7428H30.7642H30.7856H30.8071H30.8285H30.85H30.8715H30.893H30.9145H30.936H30.9575H30.979H31.0006H31.0221H31.0437H31.0653H31.0868H31.1084H31.13H31.1516H31.1733H31.1949H31.2165H31.2382H31.2598H31.2815H31.3032H31.3248H31.3465H31.3682H31.3899H31.4117H31.4334H31.4551H31.4769H31.4986H31.5204H31.5421H31.5639H31.5857H31.6075H31.6293H31.6511H31.6729H31.6947H31.7165H31.7383H31.7602H31.782H31.8039H31.8257H31.8476H31.8695H31.8913H31.9132H31.9351H31.957H31.9789H32.0008H32.0227H32.0446H32.0666H32.0885H32.1104H32.1324H32.1543H32.1763H32.1982H32.2202H32.2422H32.2641H32.2861H32.3081H32.3301H32.3521H32.374H32.396H32.418H32.4401H32.4621H32.4841H32.5061H32.5281H32.5501H32.5722H32.5942H32.6162H32.6383H32.6603H32.6824H32.7044H32.7264H32.7485H32.7706H32.7926H32.8147H32.8367H32.8588H32.8809H32.9029H32.925H32.9471H32.9692H32.9912H33.0133H33.0354H33.0575H33.0796H33.1016H33.1237H33.1458H33.1679H33.19H33.2121H33.2342C33.5173 32.7042 33.7433 32.4723 33.7433 32.1901C33.7433 31.9079 33.5173 31.6759 33.2342 31.6759H33.206H33.1777H33.1493H33.1206H33.0918H33.0628H33.0337H33.0043H32.9748H32.9452H32.9153H32.8853H32.8552H32.8248H32.7943H32.7636H32.7328H32.7018H32.6706H32.6393H32.6078H32.5762H32.5444H32.5124H32.4803H32.448H32.4155H32.3829H32.3502H32.3172H32.2842H32.2509H32.2175H32.184H32.1503H32.1165H32.0825H32.0483H32.014H31.9796H31.945H31.9102H31.8753H31.8403H31.8051H31.7698H31.7343H31.6987H31.6629H31.627H31.5909H31.5547H31.5184H31.4819H31.4453H31.4085H31.3716H31.3346H31.2974H31.2601H31.2226H31.185H31.1473H31.1094H31.0714H31.0333H30.9951H30.9567H30.9181H30.8795H30.8407H30.8018H30.7627H30.7236H30.6843H30.6449H30.6053H30.5656H30.5258H30.4859H30.4458H30.4057H30.3654H30.325H30.2844H30.2438H30.203H30.1621H30.1211H30.0799H30.0387H29.9973H29.9558H29.9142H29.8725H29.8306H29.7887H29.7466H29.7045H29.6622H29.6198H29.5773H29.5347H29.492H29.4491H29.4062H29.3631H29.32H29.2767H29.2334H29.1899H29.1463H29.1026H29.0589H29.015H28.971H28.9269H28.8827H28.8385H28.7941H28.7496H28.705H28.6603H28.6156H28.5707H28.5257H28.4807H28.4355H28.3903H28.345H28.2995H28.254H28.2084H28.1627H28.1169H28.071H28.0251H27.979H27.9329H27.8867H27.8403H27.794H27.7475H27.7009H27.6543H27.6075H27.5607H27.5138H27.4669H27.4198H27.3727H27.3255H27.2782H27.2308H27.1834H27.1359H27.0883H27.0406H26.9929H26.9451H26.8972H26.8492H26.8012H26.7531H26.7049H26.6567H26.6084H26.56H26.5116H26.463H26.4145H26.3658H26.3171H26.2683H26.2195H26.1706H26.1217H26.0726H26.0235H25.9744H25.9252H25.8759H25.8266H25.7772H25.7278H25.6783H25.6288H25.5791H25.5295H25.4798H25.43H25.3802H25.3303H25.2804H25.2304H25.1804H25.1303H25.0802H25.03H24.9798H24.9295H24.8792H24.8289H24.7785H24.728H24.6775H24.627H24.5764H24.5258H24.4751H24.4244H24.3737H24.3229H24.2721H24.2212H24.1703H24.1194H24.0684H24.0174H23.9664H23.9153H23.8642H23.813H23.7619H23.7107H23.6594H23.6082H23.5569H23.5055H23.4542H23.4028H23.3514H23.3H23.2485H23.197H23.1455H23.094H23.0424H22.9908H22.9392H22.8876H22.836H22.7843H22.7326H22.6809H22.6292H22.5774H22.5257H22.4739H22.4221H22.3703H22.3185H22.2667H22.2148H22.163H22.1111H22.0592H22.0073H21.9554H21.9035H21.8516H21.7997H21.7477H21.6958H21.6438H21.5919H21.5399H21.488H21.436H21.384H21.332H21.2801H21.2281H21.1761H21.1241H21.0722H21.0202H20.9682H20.9163H20.8643H20.8123H20.7604H20.7084H20.6565H20.6046H20.5526H20.5007H20.4488H20.3969H20.345H20.2931H20.2412H20.1894H20.1375H20.0857H20.0339H19.9821H19.9303H19.8785H19.8267H19.775H19.7233H19.6716H19.6199H19.5682H19.5166H19.4649H19.4133H19.3617H19.3102H19.2586H19.2071H19.1556H19.1042H19.0527H19.0013H18.9499H18.8986H18.8473H18.796H18.7447H18.6934H18.6422H18.5911H18.5399H18.4888H18.4377H18.3867H18.3357H18.2847H18.2338H18.1829H18.132H18.0812H18.0304H17.9796H17.9289H17.8783H17.8276H17.7771H17.7265H17.676H17.6256H17.5751H17.5248H17.4745H17.4242H17.374H17.3238H17.2737H17.2236H17.1735H17.1236H17.0736H17.0237H16.9739H16.9241H16.8744H16.8248H16.7751H16.7256H16.6761H16.6266H16.5773H16.5279H16.4787H16.4294H16.3803H16.3312H16.2822H16.2332H16.1843H16.1354H16.0867H16.038H15.9893H15.9407H15.8922H15.8437H15.7954H15.747H15.6988H15.6506H15.6025H15.5545H15.5065H15.4586H15.4108H15.363H15.3154H15.2678H15.2202H15.1728H15.1254H15.0781H15.0309H14.9838H14.9367H14.8897H14.8428H14.796H14.7492H14.7026H14.656H14.6095H14.5631H14.5168H14.4706H14.4244H14.3783H14.3324H14.2865H14.2407H14.195H14.1493H14.1038H14.0584H14.013H13.9678H13.9226H13.8775H13.8326H13.7877H13.7429H13.6982H13.6536H13.6091H13.5647H13.5204H13.4762H13.4321H13.3882H13.3443H13.3005H13.2568H13.2132H13.1697H13.1263H13.0831H13.0399H12.9968H12.9539H12.911H12.8683H12.8257H12.7831H12.7407H12.6984H12.6563H12.6142H12.5722H12.5304H12.4886H12.447H12.4055H12.3641H12.3229H12.2817H12.2407H12.1998H12.159H12.1183H12.0777H12.0373H11.997H11.9568H11.9167H11.8768H11.837H11.7973H11.7577H11.7182H11.6789H11.6397H11.6007H11.5618H11.523H11.4843H11.4457H11.4073H11.3691H11.3309H11.2929H11.255H11.2173H11.1797H11.1422H11.1049H11.0677H11.0306H10.9937H10.9569H10.9203H10.8838H10.8474H10.8112H10.7751H10.7392H10.7034H10.6677H10.6322H10.5969H10.5617H10.5266H10.4917H10.4569H10.4223H10.3878H10.3535H10.3193H10.2853H10.2515H10.1015L10.1015 31.8259L10.1015 32.5542ZM23.1952 34.4553H17.7731V32.7042H23.1952V34.4553Z" fill="#D2E45D" stroke="#D2E45D" stroke-width="0.3"/>
<path d="M10.1015 29.0264V29.1764H10.2515H10.2734H10.2957H10.3182H10.341H10.3641H10.3874H10.4111H10.435H10.4592H10.4837H10.5084H10.5334H10.5587H10.5843H10.6101H10.6362H10.6626H10.6892H10.7161H10.7433H10.7707H10.7984H10.8263H10.8545H10.883H10.9117H10.9407H10.9699H10.9994H11.0292H11.0591H11.0894H11.1199H11.1506H11.1816H11.2128H11.2443H11.276H11.308H11.3402H11.3726H11.4053H11.4382H11.4713H11.5047H11.5384H11.5722H11.6063H11.6406H11.6751H11.7099H11.7449H11.7801H11.8156H11.8513H11.8872H11.9233H11.9596H11.9962H12.033H12.07H12.1072H12.1446H12.1822H12.2201H12.2581H12.2964H12.3349H12.3736H12.4125H12.4515H12.4909H12.5304H12.5701H12.61H12.6501H12.6904H12.7309H12.7716H12.8125H12.8536H12.8948H12.9363H12.978H13.0198H13.0619H13.1041H13.1465H13.1891H13.2319H13.2749H13.318H13.3613H13.4048H13.4485H13.4924H13.5364H13.5806H13.625H13.6695H13.7143H13.7592H13.8042H13.8495H13.8948H13.9404H13.9861H14.032H14.0781H14.1243H14.1707H14.2172H14.2639H14.3107H14.3577H14.4049H14.4522H14.4996H14.5472H14.595H14.6429H14.6909H14.7391H14.7875H14.8359H14.8846H14.9333H14.9822H15.0313H15.0805H15.1298H15.1792H15.2288H15.2785H15.3284H15.3784H15.4285H15.4787H15.5291H15.5796H15.6302H15.681H15.7318H15.7828H15.8339H15.8851H15.9365H15.988H16.0395H16.0912H16.143H16.195H16.247H16.2991H16.3514H16.4037H16.4562H16.5088H16.5614H16.6142H16.6671H16.7201H16.7732H16.8263H16.8796H16.933H16.9865H17.04H17.0937H17.1474H17.2013H17.2552H17.3092H17.3633H17.4175H17.4718H17.5261H17.5806H17.6351H17.6897H17.7444H17.7991H17.854H17.9089H17.9638H18.0189H18.074H18.1292H18.1845H18.2399H18.2953H18.3507H18.4063H18.4619H18.5175H18.5733H18.6291H18.6849H18.7408H18.7968H18.8528H18.9089H18.965H19.0212H19.0774H19.1337H19.1901H19.2464H19.3029H19.3593H19.4159H19.4724H19.529H19.5857H19.6424H19.6991H19.7559H19.8127H19.8695H19.9264H19.9833H20.0402H20.0972H20.1542H20.2112H20.2683H20.3253H20.3824H20.4396H20.4967H20.5539H20.6111H20.6683H20.7255H20.7828H20.8401H20.8973H20.9546H21.0119H21.0692H21.1266H21.1839H21.2413H21.2986H21.356H21.4133H21.4707H21.5281H21.5854H21.6428H21.7002H21.7575H21.8149H21.8723H21.9296H21.987H22.0443H22.1016H22.1589H22.2162H22.2735H22.3308H22.3881H22.4453H22.5026H22.5598H22.617H22.6741H22.7313H22.7884H22.8455H22.9026H22.9596H23.0167H23.0737H23.1306H23.1876H23.2445H23.3013H23.3582H23.415H23.4717H23.5285H23.5851H23.6418H23.6984H23.755H23.8115H23.8679H23.9244H23.9808H24.0371H24.0934H24.1496H24.2058H24.2619H24.318H24.374H24.43H24.4859H24.5417H24.5975H24.6532H24.7089H24.7645H24.82H24.8755H24.9309H24.9862H25.0415H25.0967H25.1518H25.2069H25.2619H25.3168H25.3716H25.4263H25.481H25.5356H25.5901H25.6446H25.6989H25.7532H25.8074H25.8615H25.9155H25.9694H26.0232H26.077H26.1306H26.1842H26.2376H26.291H26.3443H26.3974H26.4505H26.5035H26.5564H26.6091H26.6618H26.7144H26.7668H26.8192H26.8714H26.9235H26.9756H27.0275H27.0793H27.131H27.1825H27.234H27.2853H27.3366H27.3877H27.4386H27.4895H27.5402H27.5908H27.6413H27.6917H27.7419H27.792H27.842H27.8918H27.9416H27.9911H28.0406H28.0899H28.1391H28.1881H28.237H28.2857H28.3344H28.3828H28.4312H28.4794H28.5274H28.5753H28.623H28.6706H28.7181H28.7654H28.8125H28.8595H28.9063H28.953H28.9995H29.0459H29.0921H29.1381H29.184H29.2297H29.2753H29.3206H29.3659H29.4109H29.4558H29.5005H29.545H29.5894H29.6336H29.6776H29.7215H29.7652H29.8086H29.852H29.8951H29.938H29.9808H30.0234H30.0658H30.108H30.15H30.1919H30.2335H30.275H30.3163H30.3573H30.3982H30.4389H30.4794H30.5197H30.5598H30.5997H30.6394H30.6789H30.7181H30.7572H30.7961H30.8348H30.8732H30.9115H30.9495H30.9874H31.025H31.0624H31.0996H31.1366H31.1733H31.2099H31.2462H31.2823H31.3182H31.3539H31.3893H31.4245H31.4595H31.4943H31.5288H31.5631H31.5972H31.631H31.6646H31.698H31.7311H31.764H31.7967H31.8291H31.8613H31.8932H31.9249H31.9564H31.9876H32.0185H32.0493H32.0797H32.11H32.1399H32.1697H32.1991H32.2283H32.2573H32.286H32.3145H32.3426H32.3706H32.3982H32.4256H32.4528H32.4797H32.5063H32.5326H32.5587H32.5845H32.6101H32.6354H32.6604H32.6851H32.7095H32.7337H32.7576H32.7812H32.8046H32.8277H32.8504H32.8729H32.8952H32.9171H32.9388H32.9601H32.9812H33.002H33.0225H33.0427H33.0626H33.0822H33.1015H33.1205H33.1393H33.1577H33.1758H33.1937H33.3437V29.0264V28.2981V28.1481H33.1937H33.1782H33.1624H33.1463H33.1299H33.1131H33.0961H33.0787H33.0611H33.0431H33.0248H33.0063H32.9874H32.9682H32.9487H32.9289H32.9088H32.8884H32.8678H32.8468H32.8255H32.804H32.7821H32.76H32.7375H32.7148H32.6918H32.6685H32.6449H32.621H32.5969H32.5725H32.5478H32.5228H32.4975H32.472H32.4461H32.4201H32.3937H32.3671H32.3401H32.313H32.2855H32.2578H32.2298H32.2016H32.1731H32.1443H32.1153H32.086H32.0564H32.0266H31.9966H31.9663H31.9357H31.9049H31.8738H31.8425H31.8109H31.7791H31.747H31.7147H31.6821H31.6493H31.6163H31.583H31.5494H31.5157H31.4817H31.4474H31.4129H31.3782H31.3433H31.3081H31.2727H31.2371H31.2012H31.1651H31.1288H31.0923H31.0555H31.0185H30.9813H30.9439H30.9062H30.8684H30.8303H30.792H30.7535H30.7148H30.6758H30.6367H30.5973H30.5578H30.518H30.478H30.4378H30.3975H30.3569H30.3161H30.2751H30.2339H30.1925H30.151H30.1092H30.0672H30.0251H29.9827H29.9402H29.8974H29.8545H29.8114H29.7681H29.7247H29.681H29.6372H29.5931H29.5489H29.5046H29.46H29.4153H29.3704H29.3253H29.28H29.2346H29.189H29.1432H29.0973H29.0512H29.0049H28.9585H28.9119H28.8652H28.8182H28.7712H28.7239H28.6765H28.629H28.5813H28.5334H28.4854H28.4373H28.389H28.3405H28.2919H28.2431H28.1942H28.1452H28.096H28.0467H27.9972H27.9476H27.8978H27.848H27.7979H27.7478H27.6975H27.6471H27.5965H27.5458H27.495H27.4441H27.393H27.3418H27.2905H27.2391H27.1875H27.1358H27.084H27.0321H26.9801H26.9279H26.8756H26.8233H26.7708H26.7182H26.6654H26.6126H26.5597H26.5067H26.4535H26.4003H26.3469H26.2935H26.2399H26.1862H26.1325H26.0786H26.0247H25.9707H25.9165H25.8623H25.808H25.7536H25.6991H25.6445H25.5898H25.5351H25.4802H25.4253H25.3703H25.3152H25.2601H25.2048H25.1495H25.0941H25.0386H24.9831H24.9275H24.8718H24.8161H24.7602H24.7043H24.6484H24.5924H24.5363H24.4801H24.4239H24.3676H24.3113H24.2549H24.1985H24.142H24.0854H24.0288H23.9721H23.9154H23.8586H23.8018H23.745H23.6881H23.6311H23.5741H23.5171H23.46H23.4029H23.3457H23.2885H23.2313H23.174H23.1167H23.0594H23.002H22.9446H22.8872H22.8297H22.7722H22.7147H22.6572H22.5996H22.542H22.4844H22.4268H22.3691H22.3115H22.2538H22.1961H22.1384H22.0807H22.0229H21.9652H21.9074H21.8497H21.7919H21.7341H21.6763H21.6185H21.5607H21.503H21.4452H21.3874H21.3296H21.2718H21.214H21.1562H21.0985H21.0407H20.9829H20.9252H20.8675H20.8098H20.7521H20.6944H20.6367H20.579H20.5214H20.4638H20.4062H20.3486H20.2911H20.2335H20.176H20.1186H20.0611H20.0037H19.9463H19.889H19.8316H19.7744H19.7171H19.6599H19.6027H19.5456H19.4885H19.4314H19.3744H19.3174H19.2605H19.2036H19.1468H19.09H19.0333H18.9766H18.9199H18.8633H18.8068H18.7503H18.6939H18.6376H18.5813H18.525H18.4688H18.4127H18.3567H18.3007H18.2448H18.1889H18.1331H18.0774H18.0217H17.9662H17.9107H17.8552H17.7999H17.7446H17.6894H17.6343H17.5792H17.5243H17.4694H17.4146H17.3599H17.3053H17.2507H17.1963H17.1419H17.0876H17.0335H16.9794H16.9254H16.8715H16.8177H16.764H16.7104H16.6569H16.6035H16.5502H16.497H16.4439H16.3909H16.3381H16.2853H16.2326H16.1801H16.1276H16.0753H16.0231H15.971H15.919H15.8672H15.8154H15.7638H15.7123H15.6609H15.6097H15.5586H15.5076H15.4567H15.4059H15.3553H15.3048H15.2545H15.2043H15.1542H15.1042H15.0544H15.0047H14.9552H14.9058H14.8566H14.8074H14.7585H14.7096H14.661H14.6124H14.5641H14.5158H14.4677H14.4198H14.372H14.3244H14.2769H14.2296H14.1825H14.1355H14.0887H14.042H13.9955H13.9491H13.9029H13.8569H13.8111H13.7654H13.7199H13.6746H13.6294H13.5844H13.5396H13.495H13.4505H13.4062H13.3621H13.3182H13.2744H13.2309H13.1875H13.1443H13.1013H13.0585H13.0158H12.9734H12.9311H12.8891H12.8472H12.8055H12.7641H12.7228H12.6817H12.6408H12.6001H12.5597H12.5194H12.4793H12.4394H12.3998H12.3603H12.3211H12.282H12.2432H12.2046H12.1662H12.128H12.0901H12.0523H12.0148H11.9775H11.9404H11.9035H11.8668H11.8304H11.7942H11.7582H11.7225H11.687H11.6517H11.6166H11.5818H11.5472H11.5129H11.4788H11.4449H11.4112H11.3778H11.3447H11.3117H11.2791H11.2466H11.2144H11.1825H11.1508H11.1193H11.0881H11.0572H11.0265H10.9961H10.9659H10.9359H10.9063H10.8769H10.8477H10.8188H10.7902H10.7618H10.7337H10.7059H10.6783H10.651H10.6239H10.5972H10.5707H10.5445H10.5185H10.4928H10.4674H10.4423H10.4175H10.3929H10.3686H10.3446H10.3209H10.2975H10.2743H10.2515H10.1015V28.2981V29.0264Z" fill="#D2E45D" stroke="#D2E45D" stroke-width="0.3"/>
<path d="M1.2875 26.1715H1.28749L1.28751 26.1733L1.40185 35.8017C1.40185 35.8017 1.40185 35.8017 1.40185 35.8018C1.41275 36.7358 2.14479 37.5139 3.06739 37.5249L3.06739 37.5249H3.06918H8.45104C9.43742 37.5249 10.236 36.7122 10.236 35.7171V23.7334H19.2028C19.4867 23.7334 19.7169 23.5033 19.7169 23.2193C19.7169 22.9354 19.4867 22.7052 19.2028 22.7052H10.1461C9.8984 21.9095 9.18818 21.4442 8.45104 21.4442H3.06917C2.08473 21.4442 1.2875 22.2555 1.2875 23.2485V26.1715ZM2.42016 35.7897L2.42016 35.7897L2.30583 26.1672V26.1663V23.2485C2.30583 22.8187 2.65028 22.4725 3.06918 22.4725H8.45104C8.87467 22.4725 9.21772 22.8233 9.21772 23.2517V35.7171C9.21772 36.1487 8.87165 36.4967 8.45104 36.4967H3.0593C2.72301 36.492 2.42478 36.1856 2.42016 35.7897Z" fill="#D2E45D" stroke="#D2E45D" stroke-width="0.3"/>
<path d="M4.71512 23.766H6.8068C7.08988 23.766 7.31597 23.534 7.31597 23.2518C7.31597 22.9696 7.08988 22.7377 6.8068 22.7377H4.71512C4.43204 22.7377 4.20596 22.9696 4.20596 23.2518C4.20596 23.534 4.43205 23.766 4.71512 23.766Z" fill="#D2E45D" stroke="#D2E45D" stroke-width="0.3"/>
<path d="M5.56647 35.0582L5.56647 35.0582L5.56548 35.0586C5.50735 35.083 5.44962 35.1192 5.40062 35.1728C5.30484 35.2672 5.25088 35.3991 5.25088 35.5319C5.25088 35.6709 5.30659 35.7987 5.40057 35.8943C5.49574 35.9956 5.62584 36.046 5.76004 36.046C5.89578 36.046 6.02448 35.9946 6.12185 35.8957C6.21904 35.7973 6.26921 35.6679 6.26921 35.5319C6.26921 35.3976 6.21409 35.2653 6.12197 35.1717L6.12197 35.1717L6.12174 35.1715C5.9789 35.0269 5.75629 34.98 5.56647 35.0582Z" fill="#D2E45D" stroke="#D2E45D" stroke-width="0.3"/>
<path d="M33.8983 26.1715H33.8983L33.8984 26.1733L34.0125 35.8018L34.0125 35.8018C34.0238 36.7358 34.7558 37.5139 35.6782 37.5249L35.6782 37.5249H35.68H42.9277C43.9141 37.5249 44.7127 36.7122 44.7127 35.7171V23.2517C44.7127 22.2579 43.9148 21.4442 42.9277 21.4442H35.68C34.6956 21.4442 33.8983 22.2555 33.8983 23.2485V26.1715ZM35.0308 35.7896L34.9167 26.1672V26.1663V23.2485C34.9167 22.8187 35.2611 22.4725 35.68 22.4725H42.9277C43.3501 22.4725 43.6944 22.8221 43.6944 23.2517V35.7171C43.6944 36.1487 43.3483 36.4967 42.9277 36.4967H35.6701C35.3339 36.492 35.0356 36.1857 35.0308 35.7897C35.0308 35.7897 35.0308 35.7896 35.0308 35.7896Z" fill="#D2E45D" stroke="#D2E45D" stroke-width="0.3"/>
<path d="M40.3512 22.7377H38.2596C37.9765 22.7377 37.7504 22.9696 37.7504 23.2518C37.7504 23.534 37.9765 23.766 38.2596 23.766H40.3512C40.6343 23.766 40.8604 23.534 40.8604 23.2518C40.8604 22.9696 40.6343 22.7377 40.3512 22.7377Z" fill="#D2E45D" stroke="#D2E45D" stroke-width="0.3"/>
<path d="M38.9441 35.1716L38.9441 35.1716L38.9436 35.1721C38.7512 35.3682 38.7437 35.6934 38.9439 35.8959C39.1411 36.0963 39.4694 36.0969 39.6674 35.896C39.8681 35.6933 39.8596 35.3671 39.6676 35.1719L39.6674 35.1718C39.4893 34.9912 39.17 34.9435 38.9441 35.1716Z" fill="#D2E45D" stroke="#D2E45D" stroke-width="0.3"/>
</svg>
