<svg width="46" height="46" viewBox="0 0 46 46" fill="none" xmlns="http://www.w3.org/2000/svg">
<path d="M42.1296 22.5253L40.5013 21.5165C40.4875 21.3577 40.472 21.1994 40.4549 21.0418L41.8569 19.7363C41.9994 19.6035 42.0632 19.4069 42.0246 19.217C41.9871 19.026 41.8532 18.8688 41.6711 18.8016L39.8796 18.1341C39.8347 17.979 39.7876 17.8251 39.7394 17.6705L40.8558 16.1202C40.9697 15.9626 40.9931 15.7575 40.9189 15.5787C40.8447 15.3996 40.6826 15.2712 40.4923 15.2397L38.6044 14.9326C38.531 14.7895 38.4546 14.6485 38.3774 14.5098L39.1712 12.7667C39.2524 12.5894 39.2357 12.3847 39.1274 12.2215C39.0195 12.0598 38.8366 11.9652 38.6415 11.9727L36.7239 12.0394C36.6249 11.9155 36.524 11.7928 36.4212 11.6722L36.8626 9.80672C36.9071 9.6172 36.8511 9.41729 36.7131 9.28007C36.5763 9.14284 36.3775 9.0861 36.1864 9.1306L34.3208 9.57195C34.1998 9.46959 34.0771 9.36834 33.9528 9.26931L34.02 7.35187C34.0274 7.1579 33.9328 6.97357 33.7711 6.86602C33.609 6.75772 33.4039 6.7414 33.2258 6.82188L31.4863 7.61556C31.3457 7.53842 31.2047 7.46202 31.0634 7.38821L30.7556 5.50044C30.7244 5.30907 30.5961 5.14662 30.4165 5.07393C30.2374 4.99938 30.0308 5.02349 29.875 5.13698L28.3246 6.25332C28.1718 6.20474 28.0182 6.15801 27.8647 6.1135L27.197 4.32216C27.1292 4.13968 26.9719 4.0058 26.7816 3.96797C26.591 3.93051 26.3959 3.99393 26.2623 4.1356L24.9567 5.53753C24.7991 5.5201 24.6404 5.50415 24.482 5.49117L23.4731 3.8593C23.3711 3.69426 23.1905 3.59375 22.9946 3.59375C22.7988 3.59375 22.62 3.69426 22.5199 3.8593L21.511 5.49117C21.3522 5.50415 21.1935 5.5201 21.0362 5.53753L19.7306 4.1356C19.5982 3.99393 19.4016 3.93051 19.2113 3.96797C19.0203 4.00617 18.863 4.13968 18.7959 4.32216L18.1283 6.1135C17.9732 6.15801 17.8197 6.20511 17.6683 6.25332L16.1179 5.13698C15.9603 5.02312 15.7548 4.99901 15.5764 5.07393C15.3973 5.1481 15.2685 5.31055 15.2374 5.50044L14.9295 7.38821C14.7871 7.46202 14.6462 7.53805 14.5067 7.61556L12.7671 6.82188C12.5902 6.74103 12.3851 6.75772 12.2219 6.86602C12.0602 6.97357 11.9656 7.1579 11.973 7.35187L12.0398 9.26931C11.9159 9.36834 11.7931 9.46959 11.6718 9.57195L9.80614 9.1306C9.6166 9.08647 9.41668 9.14284 9.27944 9.28007C9.14147 9.41766 9.08546 9.61609 9.12997 9.80672L9.56764 11.6722C9.46564 11.7931 9.36475 11.9155 9.26572 12.0394L7.34811 11.9727C7.15487 11.9671 6.96978 12.0598 6.86222 12.2215C6.75391 12.3825 6.73759 12.5887 6.81808 12.7667L7.61183 14.5098C7.53468 14.6497 7.45827 14.7906 7.38446 14.9326L5.49652 15.2397C5.30476 15.2709 5.14305 15.3992 5.06998 15.5787C4.99579 15.7586 5.0199 15.9644 5.13303 16.1202L6.24947 17.6705C6.20088 17.8236 6.15378 17.9776 6.10927 18.1341L4.31777 18.8016C4.13602 18.8695 4.00212 19.0268 3.96429 19.217C3.92646 19.4077 3.98988 19.6027 4.13194 19.7363L5.53399 21.0418C5.51655 21.1994 5.50097 21.3581 5.48762 21.5165L3.85932 22.5253C3.69427 22.6273 3.59375 22.8075 3.59375 23.0037C3.59375 23.1999 3.69427 23.3783 3.85932 23.4784L5.48762 24.4872C5.50097 24.646 5.51655 24.8043 5.53399 24.9619L4.13194 26.2674C3.98988 26.3998 3.92646 26.5964 3.96429 26.7867C4.00212 26.9777 4.13602 27.1346 4.31777 27.2021L6.10927 27.8696C6.15378 28.0247 6.20088 28.1786 6.24947 28.3332L5.13303 29.8835C5.01953 30.0415 4.99542 30.2466 5.06998 30.425C5.14453 30.6049 5.30662 30.7332 5.50023 30.764L7.38817 31.0711C7.46198 31.2142 7.53765 31.3552 7.61554 31.4939L6.82179 33.2333C6.74093 33.4102 6.75762 33.6153 6.86593 33.7785C6.97423 33.9406 7.15858 34.0351 7.35182 34.0273L9.26572 33.9602C9.3655 34.0848 9.46601 34.2069 9.56839 34.3281L9.13071 36.1937C9.0862 36.3828 9.14221 36.5794 9.28019 36.7166C9.41705 36.8549 9.61623 36.9102 9.80688 36.8657L11.6726 36.428C11.7939 36.5312 11.9166 36.6313 12.0405 36.7299L11.9737 38.6474C11.9663 38.8414 12.0609 39.0257 12.2226 39.1332C12.3836 39.2412 12.5898 39.2575 12.7679 39.1766L14.5074 38.383C14.6476 38.4608 14.7886 38.5365 14.9303 38.6103L15.2381 40.4981C15.2693 40.6902 15.3976 40.8526 15.5771 40.9283C15.7563 41.0028 15.9629 40.9787 16.1187 40.8656L17.6691 39.7493C17.8223 39.7979 17.9762 39.8453 18.1327 39.8898L18.8004 41.6812C18.8682 41.8629 19.0255 41.9975 19.2158 42.0346C19.4064 42.0732 19.6015 42.0094 19.7351 41.867L21.0407 40.4651C21.1983 40.4832 21.357 40.4984 21.5154 40.5125L22.5243 42.1407C22.6259 42.305 22.8066 42.4062 22.9991 42.4062C23.1916 42.4062 23.3737 42.3054 23.4775 42.1407L24.4864 40.5125C24.6452 40.4984 24.8036 40.4832 24.9612 40.4651L26.2668 41.867C26.3992 42.0094 26.5958 42.0732 26.7861 42.0346C26.9771 41.9972 27.1344 41.8629 27.2015 41.6812L27.8691 39.8898C28.0242 39.8453 28.1781 39.7979 28.3328 39.7493L29.8832 40.8656C30.0408 40.9787 30.2463 41.0028 30.4247 40.9283C30.6042 40.8545 30.7326 40.6917 30.7637 40.4981L31.0716 38.6103C31.214 38.5365 31.355 38.4597 31.4944 38.383L33.234 39.1766C33.4109 39.2575 33.616 39.2412 33.7792 39.1332C33.9409 39.0249 34.0352 38.8414 34.0281 38.6474L33.9613 36.7299C34.0852 36.6309 34.208 36.5312 34.3289 36.428L36.1946 36.8657C36.3841 36.9102 36.5841 36.8549 36.7213 36.7166C36.8593 36.579 36.9153 36.3813 36.8708 36.1937L36.4331 34.3281C36.5355 34.2069 36.6364 34.0848 36.735 33.9602L38.6526 34.0273C38.8459 34.0351 39.031 33.9406 39.1385 33.7785C39.2468 33.6168 39.2635 33.4109 39.1823 33.2333L38.3885 31.4939C38.4661 31.3533 38.5421 31.2124 38.6155 31.0711L40.5035 30.764C40.6956 30.7332 40.8573 30.6049 40.93 30.425C41.0042 30.2459 40.9808 30.0393 40.867 29.8835L39.7505 28.3332C39.7987 28.1801 39.8458 28.0262 39.8907 27.8696L41.6822 27.2021C41.8643 27.1338 41.9986 26.9769 42.0357 26.7867C42.0743 26.596 42.0105 26.401 41.8681 26.2674L40.466 24.9619C40.4831 24.8043 40.4987 24.6456 40.5124 24.4872L42.1407 23.4784C42.3057 23.3768 42.4062 23.1962 42.4062 23.0037C42.4062 22.8112 42.3061 22.6291 42.141 22.5253H42.1296ZM31.2248 36.0624C30.6016 35.9281 30.2085 35.3132 30.342 34.6901C30.4752 34.067 31.0875 33.6702 31.7107 33.8037C32.3338 33.9369 32.7307 34.5529 32.5971 35.176C32.4636 35.799 31.8516 36.1959 31.2285 36.0624H31.2248ZM30.6721 32.3165C30.1046 32.1948 29.5445 32.5561 29.4258 33.125L28.8472 35.825C27.0631 36.6335 25.0639 37.086 22.9868 37.086C20.8504 37.086 18.8326 36.615 17.0152 35.7694L16.4365 33.0694C16.3149 32.5019 15.7578 32.1385 15.1903 32.2609L12.8053 32.7727C12.3639 32.3165 11.9522 31.8306 11.5739 31.3188H23.1834C23.3147 31.3188 23.4023 31.2951 23.4023 31.1757V27.0589C23.4023 26.9395 23.3147 26.9157 23.1834 26.9157H19.7896V24.3159H23.4579C23.7928 24.3159 25.2494 24.4116 25.713 26.2741C25.8588 26.8453 26.1804 28.7071 26.3992 29.3042C26.6173 29.9718 27.5045 31.3069 28.4503 31.3069H34.2366C34.3022 31.3069 34.3723 31.2995 34.4461 31.2862C34.0455 31.8314 33.6042 32.3469 33.1331 32.829L30.6925 32.3061L30.6721 32.3165ZM14.6117 36.0067C13.9885 36.141 13.3765 35.7441 13.243 35.1203C13.1098 34.4973 13.5056 33.8816 14.1295 33.7481C14.7526 33.6149 15.3646 34.0118 15.4981 34.6345C15.6313 35.2576 15.2352 35.8732 14.6117 36.0067ZM10.1978 18.1674C10.456 18.7497 10.1934 19.4321 9.61178 19.6918C9.02945 19.9503 8.35068 19.6873 8.09105 19.1058C7.83141 18.5242 8.0955 17.8411 8.67709 17.5815C9.25942 17.3233 9.93818 17.5859 10.1978 18.1674ZM8.84399 21.3718L11.3291 20.2666C11.8595 20.0311 12.1006 19.4099 11.8632 18.8795L11.3514 17.7224H13.3617V26.7718H9.31876C8.96677 25.5331 8.77723 24.2276 8.77723 22.8776C8.77723 22.3621 8.80505 21.854 8.85846 21.3533L8.84399 21.3718ZM19.7488 20.4929V17.8225H24.5335C24.7809 17.8225 26.2805 18.1085 26.2805 19.2282C26.2805 20.1591 25.1307 20.4929 24.1849 20.4929H19.7339H19.7488ZM37.1445 22.8962C37.1445 23.2507 37.1315 23.6008 37.1056 23.9495H35.6479C35.5021 23.9495 35.4435 24.0451 35.4435 24.1879V24.8555C35.4435 26.428 34.557 26.773 33.7781 26.8583C33.0363 26.9417 32.2166 26.5482 32.1164 26.0942C31.6788 23.6353 30.9518 23.1124 29.8019 22.2C31.23 21.2951 32.7136 19.9562 32.7136 18.1574C32.7136 16.2252 31.3895 15.0087 30.4881 14.4116C29.2196 13.5771 27.8176 13.4102 27.4392 13.4102H12.3803C14.424 11.133 17.2021 9.51595 20.3178 8.92254L22.0944 10.7844C22.495 11.2034 23.1589 11.222 23.5818 10.8185L25.5699 8.91957C29.7241 9.69471 33.2477 12.2834 35.2877 15.855L33.9265 18.9259C33.6917 19.4562 33.9313 20.0793 34.4606 20.313L37.0792 21.4775C37.1245 21.9411 37.1482 22.4122 37.1482 22.8869L37.1445 22.8962ZM22.0855 7.35632C22.5454 6.91497 23.2761 6.93352 23.7138 7.39378C24.1515 7.85367 24.1367 8.5843 23.6756 9.02564C23.2157 9.46699 22.485 9.44845 22.0473 8.98782C21.6096 8.52793 21.6245 7.79729 22.0855 7.35595V7.35632ZM35.5867 18.2231C35.8445 17.6408 36.5251 17.3775 37.1074 17.6371C37.6897 17.8952 37.9531 18.5791 37.6935 19.1614C37.4357 19.7437 36.7551 20.007 36.1727 19.7474C35.5904 19.4893 35.327 18.8054 35.5867 18.2231Z" fill="#D2E45D"/>
</svg>
