<svg width="46" height="46" viewBox="0 0 46 46" fill="none" xmlns="http://www.w3.org/2000/svg">
<path d="M41.7168 20.157C41.2769 20.1552 40.849 20.3 40.5006 20.5687C40.1523 20.8373 39.9035 21.2144 39.7935 21.6403H37.2893C36.1847 21.6403 35.2893 22.5358 35.2893 23.6403V25.3485H33.806V12.9879H39.2991C39.4194 13.4539 39.7056 13.8601 40.104 14.1303C40.5024 14.4004 40.9856 14.516 41.4632 14.4554C41.9407 14.3947 42.3797 14.162 42.6979 13.8008C43.0161 13.4396 43.1917 12.9748 43.1917 12.4934C43.1917 12.0121 43.0161 11.5472 42.6979 11.1861C42.3797 10.8249 41.9407 10.5921 41.4632 10.5315C40.9856 10.4708 40.5024 10.5864 40.104 10.8566C39.7056 11.1267 39.4194 11.5329 39.2991 11.999H33.806V5.59375C33.806 4.48918 32.9106 3.59375 31.806 3.59375H13.5568C12.4522 3.59375 11.5568 4.48918 11.5568 5.59375V11.999H7.84858V8.4688C8.31465 8.34846 8.72084 8.06227 8.991 7.66387C9.26116 7.26547 9.37675 6.78222 9.31609 6.30469C9.25544 5.82717 9.02271 5.38816 8.66153 5.06995C8.30035 4.75174 7.83551 4.57618 7.35415 4.57618C6.87279 4.57618 6.40795 4.75174 6.04677 5.06995C5.68559 5.38816 5.45286 5.82717 5.39221 6.30469C5.33155 6.78222 5.44714 7.26547 5.7173 7.66387C5.98746 8.06227 6.39365 8.34846 6.85972 8.4688V10.9879C6.85972 12.0924 7.75515 12.9879 8.85972 12.9879H11.5568V21.6403H6.29608C6.17574 21.1743 5.88954 20.7681 5.49115 20.4979C5.09275 20.2277 4.60949 20.1122 4.13197 20.1728C3.65445 20.2335 3.21544 20.4662 2.89723 20.8274C2.57902 21.1886 2.40346 21.6534 2.40346 22.1348C2.40346 22.6161 2.57902 23.081 2.89723 23.4421C3.21544 23.8033 3.65445 24.036 4.13197 24.0967C4.60949 24.1574 5.09275 24.0418 5.49115 23.7716C5.88954 23.5014 6.17574 23.0953 6.29608 22.6292H11.5568V30.54H10.8374C9.73286 30.54 8.83743 31.4354 8.83743 32.54V34.2482H6.04886C5.92852 33.7821 5.64233 33.3759 5.24393 33.1058C4.84553 32.8356 4.36228 32.72 3.88476 32.7807C3.40723 32.8413 2.96822 33.0741 2.65001 33.4353C2.33181 33.7964 2.15625 34.2613 2.15625 34.7426C2.15625 35.224 2.33181 35.6888 2.65001 36.05C2.96822 36.4112 3.40723 36.6439 3.88476 36.7046C4.36228 36.7652 4.84553 36.6496 5.24393 36.3795C5.64233 36.1093 5.92852 35.7031 6.04886 35.2371H7.82628C8.93085 35.2371 9.82628 34.3416 9.82628 33.2371V31.5289H11.5568V36.4508C11.5568 37.5554 12.4522 38.4508 13.5568 38.4508H31.806C32.9106 38.4508 33.806 37.5554 33.806 36.4508V32.2705H38.2558V36.0479C37.7897 36.1683 37.3836 36.4545 37.1134 36.8529C36.8432 37.2513 36.7276 37.7345 36.7883 38.212C36.849 38.6896 37.0817 39.1286 37.4429 39.4468C37.8041 39.765 38.2689 39.9405 38.7502 39.9405C39.2316 39.9405 39.6964 39.765 40.0576 39.4468C40.4188 39.1286 40.6515 38.6896 40.7122 38.212C40.7728 37.7345 40.6573 37.2513 40.3871 36.8529C40.1169 36.4545 39.7108 36.1683 39.2447 36.0479V33.2816C39.2447 32.1771 38.3492 31.2816 37.2447 31.2816H33.806V26.3374H34.2781C35.3827 26.3374 36.2781 25.4419 36.2781 24.3374V22.6292H39.7935C39.8861 22.9878 40.0775 23.3132 40.346 23.5683C40.6145 23.8235 40.9492 23.9981 41.3121 24.0723C41.675 24.1465 42.0514 24.1174 42.3985 23.9881C42.7456 23.8589 43.0494 23.6348 43.2754 23.3413C43.5013 23.0478 43.6404 22.6968 43.6766 22.3282C43.7128 21.9596 43.6448 21.5883 43.4804 21.2564C43.3159 20.9246 43.0615 20.6456 42.7462 20.4512C42.4309 20.2568 42.0674 20.1549 41.697 20.157H41.7168ZM41.2224 11.5046C41.418 11.5046 41.6091 11.5626 41.7718 11.6712C41.9344 11.7799 42.0611 11.9343 42.136 12.115C42.2108 12.2957 42.2304 12.4945 42.1922 12.6863C42.1541 12.8782 42.0599 13.0544 41.9216 13.1927C41.7833 13.3309 41.6071 13.4251 41.4153 13.4633C41.2235 13.5014 41.0247 13.4819 40.844 13.407C40.6633 13.3322 40.5088 13.2054 40.4002 13.0428C40.2915 12.8802 40.2335 12.689 40.2335 12.4934C40.2335 12.2312 40.3377 11.9797 40.5232 11.7942C40.7086 11.6088 40.9601 11.5046 41.2224 11.5046ZM6.3653 6.56031C6.3653 6.36473 6.42329 6.17355 6.53195 6.01093C6.6406 5.84832 6.79504 5.72157 6.97573 5.64673C7.15642 5.57188 7.35525 5.5523 7.54707 5.59046C7.73888 5.62861 7.91508 5.72279 8.05338 5.86109C8.19167 5.99938 8.28585 6.17558 8.324 6.36739C8.36216 6.55921 8.34258 6.75804 8.26773 6.93873C8.19289 7.11942 8.06614 7.27386 7.90353 7.38251C7.74091 7.49117 7.54973 7.54916 7.35415 7.54916C7.09189 7.54916 6.84037 7.44498 6.65492 7.25954C6.46948 7.07409 6.3653 6.82257 6.3653 6.56031ZM4.38759 23.1236C4.19201 23.1236 4.00083 23.0656 3.83821 22.957C3.6756 22.8483 3.54885 22.6939 3.47401 22.5132C3.39916 22.3325 3.37958 22.1337 3.41774 21.9418C3.45589 21.75 3.55007 21.5738 3.68836 21.4355C3.82666 21.2972 4.00286 21.2031 4.19467 21.1649C4.38649 21.1267 4.58532 21.1463 4.76601 21.2212C4.9467 21.296 5.10113 21.4228 5.20979 21.5854C5.31845 21.748 5.37644 21.9392 5.37644 22.1348C5.37644 22.397 5.27226 22.6485 5.08681 22.834C4.90137 23.0194 4.64985 23.1236 4.38759 23.1236ZM4.14038 35.7315C3.9448 35.7315 3.75361 35.6735 3.591 35.5648C3.42838 35.4562 3.30164 35.3017 3.22679 35.1211C3.15195 34.9404 3.13237 34.7415 3.17052 34.5497C3.20868 34.3579 3.30286 34.1817 3.44115 34.0434C3.57944 33.9051 3.75564 33.8109 3.94746 33.7728C4.13928 33.7346 4.3381 33.7542 4.51879 33.8291C4.69948 33.9039 4.85392 34.0306 4.96258 34.1933C5.07123 34.3559 5.12923 34.5471 5.12923 34.7426C5.12923 35.0049 5.02505 35.2564 4.8396 35.4419C4.65416 35.6273 4.40264 35.7315 4.14038 35.7315ZM39.7391 37.9564C39.7391 38.152 39.6811 38.3432 39.5724 38.5058C39.4638 38.6684 39.3094 38.7951 39.1287 38.87C38.948 38.9448 38.7491 38.9644 38.5573 38.9263C38.3655 38.8881 38.1893 38.7939 38.051 38.6556C37.9127 38.5173 37.8186 38.3411 37.7804 38.1493C37.7422 37.9575 37.7618 37.7587 37.8367 37.578C37.9115 37.3973 38.0383 37.2429 38.2009 37.1342C38.3635 37.0256 38.5547 36.9676 38.7502 36.9676C39.0125 36.9676 39.264 37.0717 39.4495 37.2572C39.6349 37.4426 39.7391 37.6941 39.7391 37.9564ZM12.5456 4.5826H32.8171V9.27966H12.5456V4.5826ZM32.8171 37.462H12.5456V10.2685H32.8171V37.462ZM41.7168 23.1236C41.5212 23.1236 41.33 23.0656 41.1674 22.957C41.0048 22.8483 40.8781 22.6939 40.8032 22.5132C40.7284 22.3325 40.7088 22.1337 40.747 21.9418C40.7851 21.75 40.8793 21.5738 41.0176 21.4355C41.1559 21.2972 41.3321 21.2031 41.5239 21.1649C41.7157 21.1267 41.9145 21.1463 42.0952 21.2212C42.2759 21.296 42.4304 21.4228 42.539 21.5854C42.6477 21.748 42.7057 21.9392 42.7057 22.1348C42.7057 22.397 42.6015 22.6485 42.416 22.834C42.2306 23.0194 41.9791 23.1236 41.7168 23.1236Z" fill="#D2E45D" stroke="#D2E45D" stroke-width="0.4"/>
<path d="M28.8617 16.449H16.501C16.228 16.449 16.0066 16.6703 16.0066 16.9434C16.0066 17.2165 16.228 17.4378 16.501 17.4378H28.8617C29.1348 17.4378 29.3561 17.2165 29.3561 16.9434C29.3561 16.6703 29.1348 16.449 28.8617 16.449Z" fill="#D2E45D" stroke="#D2E45D" stroke-width="0.4"/>
<path d="M28.8617 20.157H16.501C16.228 20.157 16.0066 20.3783 16.0066 20.6514C16.0066 20.9245 16.228 21.1458 16.501 21.1458H28.8617C29.1348 21.1458 29.3561 20.9245 29.3561 20.6514C29.3561 20.3783 29.1348 20.157 28.8617 20.157Z" fill="#D2E45D" stroke="#D2E45D" stroke-width="0.4"/>
<path d="M28.8617 23.8652H16.501C16.228 23.8652 16.0066 24.0866 16.0066 24.3597C16.0066 24.6327 16.228 24.8541 16.501 24.8541H28.8617C29.1348 24.8541 29.3561 24.6327 29.3561 24.3597C29.3561 24.0866 29.1348 23.8652 28.8617 23.8652Z" fill="#D2E45D" stroke="#D2E45D" stroke-width="0.4"/>
<path d="M22.1869 32.0232H16.501C16.228 32.0232 16.0066 32.2446 16.0066 32.5176C16.0066 32.7907 16.228 33.012 16.501 33.012H22.1869C22.46 33.012 22.6814 32.7907 22.6814 32.5176C22.6814 32.2446 22.46 32.0232 22.1869 32.0232Z" fill="#D2E45D" stroke="#D2E45D" stroke-width="0.4"/>
<path d="M30.8394 5.8186H29.3561C28.9465 5.8186 28.6145 6.15065 28.6145 6.56024C28.6145 6.96984 28.9465 7.30188 29.3561 7.30188H30.8394C31.249 7.30188 31.5811 6.96984 31.5811 6.56024C31.5811 6.15065 31.249 5.8186 30.8394 5.8186Z" fill="#D2E45D" stroke="#D2E45D" stroke-width="0.4"/>
<path d="M27.1312 26.8318C26.5934 26.8318 26.0676 26.9913 25.6204 27.2901C25.1732 27.5889 24.8247 28.0136 24.6189 28.5105C24.413 29.0074 24.3592 29.5542 24.4641 30.0817C24.569 30.6092 24.828 31.0937 25.2083 31.474C25.5887 31.8543 26.0732 32.1133 26.6007 32.2182C27.1282 32.3232 27.675 32.2693 28.1719 32.0635C28.6688 31.8577 29.0935 31.5091 29.3923 31.0619C29.6911 30.6147 29.8506 30.089 29.8506 29.5511C29.8493 28.8303 29.5623 28.1394 29.0526 27.6297C28.5429 27.12 27.852 26.8331 27.1312 26.8318ZM27.1312 31.2816C26.789 31.2816 26.4544 31.1801 26.1698 30.99C25.8852 30.7998 25.6634 30.5296 25.5324 30.2134C25.4015 29.8972 25.3672 29.5492 25.434 29.2135C25.5007 28.8778 25.6656 28.5695 25.9076 28.3275C26.1496 28.0855 26.4579 27.9207 26.7936 27.8539C27.1293 27.7871 27.4772 27.8214 27.7934 27.9524C28.1097 28.0833 28.3799 28.3051 28.5701 28.5897C28.7602 28.8743 28.8617 29.2089 28.8617 29.5511C28.8617 30.0101 28.6794 30.4502 28.3549 30.7748C28.0303 31.0993 27.5902 31.2816 27.1312 31.2816Z" fill="#D2E45D" stroke="#D2E45D" stroke-width="0.4"/>
<path d="M27.7652 32.6388C27.5268 32.7769 27.445 33.0818 27.5823 33.3207L27.9401 33.9433C28.1251 34.2653 28.5843 34.2803 28.79 33.971L28.8329 33.9064C28.9196 33.776 29.0624 33.6938 29.2186 33.6842L29.2915 33.6797C29.6622 33.657 29.8796 33.2523 29.6938 32.9306L29.3346 32.3085C29.1964 32.0692 28.8902 31.9874 28.651 32.1259L27.7652 32.6388Z" fill="#D2E45D" stroke="#D2E45D" stroke-width="0.4"/>
<path d="M24.5687 32.9304C24.3829 33.2521 24.6004 33.6569 24.9711 33.6795L25.0475 33.6842C25.2044 33.6938 25.3477 33.7767 25.4343 33.9079L25.4741 33.9682C25.6788 34.2786 26.1386 34.2649 26.3245 33.943L26.6833 33.3216C26.8214 33.0824 26.7395 32.7766 26.5004 32.6385L25.6111 32.125C25.372 31.9869 25.0662 32.0689 24.9281 32.308L24.5687 32.9304Z" fill="#D2E45D" stroke="#D2E45D" stroke-width="0.4"/>
<path d="M31.8282 39.4397H28.3672C28.0942 39.4397 27.8728 39.6611 27.8728 39.9341C27.8728 40.2072 28.0942 40.4286 28.3672 40.4286H31.8282C32.1013 40.4286 32.3226 40.2072 32.3226 39.9341C32.3226 39.6611 32.1013 39.4397 31.8282 39.4397Z" fill="#D2E45D" stroke="#D2E45D" stroke-width="0.4"/>
<path d="M31.8282 41.4175H28.3672C28.0942 41.4175 27.8728 41.6388 27.8728 41.9119C27.8728 42.185 28.0942 42.4063 28.3672 42.4063H31.8282C32.1013 42.4063 32.3226 42.185 32.3226 41.9119C32.3226 41.6388 32.1013 41.4175 31.8282 41.4175Z" fill="#D2E45D" stroke="#D2E45D" stroke-width="0.4"/>
</svg>
