<svg width="46" height="46" viewBox="0 0 46 46" fill="none" xmlns="http://www.w3.org/2000/svg">
<circle cx="23" cy="23" r="20.125" stroke="#D2E45D" stroke-width="1.7"/>
<circle cx="23" cy="23" r="17.25" stroke="#D2E45D" stroke-width="1.7"/>
<path d="M28.6284 22.6336C29.7935 21.8206 30.528 20.6412 30.528 19.3213C30.528 16.8922 28.0269 14.9048 24.9558 14.9048H23.5628V13.8683C23.5628 13.3542 23.146 12.9375 22.632 12.9375C22.1179 12.9375 21.7012 13.3542 21.7012 13.8683V14.9048H20.0232H18.9151V13.8651C18.9151 13.3528 18.4997 12.9375 17.9874 12.9375C17.4751 12.9375 17.0598 13.3528 17.0598 13.8651V14.9048H15.1127C14.7053 14.9048 14.375 15.2351 14.375 15.6426C14.375 16.05 14.7053 16.3803 15.1127 16.3803H17.0661V29.6197H15.1127C14.7053 29.6197 14.375 29.95 14.375 30.3574C14.375 30.7649 14.7053 31.0952 15.1127 31.0952H17.0661V32.1349C17.0661 32.6472 17.4814 33.0625 17.9938 33.0625C18.5061 33.0625 18.9214 32.6472 18.9214 32.1349V31.0901H20.0295H21.7075V32.1267C21.7075 32.6407 22.1242 33.0575 22.6383 33.0575C23.1524 33.0575 23.5691 32.6407 23.5691 32.1267V31.0901H26.4122C29.4769 31.0901 31.9844 29.1078 31.9844 26.6737C31.978 24.872 30.5977 23.3112 28.6284 22.6336ZM20.0232 16.3803H24.9495C26.9947 16.3803 28.6601 17.7053 28.6601 19.3213C28.6601 20.9423 26.9947 22.2622 24.9495 22.2622H18.9151V16.3803H20.0232ZM26.4059 29.6146H20.0232H18.9151V23.7377H24.9495H26.3995C28.4448 23.7377 30.1038 25.0526 30.1038 26.6737C30.1038 28.2947 28.4511 29.6146 26.4059 29.6146Z" fill="#D2E45D"/>
</svg>
