<svg width="46" height="46" viewBox="0 0 46 46" fill="none" xmlns="http://www.w3.org/2000/svg">
<path d="M43.113 11.6566C43.1101 11.6391 43.1107 11.6207 43.1062 11.6035C43.0936 11.5562 43.075 11.5108 43.0508 11.4684C43.0427 11.4538 43.0304 11.4421 43.0207 11.4285C43.0033 11.4011 42.9835 11.3753 42.9617 11.3514C42.9484 11.3378 42.9315 11.3284 42.917 11.316C42.8953 11.2961 42.8721 11.2779 42.8476 11.2616L42.8434 11.26L42.8398 11.2574L38.1017 8.54271C38.0159 8.49357 37.9187 8.46771 37.8198 8.46771C37.7208 8.46771 37.6237 8.49357 37.5378 8.54271L32.7971 11.2571L32.7935 11.2597L32.7893 11.2613C32.7647 11.2777 32.7414 11.296 32.7196 11.316C32.7051 11.328 32.6872 11.3378 32.6752 11.351C32.6531 11.3753 32.6332 11.4014 32.6156 11.4291C32.6062 11.4428 32.5942 11.4541 32.5861 11.4684C32.5619 11.5108 32.5433 11.5563 32.5307 11.6035C32.5262 11.62 32.5268 11.6378 32.5239 11.6547C32.5171 11.6857 32.513 11.7173 32.5116 11.749V12.9043L28.2952 10.2638C28.3013 10.2354 28.3052 10.2066 28.3069 10.1776V5.43786C28.3054 5.40667 28.3012 5.37567 28.2946 5.34518C28.2916 5.32768 28.2923 5.3092 28.2877 5.29203C28.2752 5.24489 28.2565 5.19958 28.2323 5.15722C28.221 5.14038 28.2088 5.12415 28.1957 5.10861C28.1801 5.08452 28.1627 5.06166 28.1435 5.04023C28.1265 5.02514 28.1085 5.01107 28.0897 4.9981C28.0706 4.98083 28.0502 4.96491 28.0288 4.95047H28.0256L28.0233 4.9456L23.2823 2.23125C23.1964 2.1821 23.0992 2.15625 23.0003 2.15625C22.9014 2.15625 22.8042 2.1821 22.7184 2.23125L17.9773 4.9456L17.9734 4.94852H17.9702C17.9487 4.96306 17.9282 4.97909 17.909 4.99648C17.8903 5.00936 17.8725 5.02332 17.8555 5.03829C17.8361 5.06 17.8185 5.08319 17.8027 5.10764C17.7899 5.12288 17.7779 5.13878 17.7667 5.15527C17.7425 5.19774 17.7238 5.24316 17.7113 5.29041C17.7067 5.30694 17.7074 5.32476 17.7045 5.34161C17.6977 5.37264 17.6936 5.40419 17.6922 5.43591V10.1776C17.6938 10.2067 17.6977 10.2356 17.7038 10.2641L13.4884 12.9043V11.7493C13.4869 11.7181 13.4828 11.6871 13.4761 11.6566C13.4732 11.6391 13.4738 11.6207 13.4693 11.6035C13.4567 11.5562 13.4381 11.5108 13.4139 11.4684C13.4058 11.4538 13.3935 11.4421 13.3837 11.4285C13.3663 11.4011 13.3466 11.3753 13.3248 11.3514C13.3115 11.3378 13.2946 11.3284 13.28 11.316C13.2584 11.2961 13.2352 11.2779 13.2107 11.2616L13.2065 11.26L13.2029 11.2574L8.46413 8.54271C8.37829 8.49357 8.2811 8.46771 8.18219 8.46771C8.08328 8.46771 7.98609 8.49357 7.90025 8.54271L3.1605 11.2571L3.15694 11.2597L3.15272 11.2613C3.12809 11.2777 3.10479 11.296 3.08305 11.316C3.06847 11.328 3.05064 11.3378 3.03865 11.351C3.01654 11.3753 2.99658 11.4014 2.97902 11.4291C2.96963 11.4428 2.95764 11.4541 2.94953 11.4684C2.92533 11.5108 2.9067 11.5563 2.89412 11.6035C2.88958 11.62 2.89023 11.6378 2.88731 11.6547C2.88053 11.6857 2.87641 11.7173 2.875 11.749V16.4888C2.87499 16.5906 2.90239 16.6905 2.95434 16.7781C3.00629 16.8657 3.08086 16.9377 3.17022 16.9865L7.61476 19.4134V25.907L3.1605 28.458L3.15694 28.4606L3.15272 28.4623C3.12809 28.4786 3.10479 28.497 3.08305 28.517C3.06847 28.529 3.05064 28.5387 3.03865 28.552C3.01654 28.5763 2.99658 28.6024 2.97902 28.6301C2.96963 28.6437 2.95764 28.6551 2.94953 28.6693C2.92533 28.7118 2.9067 28.7572 2.89412 28.8045C2.88958 28.821 2.89023 28.8388 2.88731 28.8557C2.88053 28.8867 2.87641 28.9182 2.875 28.95V33.6897C2.87505 33.7916 2.90255 33.8916 2.95462 33.9792C3.00668 34.0668 3.08138 34.1388 3.17087 34.1875L7.9103 36.7745C7.93694 36.7875 7.96458 36.7983 7.99294 36.8069C8.00817 36.8124 8.02243 36.8205 8.03798 36.8244C8.1323 36.8501 8.23176 36.8501 8.32608 36.8244C8.34163 36.8202 8.35589 36.8121 8.37112 36.8069C8.39948 36.7983 8.42711 36.7875 8.45376 36.7745L12.478 34.5777L17.6954 38.0513V40.4017C17.6954 40.5036 17.7228 40.6035 17.7747 40.6911C17.8267 40.7787 17.9013 40.8507 17.9906 40.8995L22.7301 43.4865C22.7567 43.4995 22.7843 43.5103 22.8127 43.5189C22.8279 43.5244 22.8422 43.5325 22.8577 43.5364C22.9521 43.5621 23.0515 43.5621 23.1458 43.5364C23.1614 43.5322 23.1756 43.5241 23.1909 43.5189C23.2192 43.5103 23.2469 43.4995 23.2735 43.4865L28.0116 40.8988C28.101 40.85 28.1756 40.778 28.2275 40.6905C28.2795 40.6029 28.3069 40.5029 28.3069 40.4011V38.0507L33.5243 34.577L37.5485 36.7738C37.5752 36.7868 37.6028 36.7977 37.6312 36.8062C37.6464 36.8118 37.6606 36.8199 37.6762 36.8237C37.7705 36.8494 37.87 36.8494 37.9643 36.8237C37.9798 36.8195 37.9941 36.8114 38.0093 36.8062C38.0377 36.7977 38.0653 36.7868 38.092 36.7738L42.8298 34.1875C42.9191 34.1387 42.9937 34.0667 43.0457 33.9791C43.0976 33.8915 43.125 33.7916 43.125 33.6897V28.9503C43.1235 28.9191 43.1194 28.8881 43.1127 28.8576C43.1098 28.8401 43.1104 28.8216 43.1059 28.8045C43.0933 28.7572 43.0747 28.7118 43.0505 28.6693C43.0424 28.6548 43.0301 28.6431 43.0203 28.6295C43.0029 28.6021 42.9832 28.5763 42.9613 28.5523C42.9481 28.5387 42.9312 28.5293 42.9166 28.517C42.895 28.4971 42.8718 28.4789 42.8473 28.4626L42.8431 28.461L42.8395 28.4584L38.3852 25.9073V19.4134L42.8295 16.9875C42.9188 16.9387 42.9934 16.8667 43.0453 16.7791C43.0973 16.6915 43.1247 16.5916 43.1247 16.4897V11.7493C43.1234 11.7182 43.1195 11.6872 43.113 11.6566ZM26.4328 35.7297L23.0003 37.6034L19.5678 35.7297L19.4227 35.6503L23.0003 33.6016L26.578 35.649L26.4328 35.7297ZM12.3542 16.1524L8.74898 18.1201V14.673L12.3542 12.7053V16.1524ZM8.18187 26.8893L11.7595 28.938L11.6143 29.0174L8.18187 30.8911L4.74938 29.0174L4.6042 28.938L8.18187 26.8893ZM12.8737 28.2691L8.74898 25.9067V19.4134L12.5062 17.3624L17.6938 20.7379V24.8755L12.8737 28.2691ZM18.828 9.84091V6.39385L22.4332 8.36286V11.8089L18.828 9.84091ZM27.1726 9.84091L23.5674 11.8089V8.36286L27.1726 6.39449V9.84091ZM23.0003 18.3693L26.578 20.418L26.4328 20.4974L23.0003 22.3712L19.5678 20.4974L19.4227 20.418L23.0003 18.3693ZM18.828 21.386L22.4332 23.354V26.8021L18.828 24.8334V21.386ZM23.5674 23.354L27.1726 21.386V24.8334L23.5674 26.8021V23.354ZM28.3069 20.7379L33.4945 17.3615L37.2517 19.4134V25.907L33.127 28.2694L28.3069 24.8755V20.7379ZM37.251 14.673V18.1201L33.6465 16.1524V12.7053L37.251 14.673ZM33.6465 33.3534V29.906L37.2517 31.874V35.3211L33.6465 33.3534ZM41.2513 29.0174L37.8188 30.8911L34.386 29.0174L34.2408 28.938L37.8185 26.8893L41.3961 28.938L41.2513 29.0174ZM37.8188 9.68828L41.3964 11.737L41.2513 11.8164L37.8188 13.6901L34.386 11.8164L34.2408 11.737L37.8188 9.68828ZM32.532 16.6343L27.721 19.7657L23.5674 17.3871V13.1013L27.3719 11.0241L32.5119 14.2427V16.4884C32.5122 16.5377 32.519 16.5867 32.532 16.6343ZM23.0003 3.37714L26.5777 5.42619L23.1572 7.29345L23.0003 7.379L22.8435 7.29345L19.423 5.42587L23.0003 3.37714ZM18.6287 11.025L22.4332 13.1023V17.3871L18.2797 19.7657L13.4686 16.6343C13.4816 16.5867 13.4882 16.5377 13.4884 16.4884V14.2427L18.6287 11.025ZM8.18187 9.68828L11.7595 11.737L11.6143 11.8164L8.18187 13.6901L4.74938 11.8164L4.6042 11.737L8.18187 9.68828ZM4.0102 12.7053L7.6154 14.6733V18.1201L4.0102 16.1524V12.7053ZM4.0102 29.9063L7.6154 31.8743V35.3214L4.0102 33.3534V29.9063ZM8.74963 31.8743L12.3548 29.9063V33.3534L8.74963 35.3211V31.8743ZM13.457 33.8667C13.4772 33.8097 13.4882 33.7499 13.4894 33.6894V29.2238L18.2988 25.8367L22.4332 28.0935V32.6193L17.9773 35.1704L17.9738 35.173L17.9696 35.1746C17.9449 35.191 17.9216 35.2093 17.8999 35.2294C17.8853 35.2413 17.8675 35.2511 17.8555 35.2644C17.8334 35.2886 17.8134 35.3147 17.7959 35.3425C17.7865 35.3561 17.7745 35.3674 17.7664 35.3817C17.7422 35.4241 17.7235 35.4696 17.711 35.5168C17.7064 35.5333 17.7071 35.5512 17.7042 35.568C17.6974 35.599 17.6932 35.6306 17.6918 35.6623V36.6883L13.457 33.8667ZM18.828 37.7447V36.618L22.4332 38.586V42.0331L18.828 40.0654V37.7447ZM23.5674 42.0331V38.5863L27.1726 36.6183V40.0657L23.5674 42.0331ZM28.3069 35.6623C28.3054 35.6311 28.3012 35.6001 28.2946 35.5696C28.2916 35.5521 28.2923 35.5337 28.2877 35.5165C28.2752 35.4692 28.2566 35.4238 28.2323 35.3813C28.2242 35.3668 28.2119 35.3551 28.2022 35.3415C28.1848 35.3141 28.1651 35.2883 28.1432 35.2644C28.1299 35.2507 28.1131 35.2413 28.0985 35.229C28.0769 35.2091 28.0537 35.1909 28.0291 35.1746L28.0249 35.173L28.0214 35.1704L23.5674 32.6193V28.0935L27.7018 25.8367L32.5122 29.2238V33.6897C32.5134 33.7502 32.5244 33.81 32.5446 33.867L28.3078 36.6886L28.3069 35.6623ZM38.3852 35.3207V31.874L41.9905 29.906V33.3534L38.3852 35.3207ZM38.3852 18.1198V14.673L41.9905 12.7053V16.1524L38.3852 18.1198Z" fill="#D2E45D" stroke="#D2E45D" stroke-width="0.1"/>
</svg>
