<svg width="46" height="46" viewBox="0 0 46 46" fill="none" xmlns="http://www.w3.org/2000/svg">
<path d="M41.2383 21.7422C40.4194 21.7422 39.7283 22.2692 39.4673 23H38.0938V21.1133C38.0938 20.7661 37.812 20.4844 37.4648 20.4844H34.9492C34.6021 20.4844 34.3203 20.7661 34.3203 21.1133V23H33.0625V17.9688H35.6945C35.9548 18.6995 36.6466 19.2266 37.4648 19.2266C38.5051 19.2266 39.3516 18.3801 39.3516 17.3398C39.3516 16.2996 38.5051 15.4531 37.4648 15.4531C36.646 15.4531 35.9548 15.9801 35.6938 16.7109H33.0625V16.082C33.0625 14.3481 31.6519 12.9375 29.918 12.9375H29.2891V10.3062C30.0199 10.0452 30.5469 9.35399 30.5469 8.53516C30.5469 7.49495 29.7004 6.64844 28.6602 6.64844C27.6199 6.64844 26.7734 7.49495 26.7734 8.53516C26.7734 9.35399 27.3005 10.0452 28.0312 10.3055V12.9375H24.2578V11.0508C24.2578 10.7036 23.9761 10.4219 23.6289 10.4219H21.7422V9.16406H23.6289C23.9761 9.16406 24.2578 8.88231 24.2578 8.53516V6.53272C24.9886 6.27172 25.5156 5.58055 25.5156 4.76172C25.5156 3.72151 24.6691 2.875 23.6289 2.875C22.5887 2.875 21.7422 3.72151 21.7422 4.76172C21.7422 5.58055 22.2692 6.27172 23 6.53209V7.90625H21.1133C20.7661 7.90625 20.4844 8.188 20.4844 8.53516V11.0508C20.4844 11.3979 20.7661 11.6797 21.1133 11.6797H23V12.9375H17.9688V10.3062C18.6995 10.0452 19.2266 9.35399 19.2266 8.53516C19.2266 7.49495 18.3801 6.64844 17.3398 6.64844C16.2996 6.64844 15.4531 7.49495 15.4531 8.53516C15.4531 9.35399 15.9801 10.0452 16.7109 10.3055V12.9375H16.082C14.3481 12.9375 12.9375 14.3481 12.9375 16.082V16.7109H10.3062C10.0452 15.9801 9.35399 15.4531 8.53516 15.4531C7.49495 15.4531 6.64844 16.2996 6.64844 17.3398C6.64844 18.3801 7.49495 19.2266 8.53516 19.2266C9.35399 19.2266 10.0452 18.6995 10.3062 17.9688H12.9375V21.7422H11.0508C10.7036 21.7422 10.4219 22.0239 10.4219 22.3711V24.2578H9.16406V22.3711C9.16406 22.0239 8.88231 21.7422 8.53516 21.7422H6.53272C6.27172 21.0114 5.58055 20.4844 4.76172 20.4844C3.72151 20.4844 2.875 21.3309 2.875 22.3711C2.875 23.4113 3.72151 24.2578 4.76172 24.2578C5.58055 24.2578 6.27172 23.7308 6.53272 23H7.90625V24.8867C7.90625 25.2339 8.188 25.5156 8.53516 25.5156H11.0508C11.3979 25.5156 11.6797 25.2339 11.6797 24.8867V23H12.9375V28.0312H10.3062C10.0452 27.3005 9.35399 26.7734 8.53516 26.7734C7.49495 26.7734 6.64844 27.6199 6.64844 28.6602C6.64844 29.7004 7.49495 30.5469 8.53516 30.5469C9.35399 30.5469 10.0452 30.0199 10.3062 29.2891H12.9375V29.918C12.9375 31.6519 14.3481 33.0625 16.082 33.0625H16.7109V35.6938C15.9801 35.9542 15.4531 36.646 15.4531 37.4648C15.4531 38.5051 16.2996 39.3516 17.3398 39.3516C18.3801 39.3516 19.2266 38.5051 19.2266 37.4648C19.2266 36.646 18.6995 35.9548 17.9688 35.6938V33.0625H21.7422V34.9492C21.7422 35.2964 22.0239 35.5781 22.3711 35.5781H24.2578V36.8359H22.3711C22.0239 36.8359 21.7422 37.1177 21.7422 37.4648V39.4673C21.0114 39.7276 20.4844 40.4194 20.4844 41.2383C20.4844 42.2785 21.3309 43.125 22.3711 43.125C23.4113 43.125 24.2578 42.2785 24.2578 41.2383C24.2578 40.4194 23.7308 39.7283 23 39.4673V38.0938H24.8867C25.2339 38.0938 25.5156 37.812 25.5156 37.4648V34.9492C25.5156 34.6021 25.2339 34.3203 24.8867 34.3203H23V33.0625H28.0312V35.6938C27.3005 35.9542 26.7734 36.646 26.7734 37.4648C26.7734 38.5051 27.6199 39.3516 28.6602 39.3516C29.7004 39.3516 30.5469 38.5051 30.5469 37.4648C30.5469 36.646 30.0199 35.9548 29.2891 35.6938V33.0625H29.918C31.6519 33.0625 33.0625 31.6519 33.0625 29.918V29.2891H35.6945C35.9548 30.0199 36.6466 30.5469 37.4648 30.5469C38.5051 30.5469 39.3516 29.7004 39.3516 28.6602C39.3516 27.6199 38.5051 26.7734 37.4648 26.7734C36.646 26.7734 35.9548 27.3005 35.6938 28.0312H33.0625V24.2578H34.9492C35.2964 24.2578 35.5781 23.9761 35.5781 23.6289V21.7422H36.8359V23.6289C36.8359 23.9761 37.1177 24.2578 37.4648 24.2578H39.4679C39.7283 24.9886 40.4201 25.5156 41.2383 25.5156C42.2785 25.5156 43.125 24.6691 43.125 23.6289C43.125 22.5887 42.2785 21.7422 41.2383 21.7422ZM37.4648 16.7109C37.8114 16.7109 38.0938 16.9933 38.0938 17.3398C38.0938 17.6864 37.8114 17.9688 37.4648 17.9688C37.1183 17.9688 36.8359 17.6864 36.8359 17.3398C36.8359 16.9933 37.1183 16.7109 37.4648 16.7109ZM28.6602 7.90625C29.0067 7.90625 29.2891 8.18863 29.2891 8.53516C29.2891 8.88168 29.0067 9.16406 28.6602 9.16406C28.3136 9.16406 28.0312 8.88168 28.0312 8.53516C28.0312 8.18863 28.3136 7.90625 28.6602 7.90625ZM23.6289 4.13281C23.9754 4.13281 24.2578 4.41519 24.2578 4.76172C24.2578 5.10825 23.9754 5.39062 23.6289 5.39062C23.2824 5.39062 23 5.10825 23 4.76172C23 4.41519 23.2824 4.13281 23.6289 4.13281ZM17.3398 7.90625C17.6864 7.90625 17.9688 8.18863 17.9688 8.53516C17.9688 8.88168 17.6864 9.16406 17.3398 9.16406C16.9933 9.16406 16.7109 8.88168 16.7109 8.53516C16.7109 8.18863 16.9933 7.90625 17.3398 7.90625ZM8.53516 17.9688C8.18863 17.9688 7.90625 17.6864 7.90625 17.3398C7.90625 16.9933 8.18863 16.7109 8.53516 16.7109C8.88168 16.7109 9.16406 16.9933 9.16406 17.3398C9.16406 17.6864 8.88168 17.9688 8.53516 17.9688ZM4.76172 23C4.41519 23 4.13281 22.7176 4.13281 22.3711C4.13281 22.0246 4.41519 21.7422 4.76172 21.7422C5.10825 21.7422 5.39062 22.0246 5.39062 22.3711C5.39062 22.7176 5.10825 23 4.76172 23ZM8.53516 29.2891C8.18863 29.2891 7.90625 29.0067 7.90625 28.6602C7.90625 28.3136 8.18863 28.0312 8.53516 28.0312C8.88168 28.0312 9.16406 28.3136 9.16406 28.6602C9.16406 29.0067 8.88168 29.2891 8.53516 29.2891ZM17.3398 38.0938C16.9933 38.0938 16.7109 37.8114 16.7109 37.4648C16.7109 37.1183 16.9933 36.8359 17.3398 36.8359C17.6864 36.8359 17.9688 37.1183 17.9688 37.4648C17.9688 37.8114 17.6864 38.0938 17.3398 38.0938ZM22.3711 41.8672C22.0246 41.8672 21.7422 41.5848 21.7422 41.2383C21.7422 40.8918 22.0246 40.6094 22.3711 40.6094C22.7176 40.6094 23 40.8918 23 41.2383C23 41.5848 22.7176 41.8672 22.3711 41.8672ZM28.6602 38.0938C28.3136 38.0938 28.0312 37.8114 28.0312 37.4648C28.0312 37.1183 28.3136 36.8359 28.6602 36.8359C29.0067 36.8359 29.2891 37.1183 29.2891 37.4648C29.2891 37.8114 29.0067 38.0938 28.6602 38.0938ZM37.4648 28.0312C37.8114 28.0312 38.0938 28.3136 38.0938 28.6602C38.0938 29.0067 37.8114 29.2891 37.4648 29.2891C37.1183 29.2891 36.8359 29.0067 36.8359 28.6602C36.8359 28.3136 37.1183 28.0312 37.4648 28.0312ZM31.8047 29.918C31.8047 30.9582 30.9582 31.8047 29.918 31.8047H16.082C15.0418 31.8047 14.1953 30.9582 14.1953 29.918V16.082C14.1953 15.0418 15.0418 14.1953 16.082 14.1953H29.918C30.9582 14.1953 31.8047 15.0418 31.8047 16.082V29.918ZM41.2383 24.2578C40.8918 24.2578 40.6094 23.9754 40.6094 23.6289C40.6094 23.2824 40.8918 23 41.2383 23C41.5848 23 41.8672 23.2824 41.8672 23.6289C41.8672 23.9754 41.5848 24.2578 41.2383 24.2578Z" fill="#D2E45D"/>
<path d="M29.918 15.4531H16.082C15.7349 15.4531 15.4531 15.7349 15.4531 16.082V29.918C15.4531 30.2651 15.7349 30.5469 16.082 30.5469H29.918C30.2651 30.5469 30.5469 30.2651 30.5469 29.918V16.082C30.5469 15.7349 30.2651 15.4531 29.918 15.4531ZM29.2891 29.2891H16.7109V16.7109H29.2891V29.2891Z" fill="#D2E45D"/>
<path d="M22.3711 23.6289H23.6289C23.9754 23.6289 24.2578 23.9113 24.2578 24.2578C24.2578 24.6043 23.9754 24.8867 23.6289 24.8867H21.7422C21.395 24.8867 21.1133 25.1685 21.1133 25.5156C21.1133 25.8628 21.395 26.1445 21.7422 26.1445H22.3711C22.3711 26.4917 22.6528 26.7734 23 26.7734C23.3472 26.7734 23.6289 26.4917 23.6289 26.1445C24.6691 26.1445 25.5156 25.298 25.5156 24.2578C25.5156 23.2176 24.6691 22.3711 23.6289 22.3711H22.3711C22.0246 22.3711 21.7422 22.0887 21.7422 21.7422C21.7422 21.3957 22.0246 21.1133 22.3711 21.1133H24.2578C24.605 21.1133 24.8867 20.8315 24.8867 20.4844C24.8867 20.1372 24.605 19.8555 24.2578 19.8555H23.6289C23.6289 19.5083 23.3472 19.2266 23 19.2266C22.6528 19.2266 22.3711 19.5083 22.3711 19.8555C21.3309 19.8555 20.4844 20.702 20.4844 21.7422C20.4844 22.7824 21.3309 23.6289 22.3711 23.6289Z" fill="#D2E45D"/>
</svg>
