<svg width="46" height="46" viewBox="0 0 46 46" fill="none" xmlns="http://www.w3.org/2000/svg">
<circle cx="23" cy="23" r="20" stroke="#D2E45D" stroke-width="1.7"/>
<circle cx="23" cy="23" r="17.1429" stroke="#D2E45D" stroke-width="1.7"/>
<path fill-rule="evenodd" clip-rule="evenodd" d="M15.7674 14.7985C16.0956 14.4703 16.5407 14.2859 17.0049 14.2859H30.4623C31.996 14.2859 32.7878 16.1185 31.7367 17.2353L30.0714 19.0046C29.7407 19.356 29.2796 19.5553 28.797 19.5553H15.2355C13.6764 19.5553 12.8956 17.6703 13.9981 16.5678L15.7674 14.7985ZM17.0049 15.7859C16.9386 15.7859 16.875 15.8122 16.8281 15.8591L15.0587 17.6285C14.9012 17.786 15.0128 18.0553 15.2355 18.0553H28.797C28.866 18.0553 28.9319 18.0268 28.9791 17.9766L30.6444 16.2072C30.7945 16.0477 30.6814 15.7859 30.4623 15.7859H17.0049ZM15.0138 22.2159C14.791 22.2159 14.6795 22.4852 14.837 22.6427L16.6064 24.4121C16.6532 24.4589 16.7168 24.4853 16.7831 24.4853H30.684C30.9031 24.4853 31.0163 24.2235 30.8661 24.0639L29.2008 22.2946C29.1536 22.2444 29.0877 22.2159 29.0188 22.2159H15.0138ZM13.7763 23.7034C12.6739 22.6009 13.4547 20.7159 15.0138 20.7159H29.0188C29.5013 20.7159 29.9624 20.9152 30.2931 21.2665L31.9584 23.0359C33.0095 24.1527 32.2177 25.9853 30.684 25.9853H16.7831C16.319 25.9853 15.8739 25.8009 15.5457 25.4727L13.7763 23.7034ZM16.8399 28.5027C16.8872 28.4527 16.9529 28.4243 17.0217 28.4243H30.7106C30.9366 28.4243 31.0466 28.7004 30.8826 28.8558L28.7809 30.8469C28.7344 30.8909 28.6729 30.9154 28.6089 30.9154H15.1412C14.9219 30.9154 14.8089 30.6532 14.9595 30.4938L16.8399 28.5027ZM17.0217 26.9243C16.5402 26.9243 16.08 27.1227 15.7494 27.4727L13.869 29.4638C12.8149 30.5799 13.6061 32.4154 15.1412 32.4154H28.6089C29.0567 32.4154 29.4874 32.2438 29.8125 31.9358L31.9142 29.9447C33.0626 28.8567 32.2926 26.9243 30.7106 26.9243H17.0217Z" fill="#D2E45D"/>
</svg>
