<svg width="46" height="46" viewBox="0 0 46 46" fill="none" xmlns="http://www.w3.org/2000/svg">
<path d="M36.2233 38.9939L11.5523 39.0551C11.4911 39.0551 11.4299 39.0551 11.3686 39.1163L8.06284 40.6468C7.69553 40.7692 7.69553 41.3202 8.06284 41.4426L11.3686 42.9119C11.4299 42.9119 11.4911 42.9731 11.5523 42.9731C39.1618 42.9119 34.6316 42.9119 36.2233 42.9119C37.3253 42.9119 38.1823 41.9936 38.1823 40.8917C38.1823 39.851 37.3253 38.9939 36.2233 38.9939ZM12.042 39.9734L34.8765 39.9122V42.0548L12.042 42.116C12.042 41.259 12.042 40.708 12.042 39.9734ZM11.1238 40.2183C11.1238 41.1978 11.1238 40.8304 11.1238 41.8099L9.40964 41.0141L11.1238 40.2183ZM36.2233 41.9936H35.7948V39.851H36.2233C36.8355 39.851 37.264 40.3407 37.264 40.8917C37.264 41.5651 36.8355 41.9936 36.2233 41.9936Z" fill="#D2E45D" stroke="#D2E45D" stroke-width="0.3"/>
<path d="M42.4062 9.73147C42.4062 8.26222 41.2431 7.09907 39.7739 7.09907H34.2642V3.36475C34.2642 3.11987 34.0805 2.875 33.7745 2.875H12.2256C11.9807 2.875 11.7358 3.05866 11.7358 3.36475V7.09907H6.22614C4.7569 7.09907 3.59375 8.26222 3.59375 9.73147V31.7089C3.59375 33.1781 4.7569 34.3413 6.22614 34.3413H18.5923L14.8579 37.2186C14.4906 37.4634 14.6743 38.0144 15.164 38.0144H30.836C31.2645 38.0144 31.4481 37.4634 31.1421 37.2186L27.4077 34.3413H39.7739C41.2431 34.3413 42.4062 33.1781 42.4062 31.7089C42.4062 7.16029 42.4062 13.0985 42.4062 9.73147ZM16.5108 37.1573L20.1227 34.3413H25.9385L29.5504 37.1573H16.5108ZM39.7739 8.01735C40.6921 8.01735 41.488 8.81319 41.488 9.73147V30.4845H39.4678V10.5273C39.4678 10.2824 39.2841 10.0376 38.978 10.0376H34.2642V8.01735H39.7739ZM12.2256 29.4438H33.8357C34.0805 29.4438 34.3254 29.2602 34.3254 28.9541V11.0171H38.5495V30.4845H7.51173V11.0171H11.7358V29.0153C11.7358 29.1989 11.9195 29.4438 12.2256 29.4438ZM12.6541 3.79328H33.3459V28.4643H12.6541V3.79328ZM6.22614 8.01735H11.7358V10.0988H7.02198C6.77711 10.0988 6.53224 10.2824 6.53224 10.5885V30.5457H4.51203V9.73147C4.51203 8.81319 5.30787 8.01735 6.22614 8.01735ZM39.7739 33.423H6.22614C5.30787 33.423 4.51203 32.6272 4.51203 31.7089V31.4028H41.4268V31.7089C41.488 32.6884 40.6921 33.423 39.7739 33.423Z" fill="#D2E45D" stroke="#D2E45D" stroke-width="0.3"/>
<path d="M14.4907 15.9756H31.5095C31.7543 15.9756 31.9992 15.792 31.9992 15.4859V5.69092C31.9992 5.44605 31.8156 5.20117 31.5095 5.20117H14.4907C14.2459 5.20117 14.001 5.38483 14.001 5.69092V15.4859C14.0622 15.792 14.2459 15.9756 14.4907 15.9756ZM14.9805 15.0573V9.6089H31.0809V15.0573H14.9805ZM31.0197 6.18067V8.75184H14.9805V6.18067H31.0197Z" fill="#D2E45D" stroke="#D2E45D" stroke-width="0.3"/>
<path d="M14.4907 18.0571H31.5095C31.7543 18.0571 31.9992 17.8735 31.9992 17.5674C31.9992 17.2613 31.8156 17.0776 31.5095 17.0776H14.4907C14.2459 17.0776 14.001 17.2613 14.001 17.5674C14.001 17.8735 14.2459 18.0571 14.4907 18.0571Z" fill="#D2E45D" stroke="#D2E45D" stroke-width="0.3"/>
<path d="M14.4907 25.5872H18.3475C18.5924 25.5872 18.8372 25.4035 18.8372 25.0974C18.8372 24.7913 18.6536 24.6077 18.3475 24.6077H14.4907C14.2459 24.6077 14.001 24.7913 14.001 25.0974C14.001 25.4035 14.2459 25.5872 14.4907 25.5872Z" fill="#D2E45D" stroke="#D2E45D" stroke-width="0.3"/>
<path d="M14.4907 27.6072H18.3475C18.5924 27.6072 18.8372 27.4235 18.8372 27.1174C18.8372 26.8113 18.6536 26.6277 18.3475 26.6277H14.4907C14.2459 26.6277 14.001 26.8113 14.001 27.1174C14.001 27.4235 14.2459 27.6072 14.4907 27.6072Z" fill="#D2E45D" stroke="#D2E45D" stroke-width="0.3"/>
<path d="M24.9591 24.6687H21.1023C20.8574 24.6687 20.6125 24.8524 20.6125 25.1584C20.6125 25.4645 20.7962 25.6482 21.1023 25.6482H24.9591C25.2039 25.6482 25.4488 25.4645 25.4488 25.1584C25.4488 24.8524 25.2039 24.6687 24.9591 24.6687Z" fill="#D2E45D" stroke="#D2E45D" stroke-width="0.3"/>
<path d="M24.9591 26.689H21.1023C20.8574 26.689 20.6125 26.8726 20.6125 27.1787C20.6125 27.4848 20.7962 27.6685 21.1023 27.6685H24.9591C25.2039 27.6685 25.4488 27.4848 25.4488 27.1787C25.4488 26.8726 25.2039 26.689 24.9591 26.689Z" fill="#D2E45D" stroke="#D2E45D" stroke-width="0.3"/>
<path d="M31.5094 24.6687H27.6526C27.4077 24.6687 27.1628 24.8524 27.1628 25.1584C27.1628 25.4645 27.3465 25.6482 27.6526 25.6482H31.5094C31.7542 25.6482 31.9991 25.4645 31.9991 25.1584C31.9991 24.8524 31.7542 24.6687 31.5094 24.6687Z" fill="#D2E45D" stroke="#D2E45D" stroke-width="0.3"/>
<path d="M31.5094 26.689H27.6526C27.4077 26.689 27.1628 26.8726 27.1628 27.1787C27.1628 27.4848 27.3465 27.6685 27.6526 27.6685H31.5094C31.7542 27.6685 31.9991 27.4848 31.9991 27.1787C31.9991 26.8726 31.7542 26.689 31.5094 26.689Z" fill="#D2E45D" stroke="#D2E45D" stroke-width="0.3"/>
<path d="M18.531 10.7722C18.2861 10.7722 18.0413 10.9559 18.0413 11.262V13.3434C18.0413 13.5883 18.2249 13.8331 18.531 13.8331C18.8371 13.8331 19.0208 13.6495 19.0208 13.3434V11.262C19.0208 10.9559 18.7759 10.7722 18.531 10.7722Z" fill="#D2E45D" stroke="#D2E45D" stroke-width="0.3"/>
<path d="M23 10.7722C22.7551 10.7722 22.5103 10.9559 22.5103 11.262V13.3434C22.5103 13.5883 22.6939 13.8331 23 13.8331C23.3061 13.8331 23.4897 13.6495 23.4897 13.3434V11.262C23.4897 10.9559 23.2449 10.7722 23 10.7722Z" fill="#D2E45D" stroke="#D2E45D" stroke-width="0.3"/>
<path d="M27.469 10.7722C27.2241 10.7722 26.9792 10.9559 26.9792 11.262V13.3434C26.9792 13.5883 27.1629 13.8331 27.469 13.8331C27.7751 13.8331 27.9587 13.6495 27.9587 13.3434V11.262C27.9587 10.9559 27.7139 10.7722 27.469 10.7722Z" fill="#D2E45D" stroke="#D2E45D" stroke-width="0.3"/>
<path d="M14.4907 23.322H18.3475C18.5924 23.322 18.8372 23.1384 18.8372 22.8323V19.6489C18.8372 19.4041 18.6536 19.1592 18.3475 19.1592H14.4907C14.2459 19.1592 14.001 19.3428 14.001 19.6489V22.8323C14.0622 23.1384 14.2459 23.322 14.4907 23.322ZM14.9805 20.1999H17.919V22.465H14.9805V20.1999Z" fill="#D2E45D" stroke="#D2E45D" stroke-width="0.3"/>
<path d="M24.9591 19.2815H21.1023C20.8574 19.2815 20.6125 19.4651 20.6125 19.7712V22.9546C20.6125 23.1995 20.7962 23.4443 21.1023 23.4443H24.9591C25.2039 23.4443 25.4488 23.2607 25.4488 22.9546V19.7712C25.3876 19.4651 25.2039 19.2815 24.9591 19.2815ZM24.4693 22.4036H21.5308V20.1386H24.4693V22.4036Z" fill="#D2E45D" stroke="#D2E45D" stroke-width="0.3"/>
<path d="M31.5094 19.2815H27.6526C27.4077 19.2815 27.1628 19.4651 27.1628 19.7712V22.9546C27.1628 23.1995 27.3465 23.4443 27.6526 23.4443H31.5094C31.7542 23.4443 31.9991 23.2607 31.9991 22.9546V19.7712C31.9379 19.4651 31.7542 19.2815 31.5094 19.2815ZM31.0196 22.4036H28.0811V20.1386H31.0196V22.4036Z" fill="#D2E45D" stroke="#D2E45D" stroke-width="0.3"/>
<path d="M28.9382 31.8926H28.2036C27.9587 31.8926 27.7139 32.0762 27.7139 32.3823C27.7139 32.6884 27.8975 32.8721 28.2036 32.8721H28.9382C29.1831 32.8721 29.428 32.6884 29.428 32.3823C29.428 32.0762 29.1831 31.8926 28.9382 31.8926Z" fill="#D2E45D" stroke="#D2E45D" stroke-width="0.3"/>
<path d="M25.3264 31.8926H24.5918C24.3469 31.8926 24.1021 32.0762 24.1021 32.3823C24.1021 32.6884 24.2857 32.8721 24.5918 32.8721H25.3264C25.5713 32.8721 25.8162 32.6884 25.8162 32.3823C25.8162 32.0762 25.6325 31.8926 25.3264 31.8926Z" fill="#D2E45D" stroke="#D2E45D" stroke-width="0.3"/>
<path d="M21.7756 31.8926H21.041C20.7961 31.8926 20.5513 32.0762 20.5513 32.3823C20.5513 32.6884 20.7349 32.8721 21.041 32.8721H21.7756C22.0205 32.8721 22.2654 32.6884 22.2654 32.3823C22.2654 32.0762 22.0205 31.8926 21.7756 31.8926Z" fill="#D2E45D" stroke="#D2E45D" stroke-width="0.3"/>
<path d="M18.1636 31.8926H17.429C17.1841 31.8926 16.9392 32.0762 16.9392 32.3823C16.9392 32.6884 17.1229 32.8721 17.429 32.8721H18.1636C18.4085 32.8721 18.6533 32.6884 18.6533 32.3823C18.6533 32.0762 18.4085 31.8926 18.1636 31.8926Z" fill="#D2E45D" stroke="#D2E45D" stroke-width="0.3"/>
</svg>
