<svg width="46" height="46" viewBox="0 0 46 46" fill="none" xmlns="http://www.w3.org/2000/svg">
<circle cx="23" cy="23" r="20.125" stroke="#D2E45D" stroke-width="1.7"/>
<circle cx="23" cy="23" r="17.25" stroke="#D2E45D" stroke-width="1.7"/>
<path d="M15.1558 13.5815V16.8015C15.1558 17.1571 15.4396 17.4455 15.7896 17.4455H20.1474C20.4974 17.4455 20.7813 17.7339 20.7813 18.0895V32.4185C20.7813 32.7741 21.0651 33.0625 21.4151 33.0625H24.5844C24.9345 33.0625 25.2183 32.7741 25.2183 32.4185V18.0895C25.2183 17.7339 25.5021 17.4455 25.8521 17.4455H30.2099C30.5599 17.4455 30.8438 17.1571 30.8438 16.8015V13.5815C30.8438 13.2259 30.5599 12.9375 30.2099 12.9375H15.7896C15.4396 12.9375 15.1558 13.2259 15.1558 13.5815Z" fill="#D2E45D"/>
<path d="M33.0625 23.2415C33.0625 23.9177 32.6362 24.8925 30.6047 25.6967C28.4007 26.5706 25.3772 26.864 23 26.864C20.6228 26.864 17.5993 26.5706 15.3953 25.6967C13.3638 24.8925 12.9375 23.9177 12.9375 23.2415C12.9375 21.0712 16.9649 19.9909 20.734 19.7035C20.7498 19.7019 20.7656 19.7019 20.7815 19.7019V20.9923C18.8403 21.1437 17.0916 21.4962 15.8556 21.9857C14.637 22.4679 14.2052 22.9638 14.2052 23.2415C14.2052 23.5192 14.637 24.0151 15.8556 24.4973C17.0924 24.9867 18.8403 25.3401 20.7815 25.4907C21.7484 25.5887 23.9793 25.6163 25.2185 25.4907C27.1597 25.3401 28.9076 24.9867 30.1444 24.4973C31.363 24.0151 31.7948 23.5192 31.7948 23.2415C31.7948 22.9638 31.363 22.4679 30.1444 21.9857C28.9084 21.4962 27.1597 21.1437 25.2185 20.9923V19.7019C25.2344 19.7019 25.2502 19.7027 25.266 19.7035C29.0351 19.9909 33.0625 21.0712 33.0625 23.2415Z" fill="#C3D647"/>
</svg>
