<svg width="46" height="46" viewBox="0 0 46 46" fill="none" xmlns="http://www.w3.org/2000/svg">
<path d="M33.0625 19.8555C33.0625 19.3924 32.6984 19.0169 32.2494 19.0169H30.6385C29.1391 15.444 25.6877 12.9375 21.6787 12.9375H15.9867C15.5377 12.9375 15.1736 13.313 15.1736 13.776V19.0169H13.7506C13.3016 19.0169 12.9375 19.3924 12.9375 19.8555C12.9375 20.3186 13.3016 20.694 13.7506 20.694H15.1736V25.306H13.7506C13.3016 25.306 12.9375 25.6814 12.9375 26.1445C12.9375 26.6076 13.3016 26.9831 13.7506 26.9831H15.1736V32.224C15.1736 32.687 15.5377 33.0625 15.9867 33.0625H21.6787C25.6877 33.0625 29.1391 30.556 30.6385 26.9831H32.2494C32.6984 26.9831 33.0625 26.6076 33.0625 26.1445C33.0625 25.6814 32.6984 25.306 32.2494 25.306H31.1774C31.5224 23.7941 31.5229 22.2078 31.1774 20.694H32.2494C32.6984 20.694 33.0625 20.3186 33.0625 19.8555ZM16.7999 14.6146H21.6787C24.7653 14.6146 27.4555 16.3974 28.8324 19.0169H16.7999V14.6146ZM21.6787 31.3854H16.7999V26.9831H28.8324C27.4556 29.6026 24.7653 31.3854 21.6787 31.3854ZM29.4949 25.306H16.7999V20.694H29.4948C29.9021 22.1596 29.928 23.7472 29.4949 25.306Z" fill="#D2E45D"/>
<circle cx="23" cy="23" r="20.125" stroke="#D2E45D" stroke-width="1.7"/>
<circle cx="23" cy="23" r="17.25" stroke="#D2E45D" stroke-width="1.7"/>
</svg>
