<svg width="46" height="46" viewBox="0 0 46 46" fill="none" xmlns="http://www.w3.org/2000/svg">
<path fill-rule="evenodd" clip-rule="evenodd" d="M18.8176 9.88903C18.5319 10.7833 18.2737 11.7706 18.0481 12.8363C19.5433 13.5902 21.1098 14.4826 22.7074 15.4972C24.095 14.6491 25.4581 13.8907 26.771 13.2321C26.5269 12.0144 26.2408 10.8931 25.92 9.88903C25.3719 8.1736 24.7383 6.85072 24.0774 5.97588C23.4054 5.08622 22.8189 4.8 22.3688 4.8C21.9187 4.8 21.3322 5.08622 20.6602 5.97588C19.9993 6.85072 19.3657 8.1736 18.8176 9.88903ZM17.7065 14.6626C18.7799 15.222 19.8936 15.8558 21.0312 16.5582C20.1059 17.1639 19.1746 17.807 18.2445 18.4846C17.8832 18.7478 17.5271 19.0125 17.1767 19.2784C17.2908 17.6486 17.4708 16.1004 17.7065 14.6626ZM19.3812 19.8802C18.5778 20.4655 17.803 21.0571 17.0597 21.6508C17.0429 22.2305 17.0343 22.8182 17.0343 23.4126C17.0343 24.3132 17.0541 25.1983 17.0922 26.0639C17.8036 26.6507 18.5445 27.2359 19.3122 27.8156C20.4071 28.6424 21.5014 29.4164 22.5818 30.1328C23.6742 29.435 24.7816 28.68 25.8905 27.8722C26.4833 27.4403 27.0605 27.0051 27.621 26.568C27.6751 25.5428 27.7033 24.4888 27.7033 23.4126C27.7033 22.6878 27.6905 21.973 27.6656 21.2703C27.1127 20.8237 26.543 20.3785 25.9578 19.9366C24.8632 19.11 23.7692 18.3363 22.6892 17.62C21.597 18.3177 20.4899 19.0726 19.3812 19.8802ZM16.0224 13.8302C15.6488 15.9454 15.3963 18.2859 15.2904 20.7634C14.562 21.3589 13.8633 21.9568 13.1974 22.5533C11.6183 20.9877 10.2952 19.4676 9.28138 18.0703C9.16996 17.9168 9.06262 17.7652 8.95935 17.6156C8.99308 17.482 9.0074 17.341 8.99928 17.1961C8.96359 16.5589 8.50516 16.0457 7.91145 15.9135C7.589 15.308 7.35369 14.7529 7.20673 14.2567C6.89118 13.1913 7.03468 12.5974 7.29298 12.2912C7.55127 11.9849 8.13153 11.7208 9.29947 11.7756C10.4385 11.829 11.93 12.1826 13.6898 12.8437C14.4313 13.1223 15.2115 13.4521 16.0224 13.8302ZM15.2348 23.1665C14.9876 23.3802 14.7448 23.5937 14.5066 23.8068C14.7474 24.0297 14.993 24.2532 15.2433 24.4769C15.2373 24.1243 15.2343 23.7695 15.2343 23.4126C15.2343 23.3305 15.2344 23.2485 15.2348 23.1665ZM7.75625 19.0755C8.83319 20.5597 10.2233 22.1549 11.8677 23.7841C10.1959 25.3846 8.77897 26.9554 7.6769 28.4206C6.52201 29.9561 5.68109 31.4174 5.27518 32.7062C4.87753 33.9687 4.83964 35.2704 5.64234 36.2559C6.44504 37.2414 7.78545 37.539 9.17772 37.4976C10.5989 37.4553 12.3075 37.0593 14.172 36.3952C14.9278 36.1259 15.7176 35.8096 16.5343 35.4489C16.7089 36.1652 16.8989 36.8452 17.103 37.484C17.159 37.6592 17.2162 37.8317 17.2745 38.0015C17.1388 38.2165 17.0603 38.4713 17.0603 38.7444C17.0603 39.4018 17.5155 39.9529 18.1279 40.0997C18.4656 40.7975 18.8312 41.4145 19.2239 41.9343C20.0436 43.0194 21.0973 43.8252 22.3688 43.8252C23.6403 43.8252 24.694 43.0194 25.5137 41.9343C26.3446 40.8344 27.0544 39.2997 27.6346 37.484C27.8432 36.831 28.0371 36.1351 28.2149 35.4012C29.1398 35.8386 30.0325 36.2191 30.8827 36.5385C32.7355 37.2346 34.4371 37.6599 35.8573 37.7265C37.2486 37.7918 38.594 37.5173 39.4135 36.5457C40.233 35.5741 40.2174 34.272 39.8415 33.0028C39.4578 31.7073 38.6421 30.2318 37.5137 28.6767C36.437 27.1928 35.0473 25.5979 33.4032 23.969C35.0754 22.3682 36.4926 20.7972 37.5948 19.3317C38.7497 17.7963 39.5906 16.335 39.9965 15.0462C40.3942 13.7836 40.4321 12.482 39.6294 11.4965C38.8267 10.5109 37.4863 10.2134 36.094 10.2548C35.3457 10.277 34.5178 10.3973 33.6294 10.6032C33.3991 10.3619 33.0819 10.2019 32.723 10.1756C32.0098 10.1234 31.3828 10.6174 31.2522 11.3034C31.2015 11.3211 31.1507 11.3391 31.0997 11.3572C30.2538 11.6585 29.3653 12.0189 28.4443 12.4344C28.2082 11.3233 27.9368 10.2873 27.6346 9.34119C27.0544 7.52554 26.3446 5.99086 25.5137 4.89091C24.694 3.80579 23.6403 3 22.3688 3C21.0973 3 20.0436 3.80579 19.2239 4.89091C18.393 5.99086 17.6831 7.52554 17.103 9.34119C16.8369 10.1741 16.5947 11.0768 16.3795 12.039C15.6942 11.7303 15.0287 11.4546 14.3873 11.2137C12.5344 10.5176 10.8329 10.0923 9.41268 10.0256C8.02133 9.96035 6.67601 10.2349 5.85651 11.2065C5.03701 12.1781 5.05254 13.4802 5.42846 14.7494C5.61819 15.3899 5.91351 16.0745 6.30002 16.7909C6.23559 16.965 6.20509 17.1549 6.21613 17.352C6.25492 18.0445 6.79287 18.5905 7.46115 18.6603C7.55696 18.798 7.65536 18.9364 7.75625 19.0755ZM19.7364 39.2913C20.0338 39.9092 20.3439 40.4306 20.6602 40.8493C21.3322 41.739 21.9187 42.0252 22.3688 42.0252C22.8189 42.0252 23.4054 41.739 24.0774 40.8493C24.7383 39.9745 25.3719 38.6516 25.92 36.9362C26.1525 36.2083 26.3669 35.4188 26.5602 34.5756C25.2673 33.898 23.9267 33.1213 22.5636 32.2556C21.0697 33.1687 19.6042 33.9777 18.1992 34.6702C18.3868 35.4779 18.5938 36.2356 18.8176 36.9362C18.8745 37.1143 18.9324 37.2882 18.9911 37.4578C19.4942 37.6681 19.8478 38.165 19.8478 38.7444C19.8478 38.9385 19.8081 39.1234 19.7364 39.2913ZM32.1342 12.8719C32.0139 12.9128 31.8922 12.9552 31.7692 12.999C30.8315 13.333 29.8313 13.7468 28.7848 14.235C29.102 16.1334 29.3229 18.2041 29.4298 20.3857C30.3675 21.1602 31.2579 21.9395 32.0948 22.7155C33.7006 21.1773 35.0495 19.6802 36.0872 18.3006C37.184 16.8422 37.9014 15.5568 38.227 14.5231C38.5608 13.4633 38.4275 12.867 38.1745 12.5563C37.9215 12.2457 37.3459 11.9716 36.1772 12.0064C35.4902 12.0268 34.6735 12.154 33.7453 12.39C33.4707 12.7636 33.0159 12.992 32.5194 12.9557C32.3843 12.9458 32.2551 12.9169 32.1342 12.8719ZM13.5026 34.7534C14.3385 34.4556 15.224 34.0944 16.1479 33.6737C15.7529 31.6318 15.4736 29.3603 15.3347 26.9447C14.5816 26.3098 13.861 25.6726 13.1761 25.0376C11.5707 26.5755 10.2221 28.0724 9.18454 29.4518C8.08769 30.9101 7.37029 32.1956 7.04473 33.2292C6.71093 34.2891 6.84422 34.8854 7.09722 35.196C7.35022 35.5067 7.92586 35.7807 9.09457 35.746C10.2344 35.7121 11.7317 35.3842 13.5026 34.7534ZM17.8275 32.8639C18.8242 32.3578 19.8545 31.7904 20.9057 31.166C19.9908 30.5443 19.0703 29.8852 18.1517 29.1915C17.8478 28.9621 17.5477 28.7315 17.2517 28.5002C17.3869 30.0452 17.5819 31.5085 17.8275 32.8639ZM26.93 32.7533C26.0544 32.2801 25.1549 31.7596 24.2399 31.1946C25.1653 30.5888 26.0969 29.9456 27.0272 29.2678C27.1668 29.1662 27.3055 29.0643 27.4434 28.9622C27.3151 30.2959 27.1419 31.5654 26.93 32.7533ZM28.6013 33.6135C28.9608 31.7399 29.2232 29.6745 29.3695 27.4829C30.3201 26.7249 31.2235 25.9612 32.0735 25.1998C33.6522 26.7651 34.9749 28.2848 35.9886 29.6818C37.0603 31.1588 37.7555 32.4564 38.0632 33.4955C38.3788 34.5609 38.2353 35.1548 37.977 35.461C37.7187 35.7673 37.1384 36.0314 35.9705 35.9766C34.8314 35.9232 33.34 35.5696 31.5802 34.9085C30.6436 34.5566 29.6452 34.1231 28.6013 33.6135ZM27.5312 18.8749C27.4282 17.5434 27.2811 16.2688 27.0955 15.0674C26.2076 15.5273 25.2946 16.0348 24.3652 16.5869C25.2799 17.2083 26.2 17.8673 27.1183 18.5607C27.2567 18.6652 27.3944 18.77 27.5312 18.8749ZM29.4817 25.0598C29.9225 24.6882 30.3503 24.3167 30.7644 23.9463C30.3566 23.5688 29.935 23.1898 29.5004 22.8104C29.5023 23.0105 29.5033 23.2112 29.5033 23.4126C29.5033 23.9669 29.496 24.5163 29.4817 25.0598ZM24.1236 24.3098C24.0673 25.0774 23.3994 25.6542 22.6317 25.598C21.864 25.5417 21.2872 24.8738 21.3435 24.1061C21.3997 23.3384 22.0677 22.7617 22.8353 22.8179C23.603 22.8741 24.1798 23.5421 24.1236 24.3098Z" fill="#D2E45D"/>
</svg>
