<svg width="46" height="46" viewBox="0 0 46 46" fill="none" xmlns="http://www.w3.org/2000/svg">
<path d="M28.3127 9.01865H28.3128C30.2975 9.0209 32.2003 9.81031 33.6038 11.2137C35.0073 12.6171 35.7968 14.5199 35.7991 16.5047V16.5048C35.7991 16.6807 35.7292 16.8493 35.6049 16.9737C35.4805 17.0981 35.3118 17.1679 35.136 17.1679C34.9601 17.1679 34.7914 17.0981 34.6671 16.9737C34.5427 16.8494 34.4729 16.6807 34.4728 16.5049C34.4709 14.8717 33.8212 13.306 32.6664 12.1512C31.5115 10.9964 29.9458 10.3468 28.3127 10.3449V9.01865ZM28.3127 9.01865C28.1368 9.01865 27.9681 9.08852 27.8437 9.21288M28.3127 9.01865L27.8437 9.21288M27.8437 9.21288C27.7194 9.33724 27.6495 9.50592 27.6495 9.68179M27.8437 9.21288L27.6495 9.68179M27.6495 9.68179C27.6495 9.85767 27.7194 10.0263 27.8437 10.1507M27.6495 9.68179L27.8437 10.1507M27.8437 10.1507C27.9681 10.275 28.1367 10.3449 28.3125 10.3449L27.8437 10.1507Z" fill="#D2E45D" stroke="#D2E45D" stroke-width="0.2"/>
<mask id="path-2-outside-1_18_1041" maskUnits="userSpaceOnUse" x="1.15625" y="4.75" width="43" height="37" fill="black">
<rect fill="white" x="1.15625" y="4.75" width="43" height="37"/>
<path d="M38.8636 14.4247C38.5068 12.6122 37.6891 10.9221 36.4892 9.5176C35.2892 8.11307 33.7477 7.04142 32.0131 6.406C30.2785 5.77059 28.4095 5.59285 26.5862 5.88994C24.7629 6.18702 23.047 6.9489 21.6039 8.10209C20.5277 7.2139 19.2211 6.65019 17.8366 6.47679C16.4521 6.30339 15.0468 6.52746 13.7849 7.12283C12.5229 7.7182 11.4564 8.6603 10.7099 9.83912C9.96333 11.0179 9.56755 12.3848 9.56877 13.7801V13.8313H9.51728C7.56501 13.8313 5.69271 14.6068 4.31225 15.9873C2.93179 17.3678 2.15625 19.2401 2.15625 21.1923C2.15625 23.1446 2.93179 25.0169 4.31225 26.3974C5.69271 27.7778 7.56501 28.5534 9.51728 28.5534H18.4866V32.1056L15.5789 35.0134C15.0381 34.6686 14.3891 34.5356 13.7563 34.6399C13.1236 34.7442 12.5515 35.0784 12.15 35.5784C11.7484 36.0785 11.5456 36.7092 11.5804 37.3495C11.6152 37.9899 11.8852 38.5949 12.3386 39.0485C12.792 39.502 13.3969 39.7723 14.0373 39.8073C14.6776 39.8424 15.3084 39.6399 15.8086 39.2385C16.3088 38.8372 16.6432 38.2653 16.7478 37.6325C16.8523 36.9998 16.7196 36.3507 16.375 35.8098L19.4478 32.737C19.5535 32.6315 19.6128 32.4883 19.6129 32.339V28.553H22.1873V35.8301C21.5635 35.9688 21.0129 36.3328 20.6409 36.8524C20.269 37.372 20.1018 38.0106 20.1716 38.6458C20.2414 39.281 20.5431 39.8681 21.019 40.2945C21.4949 40.721 22.1114 40.9568 22.7504 40.9568C23.3894 40.9568 24.0059 40.721 24.4818 40.2945C24.9577 39.8681 25.2594 39.281 25.3292 38.6458C25.399 38.0106 25.2319 37.372 24.8599 36.8524C24.4879 36.3328 23.9373 35.9688 23.3135 35.8301V28.553H25.8879V32.3393C25.888 32.4886 25.9473 32.6318 26.053 32.7373L29.1258 35.8101C28.7813 36.351 28.6486 37 28.7531 37.6326C28.8577 38.2653 29.1921 38.8371 29.6922 39.2384C30.1924 39.6396 30.823 39.8422 31.4633 39.8071C32.1036 39.772 32.7084 39.5018 33.1617 39.0483C33.615 38.5948 33.885 37.9899 33.9198 37.3496C33.9546 36.7093 33.7518 36.0787 33.3504 35.5788C32.9489 35.0788 32.3769 34.7446 31.7442 34.6403C31.1115 34.536 30.4626 34.669 29.9219 35.0137L27.0142 32.1056V28.553H35.9842C37.6809 28.5539 39.3258 27.9682 40.6402 26.8952C41.9546 25.8222 42.8577 24.3279 43.1965 22.6654C43.5353 21.0028 43.2891 19.2742 42.4994 17.7724C41.7098 16.2706 40.4253 15.0879 38.8636 14.4247ZM14.1881 38.6686C13.8977 38.6686 13.6138 38.5825 13.3723 38.4212C13.1308 38.2598 12.9426 38.0304 12.8315 37.7621C12.7204 37.4938 12.6913 37.1985 12.748 36.9137C12.8047 36.6289 12.9446 36.3672 13.15 36.1619C13.3553 35.9566 13.617 35.8167 13.9019 35.7601C14.1867 35.7035 14.482 35.7326 14.7503 35.8438C15.0186 35.955 15.2479 36.1432 15.4092 36.3848C15.5705 36.6263 15.6565 36.9102 15.6565 37.2006C15.656 37.5898 15.5011 37.9629 15.2259 38.2381C14.9507 38.5133 14.5776 38.6681 14.1884 38.6686H14.1881ZM24.2184 38.3613C24.2184 38.6517 24.1322 38.9354 23.9709 39.1768C23.8095 39.4182 23.5802 39.6063 23.312 39.7174C23.0437 39.8284 22.7486 39.8575 22.4638 39.8008C22.1791 39.7441 21.9175 39.6043 21.7122 39.3989C21.507 39.1936 21.3672 38.932 21.3106 38.6473C21.2539 38.3625 21.283 38.0674 21.3942 37.7991C21.5053 37.5309 21.6934 37.3017 21.9348 37.1404C22.1763 36.9791 22.4601 36.893 22.7504 36.893C23.1396 36.8935 23.5128 37.0484 23.788 37.3236C24.0632 37.5989 24.218 37.9721 24.2184 38.3613ZM32.7804 37.2006C32.7805 37.491 32.6944 37.775 32.5331 38.0165C32.3717 38.258 32.1424 38.4463 31.8741 38.5574C31.6058 38.6686 31.3105 38.6977 31.0257 38.6411C30.7408 38.5844 30.4791 38.4446 30.2738 38.2392C30.0684 38.0338 29.9285 37.7722 29.8719 37.4873C29.8153 37.2025 29.8444 36.9072 29.9555 36.6389C30.0667 36.3706 30.255 36.1412 30.4965 35.9799C30.738 35.8186 31.0219 35.7325 31.3124 35.7326C31.7016 35.733 32.0747 35.8878 32.3499 36.1629C32.6252 36.438 32.7801 36.8111 32.7807 37.2003L32.7804 37.2006ZM35.9838 27.4271H9.51664C7.86308 27.4271 6.27724 26.7702 5.108 25.601C3.93876 24.4317 3.28188 22.8459 3.28188 21.1923C3.28188 19.5388 3.93876 17.9529 5.108 16.7837C6.27724 15.6145 7.86308 14.9576 9.51664 14.9576C9.7007 14.9576 9.89539 14.9672 10.111 14.9878C10.1936 14.9956 10.2768 14.985 10.3548 14.9569C10.4328 14.9288 10.5037 14.8837 10.5623 14.8251C10.6209 14.7664 10.6658 14.6955 10.6938 14.6174C10.7218 14.5394 10.7322 14.4561 10.7243 14.3735C10.7041 14.1621 10.6941 13.9681 10.6941 13.7805C10.6927 12.5622 11.0487 11.3702 11.7179 10.3522C12.3871 9.33418 13.3403 8.5348 14.4593 8.05303C15.5783 7.57127 16.814 7.42827 18.0134 7.64176C19.2129 7.85525 20.3234 8.41583 21.2074 9.25411C21.3094 9.35032 21.4436 9.40507 21.5837 9.40769C21.7239 9.41031 21.86 9.3606 21.9655 9.26827C23.2548 8.13604 24.8232 7.36905 26.5085 7.04675C28.1938 6.72444 29.9346 6.85855 31.5507 7.43517C33.1667 8.01178 34.5992 9.00995 35.6998 10.3263C36.8004 11.6426 37.5291 13.2293 37.8103 14.9219C37.8265 15.0195 37.868 15.1112 37.9309 15.1877C37.9937 15.2642 38.0755 15.3228 38.1682 15.3576C39.5361 15.869 40.6809 16.8445 41.4027 18.114C42.1246 19.3835 42.3776 20.8661 42.1176 22.3032C41.8577 23.7402 41.1012 25.0402 39.9804 25.9763C38.8595 26.9124 37.4455 27.4251 35.9851 27.4248L35.9838 27.4271Z"/>
</mask>
<path d="M38.8636 14.4247C38.5068 12.6122 37.6891 10.9221 36.4892 9.5176C35.2892 8.11307 33.7477 7.04142 32.0131 6.406C30.2785 5.77059 28.4095 5.59285 26.5862 5.88994C24.7629 6.18702 23.047 6.9489 21.6039 8.10209C20.5277 7.2139 19.2211 6.65019 17.8366 6.47679C16.4521 6.30339 15.0468 6.52746 13.7849 7.12283C12.5229 7.7182 11.4564 8.6603 10.7099 9.83912C9.96333 11.0179 9.56755 12.3848 9.56877 13.7801V13.8313H9.51728C7.56501 13.8313 5.69271 14.6068 4.31225 15.9873C2.93179 17.3678 2.15625 19.2401 2.15625 21.1923C2.15625 23.1446 2.93179 25.0169 4.31225 26.3974C5.69271 27.7778 7.56501 28.5534 9.51728 28.5534H18.4866V32.1056L15.5789 35.0134C15.0381 34.6686 14.3891 34.5356 13.7563 34.6399C13.1236 34.7442 12.5515 35.0784 12.15 35.5784C11.7484 36.0785 11.5456 36.7092 11.5804 37.3495C11.6152 37.9899 11.8852 38.5949 12.3386 39.0485C12.792 39.502 13.3969 39.7723 14.0373 39.8073C14.6776 39.8424 15.3084 39.6399 15.8086 39.2385C16.3088 38.8372 16.6432 38.2653 16.7478 37.6325C16.8523 36.9998 16.7196 36.3507 16.375 35.8098L19.4478 32.737C19.5535 32.6315 19.6128 32.4883 19.6129 32.339V28.553H22.1873V35.8301C21.5635 35.9688 21.0129 36.3328 20.6409 36.8524C20.269 37.372 20.1018 38.0106 20.1716 38.6458C20.2414 39.281 20.5431 39.8681 21.019 40.2945C21.4949 40.721 22.1114 40.9568 22.7504 40.9568C23.3894 40.9568 24.0059 40.721 24.4818 40.2945C24.9577 39.8681 25.2594 39.281 25.3292 38.6458C25.399 38.0106 25.2319 37.372 24.8599 36.8524C24.4879 36.3328 23.9373 35.9688 23.3135 35.8301V28.553H25.8879V32.3393C25.888 32.4886 25.9473 32.6318 26.053 32.7373L29.1258 35.8101C28.7813 36.351 28.6486 37 28.7531 37.6326C28.8577 38.2653 29.1921 38.8371 29.6922 39.2384C30.1924 39.6396 30.823 39.8422 31.4633 39.8071C32.1036 39.772 32.7084 39.5018 33.1617 39.0483C33.615 38.5948 33.885 37.9899 33.9198 37.3496C33.9546 36.7093 33.7518 36.0787 33.3504 35.5788C32.9489 35.0788 32.3769 34.7446 31.7442 34.6403C31.1115 34.536 30.4626 34.669 29.9219 35.0137L27.0142 32.1056V28.553H35.9842C37.6809 28.5539 39.3258 27.9682 40.6402 26.8952C41.9546 25.8222 42.8577 24.3279 43.1965 22.6654C43.5353 21.0028 43.2891 19.2742 42.4994 17.7724C41.7098 16.2706 40.4253 15.0879 38.8636 14.4247ZM14.1881 38.6686C13.8977 38.6686 13.6138 38.5825 13.3723 38.4212C13.1308 38.2598 12.9426 38.0304 12.8315 37.7621C12.7204 37.4938 12.6913 37.1985 12.748 36.9137C12.8047 36.6289 12.9446 36.3672 13.15 36.1619C13.3553 35.9566 13.617 35.8167 13.9019 35.7601C14.1867 35.7035 14.482 35.7326 14.7503 35.8438C15.0186 35.955 15.2479 36.1432 15.4092 36.3848C15.5705 36.6263 15.6565 36.9102 15.6565 37.2006C15.656 37.5898 15.5011 37.9629 15.2259 38.2381C14.9507 38.5133 14.5776 38.6681 14.1884 38.6686H14.1881ZM24.2184 38.3613C24.2184 38.6517 24.1322 38.9354 23.9709 39.1768C23.8095 39.4182 23.5802 39.6063 23.312 39.7174C23.0437 39.8284 22.7486 39.8575 22.4638 39.8008C22.1791 39.7441 21.9175 39.6043 21.7122 39.3989C21.507 39.1936 21.3672 38.932 21.3106 38.6473C21.2539 38.3625 21.283 38.0674 21.3942 37.7991C21.5053 37.5309 21.6934 37.3017 21.9348 37.1404C22.1763 36.9791 22.4601 36.893 22.7504 36.893C23.1396 36.8935 23.5128 37.0484 23.788 37.3236C24.0632 37.5989 24.218 37.9721 24.2184 38.3613ZM32.7804 37.2006C32.7805 37.491 32.6944 37.775 32.5331 38.0165C32.3717 38.258 32.1424 38.4463 31.8741 38.5574C31.6058 38.6686 31.3105 38.6977 31.0257 38.6411C30.7408 38.5844 30.4791 38.4446 30.2738 38.2392C30.0684 38.0338 29.9285 37.7722 29.8719 37.4873C29.8153 37.2025 29.8444 36.9072 29.9555 36.6389C30.0667 36.3706 30.255 36.1412 30.4965 35.9799C30.738 35.8186 31.0219 35.7325 31.3124 35.7326C31.7016 35.733 32.0747 35.8878 32.3499 36.1629C32.6252 36.438 32.7801 36.8111 32.7807 37.2003L32.7804 37.2006ZM35.9838 27.4271H9.51664C7.86308 27.4271 6.27724 26.7702 5.108 25.601C3.93876 24.4317 3.28188 22.8459 3.28188 21.1923C3.28188 19.5388 3.93876 17.9529 5.108 16.7837C6.27724 15.6145 7.86308 14.9576 9.51664 14.9576C9.7007 14.9576 9.89539 14.9672 10.111 14.9878C10.1936 14.9956 10.2768 14.985 10.3548 14.9569C10.4328 14.9288 10.5037 14.8837 10.5623 14.8251C10.6209 14.7664 10.6658 14.6955 10.6938 14.6174C10.7218 14.5394 10.7322 14.4561 10.7243 14.3735C10.7041 14.1621 10.6941 13.9681 10.6941 13.7805C10.6927 12.5622 11.0487 11.3702 11.7179 10.3522C12.3871 9.33418 13.3403 8.5348 14.4593 8.05303C15.5783 7.57127 16.814 7.42827 18.0134 7.64176C19.2129 7.85525 20.3234 8.41583 21.2074 9.25411C21.3094 9.35032 21.4436 9.40507 21.5837 9.40769C21.7239 9.41031 21.86 9.3606 21.9655 9.26827C23.2548 8.13604 24.8232 7.36905 26.5085 7.04675C28.1938 6.72444 29.9346 6.85855 31.5507 7.43517C33.1667 8.01178 34.5992 9.00995 35.6998 10.3263C36.8004 11.6426 37.5291 13.2293 37.8103 14.9219C37.8265 15.0195 37.868 15.1112 37.9309 15.1877C37.9937 15.2642 38.0755 15.3228 38.1682 15.3576C39.5361 15.869 40.6809 16.8445 41.4027 18.114C42.1246 19.3835 42.3776 20.8661 42.1176 22.3032C41.8577 23.7402 41.1012 25.0402 39.9804 25.9763C38.8595 26.9124 37.4455 27.4251 35.9851 27.4248L35.9838 27.4271Z" fill="#D2E45D"/>
<path d="M38.8636 14.4247C38.5068 12.6122 37.6891 10.9221 36.4892 9.5176C35.2892 8.11307 33.7477 7.04142 32.0131 6.406C30.2785 5.77059 28.4095 5.59285 26.5862 5.88994C24.7629 6.18702 23.047 6.9489 21.6039 8.10209C20.5277 7.2139 19.2211 6.65019 17.8366 6.47679C16.4521 6.30339 15.0468 6.52746 13.7849 7.12283C12.5229 7.7182 11.4564 8.6603 10.7099 9.83912C9.96333 11.0179 9.56755 12.3848 9.56877 13.7801V13.8313H9.51728C7.56501 13.8313 5.69271 14.6068 4.31225 15.9873C2.93179 17.3678 2.15625 19.2401 2.15625 21.1923C2.15625 23.1446 2.93179 25.0169 4.31225 26.3974C5.69271 27.7778 7.56501 28.5534 9.51728 28.5534H18.4866V32.1056L15.5789 35.0134C15.0381 34.6686 14.3891 34.5356 13.7563 34.6399C13.1236 34.7442 12.5515 35.0784 12.15 35.5784C11.7484 36.0785 11.5456 36.7092 11.5804 37.3495C11.6152 37.9899 11.8852 38.5949 12.3386 39.0485C12.792 39.502 13.3969 39.7723 14.0373 39.8073C14.6776 39.8424 15.3084 39.6399 15.8086 39.2385C16.3088 38.8372 16.6432 38.2653 16.7478 37.6325C16.8523 36.9998 16.7196 36.3507 16.375 35.8098L19.4478 32.737C19.5535 32.6315 19.6128 32.4883 19.6129 32.339V28.553H22.1873V35.8301C21.5635 35.9688 21.0129 36.3328 20.6409 36.8524C20.269 37.372 20.1018 38.0106 20.1716 38.6458C20.2414 39.281 20.5431 39.8681 21.019 40.2945C21.4949 40.721 22.1114 40.9568 22.7504 40.9568C23.3894 40.9568 24.0059 40.721 24.4818 40.2945C24.9577 39.8681 25.2594 39.281 25.3292 38.6458C25.399 38.0106 25.2319 37.372 24.8599 36.8524C24.4879 36.3328 23.9373 35.9688 23.3135 35.8301V28.553H25.8879V32.3393C25.888 32.4886 25.9473 32.6318 26.053 32.7373L29.1258 35.8101C28.7813 36.351 28.6486 37 28.7531 37.6326C28.8577 38.2653 29.1921 38.8371 29.6922 39.2384C30.1924 39.6396 30.823 39.8422 31.4633 39.8071C32.1036 39.772 32.7084 39.5018 33.1617 39.0483C33.615 38.5948 33.885 37.9899 33.9198 37.3496C33.9546 36.7093 33.7518 36.0787 33.3504 35.5788C32.9489 35.0788 32.3769 34.7446 31.7442 34.6403C31.1115 34.536 30.4626 34.669 29.9219 35.0137L27.0142 32.1056V28.553H35.9842C37.6809 28.5539 39.3258 27.9682 40.6402 26.8952C41.9546 25.8222 42.8577 24.3279 43.1965 22.6654C43.5353 21.0028 43.2891 19.2742 42.4994 17.7724C41.7098 16.2706 40.4253 15.0879 38.8636 14.4247ZM14.1881 38.6686C13.8977 38.6686 13.6138 38.5825 13.3723 38.4212C13.1308 38.2598 12.9426 38.0304 12.8315 37.7621C12.7204 37.4938 12.6913 37.1985 12.748 36.9137C12.8047 36.6289 12.9446 36.3672 13.15 36.1619C13.3553 35.9566 13.617 35.8167 13.9019 35.7601C14.1867 35.7035 14.482 35.7326 14.7503 35.8438C15.0186 35.955 15.2479 36.1432 15.4092 36.3848C15.5705 36.6263 15.6565 36.9102 15.6565 37.2006C15.656 37.5898 15.5011 37.9629 15.2259 38.2381C14.9507 38.5133 14.5776 38.6681 14.1884 38.6686H14.1881ZM24.2184 38.3613C24.2184 38.6517 24.1322 38.9354 23.9709 39.1768C23.8095 39.4182 23.5802 39.6063 23.312 39.7174C23.0437 39.8284 22.7486 39.8575 22.4638 39.8008C22.1791 39.7441 21.9175 39.6043 21.7122 39.3989C21.507 39.1936 21.3672 38.932 21.3106 38.6473C21.2539 38.3625 21.283 38.0674 21.3942 37.7991C21.5053 37.5309 21.6934 37.3017 21.9348 37.1404C22.1763 36.9791 22.4601 36.893 22.7504 36.893C23.1396 36.8935 23.5128 37.0484 23.788 37.3236C24.0632 37.5989 24.218 37.9721 24.2184 38.3613ZM32.7804 37.2006C32.7805 37.491 32.6944 37.775 32.5331 38.0165C32.3717 38.258 32.1424 38.4463 31.8741 38.5574C31.6058 38.6686 31.3105 38.6977 31.0257 38.6411C30.7408 38.5844 30.4791 38.4446 30.2738 38.2392C30.0684 38.0338 29.9285 37.7722 29.8719 37.4873C29.8153 37.2025 29.8444 36.9072 29.9555 36.6389C30.0667 36.3706 30.255 36.1412 30.4965 35.9799C30.738 35.8186 31.0219 35.7325 31.3124 35.7326C31.7016 35.733 32.0747 35.8878 32.3499 36.1629C32.6252 36.438 32.7801 36.8111 32.7807 37.2003L32.7804 37.2006ZM35.9838 27.4271H9.51664C7.86308 27.4271 6.27724 26.7702 5.108 25.601C3.93876 24.4317 3.28188 22.8459 3.28188 21.1923C3.28188 19.5388 3.93876 17.9529 5.108 16.7837C6.27724 15.6145 7.86308 14.9576 9.51664 14.9576C9.7007 14.9576 9.89539 14.9672 10.111 14.9878C10.1936 14.9956 10.2768 14.985 10.3548 14.9569C10.4328 14.9288 10.5037 14.8837 10.5623 14.8251C10.6209 14.7664 10.6658 14.6955 10.6938 14.6174C10.7218 14.5394 10.7322 14.4561 10.7243 14.3735C10.7041 14.1621 10.6941 13.9681 10.6941 13.7805C10.6927 12.5622 11.0487 11.3702 11.7179 10.3522C12.3871 9.33418 13.3403 8.5348 14.4593 8.05303C15.5783 7.57127 16.814 7.42827 18.0134 7.64176C19.2129 7.85525 20.3234 8.41583 21.2074 9.25411C21.3094 9.35032 21.4436 9.40507 21.5837 9.40769C21.7239 9.41031 21.86 9.3606 21.9655 9.26827C23.2548 8.13604 24.8232 7.36905 26.5085 7.04675C28.1938 6.72444 29.9346 6.85855 31.5507 7.43517C33.1667 8.01178 34.5992 9.00995 35.6998 10.3263C36.8004 11.6426 37.5291 13.2293 37.8103 14.9219C37.8265 15.0195 37.868 15.1112 37.9309 15.1877C37.9937 15.2642 38.0755 15.3228 38.1682 15.3576C39.5361 15.869 40.6809 16.8445 41.4027 18.114C42.1246 19.3835 42.3776 20.8661 42.1176 22.3032C41.8577 23.7402 41.1012 25.0402 39.9804 25.9763C38.8595 26.9124 37.4455 27.4251 35.9851 27.4248L35.9838 27.4271Z" stroke="#D2E45D" stroke-width="0.4" mask="url(#path-2-outside-1_18_1041)"/>
<path d="M36.5475 30.1883L36.5474 30.1883C36.0144 30.1883 35.4934 30.3462 35.0502 30.6423C34.607 30.9383 34.2616 31.3592 34.0576 31.8515C33.8536 32.3439 33.8002 32.8857 33.9041 33.4084C34.0081 33.9312 34.2647 34.4113 34.6415 34.7882C35.0183 35.1651 35.4985 35.4218 36.0212 35.5258C36.5439 35.6298 37.0857 35.5764 37.5781 35.3725C38.0705 35.1685 38.4914 34.8232 38.7875 34.38C39.0836 33.9369 39.2416 33.4159 39.2416 32.8829V32.8828C39.2408 32.1685 38.9568 31.4837 38.4517 30.9785C37.9466 30.4734 37.2618 30.1892 36.5475 30.1883ZM36.5472 34.251C36.2766 34.251 36.012 34.1708 35.787 34.0205C35.5619 33.8702 35.3865 33.6565 35.2829 33.4064C35.1793 33.1564 35.1522 32.8812 35.2049 32.6158C35.2577 32.3503 35.3881 32.1064 35.5795 31.9151C35.7708 31.7237 36.0147 31.5934 36.2801 31.5406C36.5456 31.4878 36.8208 31.5149 37.0708 31.6185C37.3208 31.7221 37.5345 31.8975 37.6849 32.1226C37.8352 32.3476 37.9154 32.6122 37.9154 32.8828C37.9149 33.2455 37.7706 33.5932 37.5141 33.8497C37.2576 34.1062 36.9099 34.2505 36.5472 34.251Z" fill="#D2E45D" stroke="#D2E45D" stroke-width="0.2"/>
<path d="M8.95371 30.1883L8.9536 30.1883C8.42064 30.1883 7.89963 30.3462 7.45646 30.6423C7.01329 30.9383 6.66786 31.3592 6.46386 31.8515C6.25985 32.3439 6.20644 32.8857 6.31038 33.4084C6.41431 33.9312 6.67093 34.4113 7.04776 34.7882C7.4246 35.1651 7.90473 35.4218 8.42745 35.5258C8.95016 35.6298 9.49198 35.5764 9.98438 35.3725C10.4768 35.1685 10.8976 34.8232 11.1937 34.38C11.4898 33.9369 11.6479 33.4159 11.6479 32.8829V32.8828C11.6471 32.1685 11.363 31.4837 10.8579 30.9785C10.3529 30.4734 9.66804 30.1892 8.95371 30.1883ZM8.95346 34.251C8.68284 34.251 8.41828 34.1708 8.19324 34.0205C7.96817 33.8702 7.79274 33.6565 7.68914 33.4064C7.58553 33.1564 7.55841 32.8812 7.6112 32.6158C7.66399 32.3503 7.79432 32.1064 7.9857 31.9151C8.17709 31.7237 8.42093 31.5934 8.68639 31.5406C8.95185 31.4878 9.227 31.5149 9.47705 31.6185C9.72709 31.7221 9.9408 31.8975 10.0911 32.1226C10.2414 32.3476 10.3216 32.6122 10.3216 32.8828C10.3211 33.2455 10.1768 33.5932 9.92036 33.8497C9.66389 34.1062 9.31617 34.2505 8.95346 34.251Z" fill="#D2E45D" stroke="#D2E45D" stroke-width="0.2"/>
</svg>
