<svg width="46" height="46" viewBox="0 0 46 46" fill="none" xmlns="http://www.w3.org/2000/svg">
<circle cx="22.875" cy="22.875" r="20" stroke="#D2E45D" stroke-width="1.7"/>
<circle cx="22.875" cy="22.8753" r="17.1429" stroke="#D2E45D" stroke-width="1.7"/>
<g clip-path="url(#clip0_18_1050)">
<path d="M22.875 32.875C28.3978 32.875 32.875 28.3978 32.875 22.875C32.875 17.3522 28.3978 12.875 22.875 12.875C17.3522 12.875 12.875 17.3522 12.875 22.875C12.875 28.3978 17.3522 32.875 22.875 32.875Z" fill="#C3D647"/>
<path d="M22.8752 31.0646C27.3982 31.0646 31.0649 27.398 31.0649 22.875C31.0649 18.3519 27.3982 14.6853 22.8752 14.6853C18.3522 14.6853 14.6855 18.3519 14.6855 22.875C14.6855 27.398 18.3522 31.0646 22.8752 31.0646Z" fill="#D2E45D"/>
<path d="M28.9315 21.8781C28.9964 22.2702 29.0238 22.6747 29.0095 23.0873C29.0023 23.2936 28.8146 23.4464 28.6107 23.4146C26.8915 23.1472 25.5709 21.758 25.7194 19.929C27.0032 20.4489 28.1479 21.1841 28.9315 21.8781Z" fill="#AFBF49"/>
<path d="M28.9314 21.8781C28.1448 21.1814 26.9994 20.4474 25.7194 19.9289C23.4616 19.0143 21.6228 19.0535 20.6353 18.3112C20.1965 17.9815 20.309 17.297 20.8258 17.1117C24.4719 15.8051 28.3192 18.1834 28.9314 21.8781Z" fill="#C3D647"/>
<path d="M18.7407 19.1514C19.7795 23.247 23.912 25.833 28.0718 24.9462C28.3507 24.8867 28.5745 25.1712 28.4553 25.4304C27.4843 27.5411 25.3477 29.0043 22.8702 28.9956C19.5039 28.984 16.7595 26.2189 16.7715 22.8525C16.7767 21.3999 17.2878 20.0667 18.1378 19.0198C18.3171 18.799 18.6708 18.8757 18.7407 19.1514Z" fill="#C3D647"/>
</g>
<defs>
<clipPath id="clip0_18_1050">
<rect width="20" height="20" fill="white" transform="translate(12.875 12.875)"/>
</clipPath>
</defs>
</svg>
