<svg width="46" height="46" viewBox="0 0 46 46" fill="none" xmlns="http://www.w3.org/2000/svg">
<path d="M23.0001 13.4642C17.1501 13.4642 11.5434 12.2066 7.61764 10.0137C7.46102 9.92616 7.35267 9.77232 7.32305 9.59536C7.29343 9.4184 7.34591 9.23764 7.46549 9.10397C11.418 4.68864 17.0801 2.15625 23.0001 2.15625C28.92 2.15625 34.5821 4.68864 38.5345 9.10405C38.6542 9.23764 38.7066 9.41848 38.6769 9.59544C38.6473 9.7724 38.539 9.92624 38.3824 10.0138C34.4566 12.2066 28.85 13.4642 23.0001 13.4642ZM8.86194 9.33739C12.5744 11.215 17.6728 12.2828 23.0001 12.2828C28.3274 12.2828 33.4257 11.215 37.1381 9.33739C33.4417 5.51547 28.3316 3.33768 23.0001 3.33768C17.6686 3.33768 12.5585 5.51547 8.86194 9.33739Z" fill="#D2E45D" stroke="#D2E45D" stroke-width="0.3"/>
<path d="M31.4851 12.5347C31.2364 12.5347 31.005 12.3764 30.9237 12.1271C30.0457 9.43738 28.8476 7.2028 27.4588 5.66492C26.0839 4.14248 24.542 3.33768 23.0001 3.33768C21.4581 3.33768 19.9163 4.14248 18.5414 5.665C17.1526 7.20288 15.9545 9.43747 15.0765 12.1272C14.9753 12.4373 14.6419 12.6069 14.3316 12.5054C14.0215 12.4041 13.8521 12.0707 13.9534 11.7605C15.9165 5.74661 19.2984 2.15625 23.0001 2.15625C26.7018 2.15625 30.0837 5.74661 32.0467 11.7605C32.148 12.0706 31.9786 12.4041 31.6685 12.5054C31.6076 12.5252 31.5459 12.5347 31.4851 12.5347Z" fill="#D2E45D" stroke="#D2E45D" stroke-width="0.3"/>
<path d="M3.64029 29.5528C3.62797 29.5528 3.61548 29.5524 3.60299 29.5517C3.35785 29.5362 3.1478 29.3706 3.07557 29.1358C2.46553 27.1539 2.15625 25.0894 2.15625 23C2.15625 17.864 4.04181 12.9289 7.4655 9.10402C7.64997 8.89812 7.9525 8.8474 8.19368 8.98225C10.0057 9.99448 12.1773 10.7972 14.6479 11.3682C14.8094 11.4055 14.9477 11.509 15.0292 11.6533C15.1108 11.7976 15.1278 11.9695 15.0764 12.127C14.0217 15.3582 13.4642 19.1181 13.4642 23C13.4642 23.3262 13.1997 23.5907 12.8735 23.5907C9.13216 23.5907 5.71918 25.7945 4.17843 29.2053C4.08248 29.4178 3.87118 29.5528 3.64029 29.5528ZM8.03933 10.2425C5.004 13.7988 3.33768 18.3106 3.33768 23C3.33768 24.48 3.50206 25.9467 3.82746 27.3768C5.67235 24.4805 8.82397 22.6156 12.2867 22.4254C12.336 18.8641 12.8425 15.4126 13.7619 12.3697C11.6206 11.8315 9.70034 11.1177 8.03933 10.2425Z" fill="#D2E45D" stroke="#D2E45D" stroke-width="0.3"/>
<path d="M38.0939 37.0927C37.9957 37.0927 37.8966 37.0682 37.8062 37.0177C35.9936 36.0054 33.8221 35.2026 31.352 34.6318C31.1906 34.5945 31.0521 34.491 30.9707 34.3467C30.8892 34.2024 30.872 34.0305 30.9234 33.873C31.9783 30.6417 32.5357 26.8818 32.5357 23C32.5357 19.1181 31.9783 15.3584 30.9235 12.127C30.8721 11.9695 30.8892 11.7976 30.9707 11.6533C31.0522 11.509 31.1905 11.4055 31.3521 11.3682C33.8227 10.7972 35.9943 9.99449 37.8062 8.98226C38.0474 8.84749 38.35 8.89795 38.5344 9.10403C41.9581 12.9289 43.8437 17.8639 43.8437 23C43.8437 28.136 41.9581 33.0711 38.5343 36.896C38.4192 37.0247 38.2577 37.0927 38.0939 37.0927ZM32.238 33.6302C34.3788 34.1683 36.2993 34.8823 37.9605 35.7575C40.9958 32.2011 42.6622 27.6893 42.6622 23C42.6622 18.3106 40.9959 13.7989 37.9605 10.2425C36.2995 11.1178 34.3793 11.8315 32.2379 12.3697C33.2068 15.5761 33.7172 19.2359 33.7172 23C33.7172 26.764 33.2068 30.4239 32.238 33.6302Z" fill="#D2E45D" stroke="#D2E45D" stroke-width="0.3"/>
<path d="M22.9999 43.8437C20.9095 43.8437 18.8448 43.5345 16.8632 42.9247C16.6285 42.8524 16.4628 42.6423 16.4475 42.3972C16.432 42.1519 16.57 41.9228 16.7939 41.8217C17.3554 41.5682 17.8956 41.2576 18.3995 40.8987C18.6277 40.7361 18.9387 40.7562 19.1441 40.9468C20.3706 42.0851 21.6679 42.6623 22.9999 42.6623C23.3262 42.6623 23.5906 42.9268 23.5906 43.253C23.5906 43.5793 23.3262 43.8437 22.9999 43.8437ZM18.6223 42.1727C18.6805 42.1858 18.7388 42.1989 18.7972 42.2116C18.763 42.1835 18.7288 42.155 18.6946 42.1262C18.6705 42.1418 18.6464 42.1573 18.6223 42.1727Z" fill="#D2E45D" stroke="#D2E45D" stroke-width="0.3"/>
<path d="M23.0001 43.8438C22.6739 43.8438 22.4094 43.5793 22.4094 43.2531C22.4094 42.9269 22.6739 42.6624 23.0001 42.6624C24.5421 42.6624 26.0839 41.8577 27.4588 40.3351C28.8476 38.7972 30.0457 36.5627 30.9237 33.8731C31.0187 33.5821 31.3201 33.412 31.6182 33.4808C34.1974 34.0769 36.4732 34.9199 38.3825 35.9864C38.539 36.0739 38.6475 36.2277 38.677 36.4047C38.7065 36.5817 38.6541 36.7624 38.5346 36.8961C34.5822 41.3114 28.9201 43.8438 23.0001 43.8438ZM31.8725 34.7566C30.7025 38.1174 29.078 40.6734 27.2053 42.2058C30.9628 41.3807 34.4299 39.4631 37.1384 36.6624C35.6032 35.8843 33.8372 35.245 31.8725 34.7566Z" fill="#D2E45D" stroke="#D2E45D" stroke-width="0.3"/>
<path d="M23 43.8438C21.3602 43.8438 19.7926 43.1605 18.3405 41.8129C18.2103 41.692 18.1414 41.519 18.1528 41.3417C18.1643 41.1645 18.2549 41.0018 18.3996 40.8988C20.9103 39.1102 22.4093 36.2047 22.4093 33.1266C22.4093 32.8004 22.6737 32.5359 23 32.5359C26.0055 32.5359 28.9052 32.8539 31.6181 33.4808C31.7795 33.5181 31.918 33.6215 31.9994 33.7658C32.0809 33.9101 32.0981 34.082 32.0467 34.2396C30.0836 40.2535 26.7016 43.8438 23 43.8438ZM19.68 41.405C20.7462 42.24 21.8603 42.6624 23 42.6624C24.5419 42.6624 26.0838 41.8577 27.4587 40.3352C28.7396 38.9166 29.8585 36.9052 30.7133 34.491C28.4471 34.0142 26.051 33.7558 23.574 33.7213C23.4071 36.7087 21.9888 39.5029 19.68 41.405Z" fill="#D2E45D" stroke="#D2E45D" stroke-width="0.3"/>
<path d="M12.8735 43.8436C6.96398 43.8436 2.15625 39.0359 2.15625 33.1264C2.15625 31.5909 2.47439 30.1079 3.10181 28.7189C4.83328 24.886 8.66887 22.4092 12.8735 22.4092C18.783 22.4092 23.5907 27.2169 23.5907 33.1264C23.5907 36.5858 21.9064 39.851 19.0851 41.8608C18.5188 42.2642 17.9115 42.6134 17.2801 42.8984C15.8914 43.5256 14.4087 43.8436 12.8735 43.8436ZM12.8735 23.5906C9.13224 23.5906 5.71918 25.7945 4.17843 29.2053C3.62054 30.4404 3.33768 31.7598 3.33768 33.1264C3.33768 38.3845 7.61537 42.6622 12.8735 42.6622C14.2399 42.6622 15.5589 42.3793 16.794 41.8216C17.3556 41.5681 17.8958 41.2575 18.3997 40.8986C20.9104 39.11 22.4093 36.2045 22.4093 33.1264C22.4093 27.8683 18.1316 23.5906 12.8735 23.5906Z" fill="#D2E45D" stroke="#D2E45D" stroke-width="0.3"/>
<path d="M12.8734 40.4684C10.6865 40.4684 8.90723 38.6891 8.90723 36.5021C8.90723 36.1759 9.1717 35.9114 9.49794 35.9114C9.82418 35.9114 10.0887 36.1759 10.0887 36.5021C10.0887 38.0377 11.3379 39.2869 12.8734 39.2869C14.409 39.2869 15.6582 38.0377 15.6582 36.5021C15.6582 34.9666 14.409 33.7174 12.8734 33.7174C10.6865 33.7174 8.90723 31.9381 8.90723 29.7511C8.90723 27.5641 10.6865 25.7849 12.8734 25.7849C15.0604 25.7849 16.8397 27.5641 16.8397 29.7511C16.8397 30.0774 16.5752 30.3418 16.249 30.3418C15.9227 30.3418 15.6582 30.0774 15.6582 29.7511C15.6582 28.2156 14.409 26.9663 12.8734 26.9663C11.3379 26.9663 10.0887 28.2156 10.0887 29.7511C10.0887 31.2866 11.3379 32.5359 12.8734 32.5359C15.0604 32.5359 16.8397 34.3152 16.8397 36.5021C16.8397 38.6891 15.0604 40.4684 12.8734 40.4684Z" fill="#D2E45D" stroke="#D2E45D" stroke-width="0.3"/>
<path d="M12.8734 41.3121C12.5472 41.3121 12.2827 41.0477 12.2827 40.7214V25.5316C12.2827 25.2054 12.5472 24.9409 12.8734 24.9409C13.1997 24.9409 13.4641 25.2054 13.4641 25.5316V40.7214C13.4641 41.0477 13.1997 41.3121 12.8734 41.3121Z" fill="#D2E45D" stroke="#D2E45D" stroke-width="0.3"/>
<path d="M23.0001 43.8438C22.6739 43.8438 22.4094 43.5793 22.4094 43.253V2.74696C22.4094 2.42072 22.6739 2.15625 23.0001 2.15625C23.3264 2.15625 23.5909 2.42072 23.5909 2.74696V43.253C23.5909 43.5793 23.3264 43.8438 23.0001 43.8438Z" fill="#D2E45D"/>
<path d="M43.253 23.5906H2.74696C2.42072 23.5906 2.15625 23.3261 2.15625 22.9999C2.15625 22.6737 2.42072 22.4092 2.74696 22.4092H43.253C43.5793 22.4092 43.8438 22.6737 43.8438 22.9999C43.8438 23.3261 43.5793 23.5906 43.253 23.5906Z" fill="#D2E45D"/>
</svg>
