<svg width="229" height="40" viewBox="0 0 229 40" fill="none" xmlns="http://www.w3.org/2000/svg">
<g clip-path="url(#clip0_0_549)">
<path d="M52.0003 25.1518H46.8646V14.8875H51.384C52.1178 14.8875 52.7475 14.9559 53.2728 15.0927C53.7961 15.2315 54.2059 15.4296 54.5023 15.6873C54.8006 15.9447 55.0164 16.2396 55.1492 16.5716C55.2841 16.9035 55.3516 17.2828 55.3516 17.7093C55.3516 17.9549 55.3138 18.1952 55.2381 18.4307C55.1604 18.6681 55.0624 18.8683 54.9437 19.0312C54.8272 19.1962 54.722 19.332 54.628 19.4387C54.5319 19.5434 54.447 19.6227 54.3735 19.6772C54.8763 19.9286 55.2627 20.2677 55.5324 20.6942C55.8022 21.1207 55.9372 21.6097 55.9372 22.161C55.9372 22.5935 55.8636 22.9849 55.7164 23.3349C55.5693 23.6871 55.3445 24.0019 55.042 24.2796C54.7394 24.5573 54.3306 24.7716 53.8155 24.9225C53.2983 25.0753 52.6933 25.1518 52.0003 25.1518ZM49.3788 21.0322V23.0211H51.706C52.7199 23.0211 53.2268 22.6902 53.2268 22.0281C53.2268 21.664 53.1031 21.4074 52.8558 21.2586C52.6084 21.1077 52.2252 21.0322 51.706 21.0322H49.3788ZM49.3788 17.0031V19.146H51.5343C52.0699 19.146 52.4418 19.0614 52.6503 18.8923C52.861 18.7234 52.9662 18.4347 52.9662 18.0263C52.9662 17.3441 52.4888 17.0031 51.5343 17.0031H49.3788ZM65.6843 25.1518H57.6972V14.8875H65.6843V17.1872H60.2114V18.9467H64.7767V21.0926H60.2114V22.8612H65.6843V25.1518ZM75.7074 25.1518H67.7202V14.8875H70.2343V22.8612H75.7074V25.1518ZM80.0091 25.1518H77.4949V14.8875H80.0091V19.4054L83.992 14.8875H87.1531L83.5658 19.0283L87.9166 25.1518H84.6512L81.7998 20.9145L80.0091 22.846V25.1518ZM88.1925 20.0241C88.1925 19.3058 88.3336 18.6208 88.6157 17.969C88.8977 17.315 89.2779 16.7496 89.7562 16.2727C90.2345 15.7959 90.8059 15.4166 91.4702 15.1349C92.1344 14.8532 92.8335 14.7124 93.5673 14.7124C94.291 14.7124 94.986 14.8532 95.6524 15.1349C96.3186 15.4166 96.891 15.7959 97.3693 16.2727C97.8477 16.7496 98.2309 17.3159 98.5191 17.9719C98.8052 18.6278 98.9483 19.3119 98.9483 20.0241C98.9483 20.7404 98.8063 21.4266 98.5222 22.0825C98.238 22.7385 97.8547 23.3038 97.3724 23.7786C96.892 24.2514 96.3186 24.6296 95.6524 24.9135C94.986 25.1952 94.291 25.336 93.5673 25.336C92.5883 25.336 91.6859 25.0975 90.8601 24.6206C90.0342 24.1438 89.3831 23.4989 88.9068 22.686C88.4306 21.8732 88.1925 20.986 88.1925 20.0241ZM90.489 20.0241C90.489 20.8592 90.7905 21.5705 91.3935 22.1579C91.9945 22.7434 92.7191 23.0362 93.5673 23.0362C94.4054 23.0362 95.124 22.7434 95.7228 22.1579C96.3217 21.5705 96.6211 20.8592 96.6211 20.0241C96.6211 19.1993 96.3217 18.492 95.7228 17.9024C95.124 17.313 94.4054 17.0181 93.5673 17.0181C92.7191 17.0181 91.9945 17.3109 91.3935 17.8965C90.7905 18.4839 90.489 19.1932 90.489 20.0241ZM107.31 17.1872H103.621V14.8875H113.552V17.1872H109.855V25.1518H107.31V17.1872ZM123.253 25.1518H115.266V14.8875H123.253V17.1872H117.783V18.9467H122.349V21.0926H117.783V22.8612H123.253V25.1518ZM124.4 19.9427C124.4 19.2344 124.542 18.5614 124.826 17.9236C125.11 17.2857 125.5 16.7305 125.994 16.2577C126.489 15.7869 127.088 15.4116 127.791 15.1319C128.494 14.8522 129.245 14.7124 130.045 14.7124C131.132 14.7124 132.101 14.9418 132.951 15.4005C133.804 15.8592 134.469 16.4841 134.947 17.2747L132.813 18.4971C132.56 18.0162 132.196 17.6368 131.722 17.3593C131.248 17.0816 130.689 16.9427 130.045 16.9427C129.141 16.9427 128.398 17.2295 127.816 17.8028C127.235 18.3743 126.945 19.0876 126.945 19.9427C126.945 20.4819 127.075 20.9849 127.334 21.4517C127.594 21.9185 127.962 22.2948 128.438 22.5804C128.914 22.8661 129.45 23.009 130.045 23.009C130.664 23.009 131.209 22.8681 131.679 22.5864C132.151 22.3069 132.519 21.9285 132.783 21.4517L134.917 22.662C134.428 23.4667 133.76 24.1136 132.911 24.6025C132.063 25.0914 131.108 25.336 130.045 25.336C129.241 25.336 128.489 25.1961 127.788 24.9164C127.087 24.6367 126.489 24.2575 125.994 23.7786C125.5 23.2998 125.11 22.7283 124.826 22.0644C124.542 21.4004 124.4 20.6932 124.4 19.9427ZM139.117 25.1518H136.6V14.8875H139.117V18.8742H143.698V14.8875H146.228V25.1518H143.698V21.165H139.117V25.1518ZM150.928 25.1518H148.398V14.8875H150.928L156.204 21.15V14.8875H158.737V25.1518H156.204L150.928 18.8742V25.1518ZM160.249 20.0241C160.249 19.3058 160.389 18.6208 160.672 17.969C160.954 17.315 161.334 16.7496 161.812 16.2727C162.29 15.7959 162.862 15.4166 163.526 15.1349C164.191 14.8532 164.89 14.7124 165.624 14.7124C166.348 14.7124 167.042 14.8532 167.708 15.1349C168.375 15.4166 168.948 15.7959 169.426 16.2727C169.904 16.7496 170.287 17.3159 170.575 17.9719C170.861 18.6278 171.004 19.3119 171.004 20.0241C171.004 20.7404 170.863 21.4266 170.578 22.0825C170.294 22.7385 169.911 23.3038 169.429 23.7786C168.948 24.2514 168.375 24.6296 167.708 24.9135C167.042 25.1952 166.348 25.336 165.624 25.336C164.644 25.336 163.743 25.0975 162.916 24.6206C162.091 24.1438 161.44 23.4989 160.964 22.686C160.487 21.8732 160.249 20.986 160.249 20.0241ZM162.545 20.0241C162.545 20.8592 162.848 21.5705 163.45 22.1579C164.051 22.7434 164.775 23.0362 165.624 23.0362C166.461 23.0362 167.181 22.7434 167.778 22.1579C168.378 21.5705 168.677 20.8592 168.677 20.0241C168.677 19.1993 168.378 18.492 167.778 17.9024C167.181 17.313 166.461 17.0181 165.624 17.0181C164.775 17.0181 164.051 17.3109 163.45 17.8965C162.848 18.4839 162.545 19.1932 162.545 20.0241ZM180.648 25.1518H172.661V14.8875H175.174V22.8612H180.648V25.1518ZM181.224 20.0241C181.224 19.3058 181.364 18.6208 181.646 17.969C181.93 17.315 182.31 16.7496 182.788 16.2727C183.266 15.7959 183.837 15.4166 184.502 15.1349C185.167 14.8532 185.866 14.7124 186.599 14.7124C187.323 14.7124 188.017 14.8532 188.684 15.1349C189.349 15.4166 189.92 15.7959 190.401 16.2727C190.879 16.7496 191.262 17.3159 191.55 17.9719C191.837 18.6278 191.98 19.3119 191.98 20.0241C191.98 20.7404 191.838 21.4266 191.553 22.0825C191.27 22.7385 190.887 23.3038 190.404 23.7786C189.922 24.2514 189.349 24.6296 188.684 24.9135C188.017 25.1952 187.323 25.336 186.599 25.336C185.62 25.336 184.717 25.0975 183.891 24.6206C183.066 24.1438 182.414 23.4989 181.939 22.686C181.463 21.8732 181.224 20.986 181.224 20.0241ZM183.521 20.0241C183.521 20.8592 183.821 21.5705 184.422 22.1579C185.025 22.7434 185.75 23.0362 186.599 23.0362C187.437 23.0362 188.156 22.7434 188.754 22.1579C189.353 21.5705 189.652 20.8592 189.652 20.0241C189.652 19.1993 189.353 18.492 188.754 17.9024C188.156 17.313 187.437 17.0181 186.599 17.0181C185.75 17.0181 185.025 17.3109 184.422 17.8965C183.821 18.4839 183.521 19.1932 183.521 20.0241ZM193.124 20.0241C193.124 19.3159 193.266 18.6379 193.552 17.99C193.837 17.3421 194.227 16.7768 194.722 16.2939C195.214 15.8129 195.815 15.4287 196.523 15.141C197.233 14.8553 197.987 14.7124 198.784 14.7124C199.763 14.7124 200.651 14.9126 201.448 15.313C202.246 15.7113 202.916 16.2597 203.456 16.9578L201.286 18.0413C200.742 17.3693 199.897 17.0333 198.753 17.0333C197.845 17.0333 197.102 17.313 196.523 17.8722C195.945 18.4316 195.656 19.1389 195.656 19.9939C195.656 20.8249 195.952 21.5372 196.545 22.1308C197.14 22.7244 197.885 23.0211 198.784 23.0211C199.871 23.0211 200.724 22.7343 201.343 22.161V21.165H198.17V19.2637H203.567V23.0664C203.542 23.1207 203.467 23.2192 203.343 23.3622C203.218 23.505 203.014 23.6931 202.732 23.9265C202.45 24.1579 202.134 24.3762 201.783 24.5814C201.431 24.7846 200.988 24.9618 200.458 25.1126C199.927 25.2615 199.374 25.336 198.799 25.336C197.96 25.336 197.182 25.189 196.462 24.8952C195.745 24.5996 195.145 24.2062 194.663 23.7153C194.183 23.2243 193.806 22.6589 193.534 22.0191C193.26 21.3812 193.124 20.7164 193.124 20.0241ZM207.985 25.1518H205.468V14.8875H207.985V25.1518ZM218.299 25.1518H210.312V14.8875H218.299V17.1872H212.826V18.9467H217.394V21.0926H212.826V22.8612H218.299V25.1518ZM219.857 21.5634H222.356C222.362 21.6076 222.373 21.667 222.389 21.7414C222.408 21.8139 222.465 21.9437 222.562 22.1308C222.66 22.3179 222.781 22.4828 222.929 22.6257C223.076 22.7665 223.298 22.8963 223.597 23.0151C223.898 23.1337 224.24 23.1932 224.625 23.1932C225.143 23.1932 225.529 23.1026 225.78 22.9214C226.032 22.7424 226.158 22.5302 226.158 22.2847C226.158 22.1579 226.123 22.0433 226.051 21.9406C225.979 21.8361 225.894 21.7495 225.796 21.6811C225.697 21.6126 225.557 21.5452 225.372 21.4788C225.188 21.4125 225.026 21.3611 224.885 21.325C224.746 21.2867 224.558 21.2384 224.318 21.1801C223.325 20.9487 222.594 20.7374 222.126 20.5463C220.717 19.9708 220.013 19.1118 220.013 17.969C220.013 17.3532 220.201 16.7968 220.577 16.2998C220.955 15.801 221.467 15.4116 222.113 15.1319C222.759 14.8522 223.474 14.7124 224.257 14.7124C224.907 14.7124 225.503 14.815 226.045 15.0202C226.583 15.2275 227.022 15.4962 227.359 15.8261C227.697 16.1581 227.957 16.5242 228.139 16.9247C228.321 17.325 228.411 17.7294 228.411 18.1378H225.912C225.912 17.8482 225.757 17.5745 225.444 17.317C225.132 17.0574 224.727 16.9277 224.229 16.9277C223.814 16.9277 223.432 17.0131 223.082 17.1841C222.733 17.3532 222.559 17.5755 222.559 17.8511C222.559 18.0805 222.71 18.2626 223.012 18.3975C223.314 18.5343 223.882 18.7083 224.713 18.9196C225.662 19.159 226.345 19.3723 226.764 19.5595C227.904 20.0644 228.531 20.8008 228.651 21.7686C228.667 21.8914 228.674 22.0171 228.674 22.1458C228.674 23.1136 228.287 23.8873 227.51 24.4667C226.733 25.0462 225.725 25.336 224.489 25.336C223.86 25.336 223.283 25.2565 222.758 25.0975C222.23 24.9366 221.791 24.7273 221.442 24.4698C221.092 24.2122 220.796 23.9164 220.553 23.5824C220.307 23.2485 220.13 22.9104 220.019 22.5683C219.91 22.2284 219.857 21.8934 219.857 21.5634Z" fill="white"/>
<path d="M0 0.000488281L20.9885 12.0119V15.1694L39.885 25.6705V27.9356L0 5.07974V0.000488281Z" fill="white"/>
<path d="M20.9885 30.5434L29.1942 35.1036L27.3689 36.1374L0 20.4537V15.3745L20.9885 27.3859V30.5434Z" fill="white"/>
<path d="M20.9885 38.2304L22.3438 38.9837L20.6226 39.9587L0 28.1408V23.062L20.9885 35.0735V38.2304Z" fill="white"/>
<path d="M20.9885 19.6988V22.8559L36.0445 31.2234L34.1151 32.3161L0 12.7663V7.6875L20.9885 19.6988Z" fill="white"/>
<path d="M21.0925 9.3299L39.8851 0V19.7896L21.0925 9.3299Z" fill="white"/>
</g>
<defs>
<clipPath id="clip0_0_549">
<rect width="228.718" height="40" fill="white"/>
</clipPath>
</defs>
</svg>
