<svg width="157" height="27" viewBox="0 0 157 27" fill="none" xmlns="http://www.w3.org/2000/svg">
<path d="M35.6947 16.9777H32.1694V10.0493H35.2717C35.7754 10.0493 36.2076 10.0955 36.5682 10.1878C36.9274 10.2816 37.2087 10.4153 37.4122 10.5892C37.617 10.763 37.7651 10.962 37.8563 11.1861C37.9488 11.4102 37.9952 11.6662 37.9952 11.9541C37.9952 12.1198 37.9692 12.282 37.9173 12.441C37.864 12.6013 37.7966 12.7364 37.7152 12.8463C37.6353 12.9577 37.563 13.0494 37.4985 13.1214C37.4325 13.192 37.3743 13.2456 37.3238 13.2824C37.6689 13.4521 37.9342 13.6809 38.1193 13.9688C38.3045 14.2567 38.3972 14.5868 38.3972 14.9589C38.3972 15.2509 38.3466 15.5151 38.2456 15.7514C38.1446 15.9891 37.9903 16.2016 37.7826 16.389C37.575 16.5765 37.2943 16.7211 36.9408 16.823C36.5857 16.9261 36.1704 16.9777 35.6947 16.9777ZM33.8953 14.1971V15.5395H35.4927C36.1887 15.5395 36.5367 15.3162 36.5367 14.8693C36.5367 14.6235 36.4517 14.4503 36.282 14.3498C36.1122 14.2479 35.8492 14.1971 35.4927 14.1971H33.8953ZM33.8953 11.4774V12.9238H35.3748C35.7425 12.9238 35.9978 12.8667 36.1409 12.7526C36.2855 12.6386 36.3578 12.4437 36.3578 12.168C36.3578 11.7076 36.0301 11.4774 35.3748 11.4774H33.8953ZM45.0879 16.9777H39.6053V10.0493H45.0879V11.6016H41.3311V12.7893H44.4649V14.2378H41.3311V15.4316H45.0879V16.9777ZM51.9681 16.9777H46.4854V10.0493H48.2112V15.4316H51.9681V16.9777ZM54.921 16.9777H53.1951V10.0493H54.921V13.0989L57.6549 10.0493H59.8248L57.3624 12.8444L60.349 16.9777H58.1075L56.1501 14.1176L54.921 15.4214V16.9777ZM60.5383 13.5166C60.5383 13.0317 60.6352 12.5693 60.8288 12.1293C61.0224 11.6879 61.2834 11.3063 61.6117 10.9844C61.94 10.6625 62.3322 10.4065 62.7883 10.2164C63.2442 10.0262 63.7241 9.93115 64.2278 9.93115C64.7245 9.93115 65.2016 10.0262 65.6591 10.2164C66.1164 10.4065 66.5093 10.6625 66.8376 10.9844C67.166 11.3063 67.429 11.6885 67.6268 12.1313C67.8233 12.574 67.9215 13.0358 67.9215 13.5166C67.9215 14.0001 67.824 14.4632 67.629 14.906C67.4339 15.3487 67.1708 15.7304 66.8397 16.0508C66.51 16.37 66.1164 16.6253 65.6591 16.8169C65.2016 17.007 64.7245 17.1021 64.2278 17.1021C63.5558 17.1021 62.9363 16.9411 62.3694 16.6192C61.8026 16.2974 61.3556 15.8621 61.0287 15.3134C60.7017 14.7647 60.5383 14.1658 60.5383 13.5166ZM62.1148 13.5166C62.1148 14.0803 62.3217 14.5604 62.7356 14.9569C63.1481 15.3521 63.6455 15.5497 64.2278 15.5497C64.8031 15.5497 65.2963 15.3521 65.7074 14.9569C66.1185 14.5604 66.324 14.0803 66.324 13.5166C66.324 12.9598 66.1185 12.4824 65.7074 12.0844C65.2963 11.6866 64.8031 11.4875 64.2278 11.4875C63.6455 11.4875 63.1481 11.6851 62.7356 12.0804C62.3217 12.4769 62.1148 12.9557 62.1148 13.5166ZM73.6609 11.6016H71.1291V10.0493H77.9461V11.6016H75.4079V16.9777H73.6609V11.6016ZM84.6053 16.9777H79.1226V10.0493H84.6053V11.6016H80.8505V12.7893H83.9845V14.2378H80.8505V15.4316H84.6053V16.9777ZM85.3924 13.4616C85.3924 12.9835 85.4899 12.5293 85.685 12.0987C85.88 11.6682 86.1473 11.2934 86.4868 10.9742C86.8264 10.6564 87.2375 10.4031 87.7202 10.2143C88.2028 10.0255 88.7185 9.93115 89.2671 9.93115C90.0136 9.93115 90.6787 10.086 91.2623 10.3956C91.8475 10.7053 92.3042 11.127 92.6325 11.6607L91.1677 12.4858C90.9937 12.1612 90.7439 11.9052 90.4184 11.7178C90.0929 11.5304 89.7091 11.4366 89.2671 11.4366C88.647 11.4366 88.1369 11.6302 87.7371 12.0172C87.3385 12.4029 87.1393 12.8844 87.1393 13.4616C87.1393 13.8256 87.2284 14.1651 87.4066 14.4802C87.5848 14.7953 87.8373 15.0493 88.1642 15.2421C88.4912 15.4349 88.8588 15.5313 89.2671 15.5313C89.6922 15.5313 90.0662 15.4363 90.389 15.2461C90.713 15.0574 90.9657 14.802 91.1466 14.4802L92.6114 15.2971C92.2762 15.8403 91.8174 16.277 91.235 16.607C90.6527 16.937 89.9967 17.1021 89.2671 17.1021C88.7157 17.1021 88.1994 17.0076 87.7181 16.8188C87.2368 16.63 86.8264 16.3741 86.4868 16.0508C86.1473 15.7277 85.88 15.3419 85.685 14.8938C85.4899 14.4455 85.3924 13.9682 85.3924 13.4616ZM95.4948 16.9777H93.767V10.0493H95.4948V12.7404H98.6392V10.0493H100.376V16.9777H98.6392V14.2866H95.4948V16.9777ZM103.602 16.9777H101.866V10.0493H103.602L107.224 14.2765V10.0493H108.963V16.9777H107.224L103.602 12.7404V16.9777ZM110 13.5166C110 13.0317 110.097 12.5693 110.291 12.1293C110.485 11.6879 110.745 11.3063 111.073 10.9844C111.402 10.6625 111.794 10.4065 112.25 10.2164C112.706 10.0262 113.186 9.93115 113.69 9.93115C114.187 9.93115 114.663 10.0262 115.121 10.2164C115.578 10.4065 115.972 10.6625 116.3 10.9844C116.628 11.3063 116.891 11.6885 117.088 12.1313C117.285 12.574 117.383 13.0358 117.383 13.5166C117.383 14.0001 117.286 14.4632 117.09 14.906C116.896 15.3487 116.633 15.7304 116.302 16.0508C115.972 16.37 115.578 16.6253 115.121 16.8169C114.663 17.007 114.187 17.1021 113.69 17.1021C113.017 17.1021 112.399 16.9411 111.831 16.6192C111.265 16.2974 110.818 15.8621 110.491 15.3134C110.164 14.7647 110 14.1658 110 13.5166ZM111.577 13.5166C111.577 14.0803 111.784 14.5604 112.198 14.9569C112.61 15.3521 113.107 15.5497 113.69 15.5497C114.265 15.5497 114.758 15.3521 115.169 14.9569C115.58 14.5604 115.786 14.0803 115.786 13.5166C115.786 12.9598 115.58 12.4824 115.169 12.0844C114.758 11.6866 114.265 11.4875 113.69 11.4875C113.107 11.4875 112.61 11.6851 112.198 12.0804C111.784 12.4769 111.577 12.9557 111.577 13.5166ZM124.003 16.9777H118.52V10.0493H120.245V15.4316H124.003V16.9777ZM124.399 13.5166C124.399 13.0317 124.495 12.5693 124.688 12.1293C124.883 11.6879 125.144 11.3063 125.472 10.9844C125.8 10.6625 126.192 10.4065 126.648 10.2164C127.105 10.0262 127.585 9.93115 128.088 9.93115C128.585 9.93115 129.062 10.0262 129.519 10.2164C129.975 10.4065 130.368 10.6625 130.698 10.9844C131.026 11.3063 131.289 11.6885 131.487 12.1313C131.683 12.574 131.782 13.0358 131.782 13.5166C131.782 14.0001 131.684 14.4632 131.489 14.906C131.294 15.3487 131.031 15.7304 130.7 16.0508C130.369 16.37 129.975 16.6253 129.519 16.8169C129.062 17.007 128.585 17.1021 128.088 17.1021C127.416 17.1021 126.796 16.9411 126.229 16.6192C125.663 16.2974 125.215 15.8621 124.889 15.3134C124.562 14.7647 124.399 14.1658 124.399 13.5166ZM125.975 13.5166C125.975 14.0803 126.181 14.5604 126.594 14.9569C127.007 15.3521 127.506 15.5497 128.088 15.5497C128.663 15.5497 129.157 15.3521 129.567 14.9569C129.979 14.5604 130.184 14.0803 130.184 13.5166C130.184 12.9598 129.979 12.4824 129.567 12.0844C129.157 11.6866 128.663 11.4875 128.088 11.4875C127.506 11.4875 127.007 11.6851 126.594 12.0804C126.181 12.4769 125.975 12.9557 125.975 13.5166ZM132.567 13.5166C132.567 13.0385 132.664 12.5809 132.861 12.1435C133.057 11.7062 133.324 11.3246 133.664 10.9986C134.001 10.674 134.414 10.4147 134.9 10.2204C135.388 10.0276 135.905 9.93115 136.452 9.93115C137.124 9.93115 137.733 10.0663 138.281 10.3366C138.829 10.6054 139.289 10.9756 139.659 11.4468L138.17 12.1782C137.797 11.7245 137.216 11.4978 136.431 11.4978C135.808 11.4978 135.298 11.6866 134.9 12.064C134.504 12.4416 134.305 12.9191 134.305 13.4962C134.305 14.0571 134.508 14.5379 134.915 14.9386C135.323 15.3392 135.835 15.5395 136.452 15.5395C137.198 15.5395 137.784 15.3459 138.209 14.9589V14.2866H136.031V13.0033H139.735V15.5701C139.718 15.6067 139.667 15.6733 139.581 15.7698C139.496 15.8662 139.356 15.9931 139.162 16.1507C138.969 16.3069 138.752 16.4542 138.51 16.5927C138.269 16.7299 137.965 16.8495 137.601 16.9513C137.237 17.0518 136.857 17.1021 136.463 17.1021C135.887 17.1021 135.352 17.0029 134.859 16.8046C134.366 16.605 133.954 16.3395 133.623 16.0081C133.294 15.6767 133.035 15.295 132.848 14.8632C132.66 14.4326 132.567 13.9838 132.567 13.5166ZM142.768 16.9777H141.04V10.0493H142.768V16.9777ZM149.848 16.9777H144.365V10.0493H149.848V11.6016H146.091V12.7893H149.227V14.2378H146.091V15.4316H149.848V16.9777ZM150.918 14.5556H152.633C152.637 14.5854 152.645 14.6255 152.655 14.6757C152.668 14.7246 152.708 14.8123 152.774 14.9386C152.841 15.0649 152.925 15.1762 153.026 15.2726C153.127 15.3677 153.28 15.4553 153.485 15.5355C153.691 15.6155 153.926 15.6557 154.19 15.6557C154.546 15.6557 154.811 15.5945 154.983 15.4723C155.156 15.3514 155.243 15.2082 155.243 15.0424C155.243 14.9569 155.218 14.8795 155.169 14.8102C155.12 14.7396 155.061 14.6812 154.994 14.635C154.927 14.5888 154.83 14.5433 154.703 14.4985C154.577 14.4537 154.466 14.4191 154.369 14.3946C154.274 14.3688 154.144 14.3362 153.98 14.2969C153.298 14.1407 152.797 13.998 152.475 13.869C151.508 13.4806 151.025 12.9007 151.025 12.1293C151.025 11.7137 151.154 11.3382 151.411 11.0027C151.671 10.6659 152.023 10.4031 152.466 10.2143C152.91 10.0255 153.4 9.93115 153.938 9.93115C154.384 9.93115 154.793 10.0004 155.165 10.1389C155.535 10.2788 155.836 10.4602 156.067 10.6829C156.299 10.907 156.477 11.1541 156.602 11.4244C156.727 11.6946 156.789 11.9676 156.789 12.2433H155.074C155.074 12.0478 154.967 11.863 154.752 11.6893C154.539 11.514 154.261 11.4265 153.919 11.4265C153.633 11.4265 153.372 11.4841 153.131 11.5996C152.892 11.7137 152.772 11.8638 152.772 12.0498C152.772 12.2046 152.876 12.3275 153.083 12.4186C153.29 12.5109 153.68 12.6284 154.251 12.771C154.902 12.9326 155.371 13.0766 155.659 13.2029C156.441 13.5438 156.872 14.0408 156.954 14.6941C156.965 14.777 156.97 14.8618 156.97 14.9487C156.97 15.602 156.704 16.1242 156.171 16.5153C155.637 16.9065 154.946 17.1021 154.097 17.1021C153.665 17.1021 153.269 17.0484 152.909 16.9411C152.546 16.8325 152.245 16.6912 152.006 16.5174C151.765 16.3435 151.562 16.1438 151.395 15.9184C151.227 15.693 151.105 15.4648 151.029 15.2339C150.954 15.0045 150.918 14.7783 150.918 14.5556Z" fill="white"/>
<path d="M0 0.000488281L14.4072 8.10818V10.2395L27.3785 17.3277V18.8567L0 3.42898V0.000488281Z" fill="white"/>
<path d="M14.4072 20.6169L20.0399 23.695L18.787 24.3929L0 13.8064V10.3779L14.4072 18.4856V20.6169Z" fill="white"/>
<path d="M14.4072 25.8056L15.3376 26.314L14.1561 26.9722L0 18.9951V15.5669L14.4072 23.6746V25.8056Z" fill="white"/>
<path d="M14.4072 13.2966V15.4276L24.7422 21.0757L23.4178 21.8133L0 8.61715V5.18896L14.4072 13.2966Z" fill="white"/>
<path d="M14.4785 6.29768L27.3784 0V13.358L14.4785 6.29768Z" fill="white"/>
</svg>
