<svg width="673" height="763" viewBox="0 0 673 763" fill="none" xmlns="http://www.w3.org/2000/svg">
<path style="mix-blend-mode:screen" d="M362.5 315C397.018 315 425 287.018 425 252.5C425 217.982 397.018 190 362.5 190C327.982 190 300 217.982 300 252.5C300 287.018 327.982 315 362.5 315Z" fill="url(#paint0_linear_0_556)"/>
<path opacity="0.0344828" d="M101.3 138.425C105.075 133.926 110.777 131.123 118.311 129.993C125.853 128.862 135.168 129.42 146.049 131.595C167.81 135.944 195.626 146.717 227.623 162.994C291.6 195.541 372.089 249.993 453.903 318.644C535.717 387.294 603.319 457.104 646.481 514.458C668.068 543.142 683.507 568.665 691.569 589.34C695.6 599.678 697.767 608.755 697.963 616.379C698.158 623.994 696.387 630.097 692.612 634.596C688.837 639.094 683.135 641.898 675.602 643.028C668.06 644.159 658.745 643.601 647.864 641.426C626.103 637.077 598.286 626.304 566.29 610.027C502.312 577.48 421.824 523.028 340.009 454.377C258.195 385.727 190.593 315.917 147.431 258.563C125.845 229.879 110.405 204.356 102.343 183.681C98.3121 173.342 96.145 164.266 95.9494 156.642C95.754 149.027 97.5248 142.924 101.3 138.425Z" stroke="#5697B6" stroke-opacity="0.7" stroke-width="2"/>
<path opacity="0.0689655" d="M124.045 110.513C128.198 106.361 134.123 104.065 141.727 103.595C149.338 103.126 158.569 104.494 169.219 107.609C190.518 113.838 217.29 126.994 247.746 145.998C308.644 183.998 384.08 245.258 459.6 320.777C535.12 396.297 596.38 471.733 634.379 532.631C653.383 563.087 666.539 589.859 672.769 611.158C675.884 621.808 677.251 631.039 676.782 638.651C676.313 646.254 674.017 652.179 669.864 656.332C665.711 660.484 659.786 662.78 652.183 663.25C644.571 663.719 635.34 662.351 624.69 659.236C603.391 653.007 576.619 639.851 546.163 620.847C485.265 582.847 409.829 521.587 334.31 446.068C258.79 370.548 197.53 295.112 159.53 234.214C140.526 203.758 127.37 176.986 121.141 155.687C118.026 145.037 116.658 135.806 117.128 128.194C117.597 120.591 119.893 114.666 124.045 110.513Z" stroke="#5697B6" stroke-opacity="0.7" stroke-width="2"/>
<path opacity="0.103448" d="M148.87 84.6769C153.369 80.9018 159.471 79.131 167.087 79.3264C174.711 79.522 183.787 81.6891 194.125 85.7203C214.8 93.7824 240.324 109.222 269.007 130.808C326.361 173.97 396.171 241.572 464.822 323.386C533.472 405.201 587.924 485.689 620.472 549.667C636.749 581.663 647.522 609.48 651.871 631.241C654.046 642.122 654.604 651.437 653.473 658.979C652.343 666.512 649.539 672.214 645.04 675.989C640.541 679.764 634.439 681.535 626.824 681.34C619.2 681.144 610.123 678.977 599.785 674.946C579.11 666.884 553.587 651.445 524.903 629.858C467.549 586.696 397.739 519.094 329.088 437.28C260.438 355.466 205.986 274.977 173.439 211C157.161 179.003 146.389 151.187 142.039 129.426C139.864 118.545 139.306 109.23 140.438 101.688C141.568 94.1539 144.371 88.4519 148.87 84.6769Z" stroke="#5697B6" stroke-opacity="0.7" stroke-width="2"/>
<path opacity="0.137931" d="M175.584 61.0914C180.394 57.7229 186.628 56.4906 194.197 57.349C201.775 58.2083 210.628 61.1582 220.576 66.0752C240.469 75.9085 264.55 93.5136 291.243 117.518C344.617 165.514 408.27 238.943 469.528 326.429C530.787 413.916 578.017 498.844 604.864 565.415C618.291 598.708 626.598 627.358 629.034 649.415C630.253 660.444 629.997 669.772 628.212 677.187C626.43 684.593 623.14 690.029 618.329 693.398C613.519 696.767 607.285 697.999 599.716 697.14C592.138 696.281 583.285 693.331 573.337 688.414C553.444 678.581 529.363 660.976 502.67 636.972C449.296 588.975 385.643 515.546 324.385 428.06C263.126 340.574 215.896 255.646 189.049 189.075C175.622 155.781 167.315 127.132 164.879 105.075C163.66 94.0455 163.916 84.7174 165.701 77.3026C167.483 69.896 170.773 64.4599 175.584 61.0914Z" stroke="#5697B6" stroke-opacity="0.7" stroke-width="2"/>
<path opacity="0.172414" d="M203.979 39.9109C209.065 36.9744 215.382 36.2901 222.848 37.805C230.322 39.3215 238.884 43.0318 248.365 48.797C267.326 60.3268 289.781 79.9636 314.28 106.203C363.268 158.669 420.279 237.366 473.679 329.858C527.08 422.351 566.728 511.072 587.671 579.729C598.145 614.066 603.924 643.331 604.428 665.516C604.681 676.61 603.613 685.88 601.189 693.111C598.768 700.334 595.017 705.463 589.931 708.399C584.845 711.336 578.528 712.02 571.062 710.505C563.588 708.988 555.025 705.278 545.544 699.513C526.583 687.983 504.129 668.346 479.629 642.107C430.641 589.641 373.631 510.944 320.23 418.452C266.83 325.959 227.182 237.238 206.238 168.581C195.764 134.244 189.986 104.979 189.481 82.7937C189.229 71.7004 190.297 62.43 192.721 55.199C195.142 47.9759 198.893 42.8473 203.979 39.9109Z" stroke="#5697B6" stroke-opacity="0.7" stroke-width="2"/>
<path opacity="0.206897" d="M233.845 21.2723C239.168 18.7903 245.521 18.6592 252.826 20.819C260.14 22.9812 268.346 27.4236 277.288 33.9931C295.172 47.1316 315.83 68.6508 337.949 96.9253C382.178 153.461 432.113 236.828 477.249 333.622C522.385 430.417 554.15 522.256 569.029 592.478C576.471 627.597 579.677 657.254 578.246 679.399C577.53 690.472 575.658 699.614 572.614 706.606C569.572 713.591 565.389 718.373 560.066 720.855C554.743 723.337 548.391 723.468 541.085 721.308C533.772 719.146 525.565 714.704 516.623 708.134C498.739 694.995 478.081 673.476 455.962 645.202C411.733 588.666 361.799 505.3 316.662 408.505C271.526 311.71 239.761 219.871 224.882 149.649C217.44 114.531 214.234 84.8735 215.665 62.7284C216.381 51.6553 218.253 42.5134 221.297 35.5211C224.339 28.5365 228.523 23.7543 233.845 21.2723Z" stroke="#5697B6" stroke-opacity="0.7" stroke-width="2"/>
<path opacity="0.241379" d="M264.951 5.29807C270.47 3.28943 276.81 3.71247 283.899 6.50076C290.997 9.29212 298.785 14.4328 307.12 21.7568C323.791 36.404 342.495 59.6417 362.066 89.7364C401.199 149.912 443.677 237.313 480.205 337.673C516.734 438.034 540.373 532.292 549.076 603.543C553.428 639.177 554.037 669 550.682 690.937C549.004 701.905 546.342 710.849 542.7 717.549C539.061 724.242 534.477 728.642 528.958 730.65C523.439 732.659 517.099 732.236 510.01 729.448C502.913 726.656 495.125 721.516 486.789 714.192C470.118 699.544 451.415 676.307 431.844 646.212C392.711 586.036 350.232 498.635 313.704 398.275C277.176 297.915 253.536 203.657 244.833 132.406C240.481 96.7717 239.872 66.9481 243.227 45.0119C244.905 34.0433 247.567 25.0993 251.209 18.399C254.848 11.706 259.433 7.30672 264.951 5.29807Z" stroke="#5697B6" stroke-opacity="0.7" stroke-width="2"/>
<path opacity="0.275862" d="M297.064 -7.91307C302.736 -9.43308 309.015 -8.45909 315.835 -5.06353C322.662 -1.66422 329.972 4.13569 337.638 12.1583C352.968 28.2027 369.576 52.9821 386.449 84.668C420.188 148.025 454.888 238.796 482.53 341.958C510.172 445.12 525.507 541.08 527.967 612.818C529.197 648.696 527.204 678.459 521.949 700.019C519.322 710.8 515.891 719.478 511.678 725.835C507.47 732.186 502.52 736.169 496.847 737.689C491.174 739.209 484.895 738.235 478.076 734.839C471.249 731.44 463.939 725.64 456.273 717.617C440.942 701.573 424.335 676.794 407.461 645.108C373.722 581.75 339.022 490.98 311.38 387.818C283.738 284.656 268.403 188.696 265.944 116.957C264.714 81.0797 266.706 51.3165 271.961 29.7563C274.588 18.9756 278.019 10.2976 282.232 3.94028C286.44 -2.41008 291.391 -6.39306 297.064 -7.91307Z" stroke="#5697B6" stroke-opacity="0.7" stroke-width="2"/>
<path opacity="0.310345" d="M329.935 -18.2903C335.719 -19.3101 341.889 -17.7925 348.387 -13.8156C354.891 -9.83418 361.668 -3.41921 368.606 5.24098C382.48 22.5605 396.864 48.693 410.912 81.729C439.001 147.786 465.657 241.236 484.203 346.414C502.749 451.593 509.661 548.524 505.859 620.204C503.958 656.052 499.379 685.528 492.265 706.548C488.708 717.059 484.534 725.405 479.783 731.371C475.038 737.33 469.759 740.867 463.975 741.887C458.191 742.906 452.021 741.389 445.524 737.412C439.019 733.431 432.242 727.016 425.305 718.355C411.43 701.036 397.046 674.903 382.998 641.867C354.909 575.81 328.253 482.361 309.707 377.182C291.162 272.004 284.249 175.073 288.051 103.393C289.952 67.5444 294.531 38.0681 301.645 17.0479C305.202 6.53729 309.376 -1.80867 314.127 -7.77467C318.872 -13.7341 324.152 -17.2705 329.935 -18.2903Z" stroke="#5697B6" stroke-opacity="0.7" stroke-width="2"/>
<path opacity="0.344828" d="M363.318 -25.7747C369.168 -26.2866 375.183 -24.237 381.309 -19.7089C387.442 -15.1757 393.634 -8.19453 399.79 1.03734C412.102 19.5001 424.154 46.7869 435.269 80.9215C457.494 149.175 475.904 244.592 485.212 350.987C494.521 457.382 492.959 554.546 482.924 625.622C477.905 661.168 470.775 690.133 461.856 710.454C457.397 720.614 452.511 728.565 447.258 734.094C442.011 739.617 436.444 742.68 430.594 743.192C424.743 743.704 418.729 741.654 412.603 737.126C406.47 732.593 400.277 725.612 394.121 716.38C381.81 697.917 369.758 670.63 358.643 636.496C336.418 568.242 318.008 472.825 308.699 366.43C299.391 260.035 300.952 162.871 310.987 91.7947C316.006 56.2486 323.137 27.2836 332.055 6.96336C336.515 -3.19726 341.401 -11.1477 346.653 -16.6769C351.9 -22.2001 357.467 -25.2629 363.318 -25.7747Z" stroke="#5697B6" stroke-opacity="0.7" stroke-width="2"/>
<path opacity="0.37931" d="M396.955 -30.3345C402.827 -30.3345 408.64 -27.7686 414.349 -22.7237C420.063 -17.6733 425.623 -10.179 430.951 -0.445679C441.607 19.0199 451.235 47.2532 459.333 82.2267C475.524 152.158 485.548 248.816 485.548 355.617C485.548 462.419 475.524 559.077 459.333 629.008C451.235 663.982 441.607 692.215 430.951 711.681C425.623 721.414 420.063 728.908 414.349 733.959C408.64 739.003 402.827 741.569 396.955 741.569C391.082 741.569 385.269 739.003 379.561 733.959C373.846 728.908 368.286 721.414 362.958 711.681C352.302 692.215 342.674 663.982 334.577 629.008C318.385 559.077 308.361 462.419 308.361 355.617C308.361 248.816 318.385 152.158 334.577 82.2267C342.674 47.2532 352.302 19.0199 362.958 -0.445679C368.286 -10.179 373.846 -17.6733 379.561 -22.7237C385.269 -27.7686 391.082 -30.3345 396.955 -30.3345Z" stroke="#5697B6" stroke-opacity="0.7" stroke-width="2"/>
<path opacity="0.413793" d="M430.593 -31.9554C436.444 -31.4435 442.011 -28.3807 447.258 -22.8576C452.51 -17.3283 457.396 -9.37791 461.856 0.782707C470.774 21.1029 477.905 50.068 482.924 85.6141C492.959 156.69 494.52 253.855 485.212 360.249C475.904 466.644 457.493 562.061 435.269 630.315C424.154 664.45 412.102 691.736 399.79 710.199C393.634 719.431 387.442 726.412 381.309 730.945C375.182 735.473 369.168 737.523 363.318 737.011C357.467 736.499 351.9 733.436 346.653 727.913C341.4 722.384 336.515 714.434 332.055 704.273C323.136 683.953 316.006 654.988 310.987 619.442C300.952 548.366 299.391 451.201 308.699 344.806C318.007 238.412 336.417 142.994 358.642 74.7409C369.757 40.6063 381.809 13.3195 394.121 -5.14331C400.277 -14.3752 406.469 -21.3564 412.602 -25.8895C418.728 -30.4177 424.743 -32.4672 430.593 -31.9554Z" stroke="#5697B6" stroke-opacity="0.7" stroke-width="2"/>
<path opacity="0.448276" d="M463.976 -30.6508C469.759 -29.631 475.038 -26.0946 479.784 -20.1352C484.534 -14.1692 488.709 -5.82323 492.266 4.6874C499.379 25.7076 503.958 55.1839 505.86 91.0321C509.662 162.712 502.749 259.643 484.203 364.822C465.658 470 439.001 563.45 410.912 629.507C396.865 662.543 382.48 688.675 368.606 705.995C361.669 714.655 354.892 721.07 348.387 725.051C341.89 729.028 335.719 730.546 329.936 729.526C324.152 728.506 318.873 724.97 314.128 719.01C309.377 713.044 305.203 704.699 301.646 694.188C294.532 673.168 289.953 643.691 288.051 607.843C284.249 536.163 291.162 439.232 309.708 334.054C328.254 228.875 354.91 135.425 382.999 69.3685C397.047 36.3325 411.431 10.2 425.305 -7.11954C432.243 -15.7797 439.019 -22.1947 445.524 -26.1761C452.022 -30.1531 458.192 -31.6706 463.976 -30.6508Z" stroke="#5697B6" stroke-opacity="0.7" stroke-width="2"/>
<path opacity="0.482759" d="M496.847 -26.4505C502.52 -24.9305 507.47 -20.9475 511.678 -14.5972C515.891 -8.23982 519.322 0.438186 521.949 11.2188C527.204 32.779 529.197 62.5422 527.966 98.4198C525.507 170.159 510.172 266.118 482.53 369.28C454.888 472.442 420.188 563.213 386.449 626.57C369.575 658.256 352.968 683.036 337.638 699.08C329.972 707.103 322.662 712.902 315.835 716.302C309.015 719.697 302.736 720.671 297.063 719.151C291.391 717.631 286.44 713.648 282.232 707.298C278.019 700.941 274.588 692.263 271.961 681.482C266.706 659.922 264.714 630.159 265.944 594.281C268.403 522.542 283.738 426.583 311.38 323.421C339.022 220.259 373.722 129.488 407.461 66.1306C424.335 34.4446 440.942 9.66522 456.273 -6.37917C463.939 -14.4018 471.249 -20.2017 478.076 -23.601C484.895 -26.9965 491.174 -27.9705 496.847 -26.4505Z" stroke="#5697B6" stroke-opacity="0.7" stroke-width="2"/>
<path opacity="0.517241" d="M528.959 -19.4177C534.478 -17.4091 539.063 -13.0098 542.701 -6.31682C546.344 0.383493 549.005 9.32751 550.683 20.2961C554.039 42.2323 553.429 72.0559 549.077 107.69C540.374 178.941 516.735 273.199 480.207 373.559C443.678 473.919 401.2 561.321 362.067 621.496C342.496 651.591 323.792 674.829 307.121 689.476C298.786 696.8 290.998 701.941 283.901 704.732C276.811 707.52 270.471 707.943 264.952 705.935C259.434 703.926 254.849 699.527 251.21 692.834C247.568 686.133 244.906 677.189 243.229 666.221C239.873 644.285 240.482 614.461 244.834 578.827C253.537 507.576 277.177 413.318 313.705 312.958C350.233 212.597 392.712 125.196 431.845 65.0206C451.416 34.9259 470.119 11.6882 486.79 -2.95901C495.126 -10.283 502.914 -15.4237 510.011 -18.215C517.1 -21.0033 523.44 -21.4264 528.959 -19.4177Z" stroke="#5697B6" stroke-opacity="0.7" stroke-width="2"/>
<path opacity="0.551724" d="M560.066 -9.62143C565.388 -7.13945 569.572 -2.35729 572.614 4.62731C575.658 11.6196 577.53 20.7615 578.246 31.8347C579.677 53.9798 576.47 83.6368 569.029 118.756C554.15 188.978 522.385 280.816 477.249 377.611C432.112 474.406 382.178 557.772 337.949 614.308C315.83 642.583 295.172 664.102 277.288 677.24C268.346 683.81 260.139 688.252 252.826 690.414C245.52 692.574 239.168 692.443 233.845 689.961C228.522 687.479 224.339 682.697 221.297 675.712C218.252 668.72 216.381 659.578 215.665 648.505C214.234 626.36 217.44 596.703 224.882 561.584C239.761 491.362 271.526 399.523 316.662 302.729C361.798 205.934 411.733 122.568 455.962 66.0315C478.081 37.757 498.739 16.2379 516.623 3.09938C525.565 -3.4702 533.771 -7.91258 541.085 -10.0748C548.39 -12.2345 554.743 -12.1034 560.066 -9.62143Z" stroke="#5697B6" stroke-opacity="0.7" stroke-width="2"/>
<path opacity="0.586207" d="M589.931 2.83704C595.017 5.77348 598.768 10.9021 601.189 18.1252C603.613 25.3562 604.681 34.6265 604.429 45.7198C603.924 67.9054 598.145 97.1702 587.671 131.507C566.728 200.165 527.08 288.886 473.679 381.378C420.279 473.87 363.268 552.567 314.281 605.034C289.781 631.273 267.326 650.909 248.365 662.439C238.885 668.204 230.322 671.915 222.848 673.431C215.382 674.946 209.065 674.262 203.979 671.325C198.893 668.389 195.142 663.26 192.721 656.037C190.297 648.806 189.229 639.536 189.481 628.443C189.986 606.257 195.765 576.992 206.239 542.655C227.182 473.998 266.83 385.277 320.231 292.784C373.631 200.292 430.642 121.595 479.629 69.1288C504.129 42.8898 526.584 23.2529 545.545 11.7231C555.025 5.95793 563.588 2.24768 571.062 0.731153C578.528 -0.78371 584.845 -0.0994038 589.931 2.83704Z" stroke="#5697B6" stroke-opacity="0.7" stroke-width="2"/>
<path opacity="0.62069" d="M618.329 17.8373C623.139 21.2058 626.429 26.6419 628.212 34.0485C629.996 41.4632 630.252 50.7913 629.034 61.8205C626.597 83.8776 618.29 112.527 604.863 145.821C578.016 212.392 530.786 297.319 469.527 384.806C408.269 472.292 344.616 545.721 291.242 593.718C264.549 617.722 240.468 635.327 220.575 645.16C210.627 650.077 201.774 653.027 194.197 653.886C186.627 654.745 180.394 653.512 175.583 650.144C170.772 646.775 167.482 641.339 165.7 633.933C163.916 626.518 163.66 617.19 164.878 606.161C167.314 584.104 175.621 555.454 189.048 522.161C215.895 455.589 263.125 370.662 324.384 283.175C385.643 195.689 449.295 122.26 502.669 74.2634C529.362 50.2595 553.443 32.6544 573.337 22.821C583.284 17.9041 592.137 14.9542 599.715 14.0949C607.284 13.2365 613.518 14.4687 618.329 17.8373Z" stroke="#5697B6" stroke-opacity="0.7" stroke-width="2"/>
<path opacity="0.655172" d="M645.041 35.2464C649.54 39.0214 652.344 44.7235 653.474 52.2572C654.605 59.7993 654.047 69.1142 651.872 79.9952C647.523 101.756 636.75 129.573 620.473 161.569C587.925 225.547 533.473 306.035 464.823 387.85C396.172 469.664 326.362 537.266 269.008 580.428C240.325 602.014 214.801 617.453 194.126 625.516C183.788 629.547 174.712 631.714 167.088 631.909C159.472 632.105 153.37 630.334 148.871 626.559C144.372 622.784 141.568 617.082 140.438 609.548C139.307 602.006 139.865 592.691 142.04 581.81C146.39 560.049 157.162 532.233 173.44 500.236C205.987 436.258 260.439 355.77 329.089 273.956C397.74 192.141 467.55 124.54 524.904 81.3774C553.588 59.7912 579.111 44.352 599.786 36.2899C610.124 32.2586 619.201 30.0915 626.824 29.8959C634.44 29.7005 640.542 31.4714 645.041 35.2464Z" stroke="#5697B6" stroke-opacity="0.7" stroke-width="2"/>
<path opacity="0.689655" d="M669.866 54.9029C674.018 59.0556 676.314 64.9804 676.783 72.584C677.253 80.1959 675.885 89.4268 672.77 100.077C666.541 121.376 653.385 148.148 634.381 178.604C596.381 239.501 535.121 314.938 459.602 390.457C384.082 465.977 308.646 527.237 247.748 565.237C217.292 584.241 190.52 597.397 169.221 603.626C158.571 606.741 149.34 608.109 141.728 607.639C134.125 607.17 128.2 604.874 124.047 600.721C119.894 596.569 117.598 590.644 117.129 583.04C116.66 575.428 118.028 566.197 121.142 555.547C127.372 534.248 140.528 507.477 159.532 477.021C197.531 416.123 258.791 340.687 334.311 265.167C409.831 189.647 485.267 128.387 546.165 90.3877C576.621 71.3836 603.393 58.2276 624.692 51.9982C635.342 48.8832 644.573 47.5155 652.185 47.9851C659.788 48.4542 665.713 50.7501 669.866 54.9029Z" stroke="#5697B6" stroke-opacity="0.7" stroke-width="2"/>
<path opacity="0.724138" d="M692.611 76.64C696.386 81.1389 698.157 87.2412 697.961 94.8567C697.766 102.481 695.599 111.557 691.568 121.895C683.505 142.57 668.066 168.094 646.48 196.777C603.318 254.132 535.716 323.941 453.902 392.592C372.087 461.242 291.599 515.694 227.621 548.242C195.625 564.519 167.808 575.292 146.047 579.641C135.166 581.816 125.851 582.374 118.309 581.243C110.775 580.113 105.073 577.309 101.298 572.81C97.5233 568.311 95.7525 562.209 95.9479 554.594C96.1435 546.97 98.3106 537.893 102.342 527.555C110.404 506.88 125.843 481.357 147.429 452.673C190.592 395.319 258.193 325.509 340.008 256.858C421.822 188.208 502.31 133.756 566.288 101.209C598.285 84.9312 626.101 74.1586 647.862 69.8092C658.743 67.6343 668.058 67.0763 675.6 68.2075C683.134 69.3375 688.836 72.1411 692.611 76.64Z" stroke="#5697B6" stroke-opacity="0.7" stroke-width="2"/>
<path opacity="0.758621" d="M713.109 100.261C716.477 105.072 717.71 111.306 716.851 118.875C715.992 126.453 713.042 135.306 708.125 145.253C698.292 165.147 680.687 189.228 656.683 215.921C608.686 269.295 535.257 332.947 447.771 394.206C360.285 455.465 275.357 502.695 208.786 529.542C175.492 542.969 146.843 551.276 124.785 553.712C113.756 554.93 104.428 554.674 97.0135 552.89C89.6069 551.108 84.1709 547.818 80.8023 543.007C77.4338 538.196 76.2015 531.963 77.0599 524.393C77.9193 516.816 80.8691 507.963 85.7861 498.015C95.6194 478.122 113.224 454.041 137.228 427.348C185.225 373.974 258.654 310.321 346.14 249.063C433.627 187.804 518.554 140.574 585.126 113.727C618.419 100.3 647.069 91.9927 669.126 89.5564C680.155 88.3381 689.483 88.5941 696.898 90.3784C704.304 92.1607 709.74 95.4506 713.109 100.261Z" stroke="#5697B6" stroke-opacity="0.7" stroke-width="2"/>
<path opacity="0.793103" d="M731.201 125.567C734.137 130.653 734.822 136.97 733.307 144.436C731.79 151.91 728.08 160.473 722.315 169.954C710.785 188.915 691.148 211.369 664.909 235.869C612.443 284.857 533.746 341.867 441.254 395.267C348.761 448.668 260.04 488.316 191.382 509.259C157.046 519.733 127.781 525.512 105.595 526.017C94.5021 526.269 85.2319 525.201 78.0008 522.777C70.7777 520.356 65.6491 516.605 62.7127 511.519C59.7762 506.433 59.0919 500.116 60.6068 492.65C62.1233 485.176 65.8335 476.614 71.5987 467.133C83.1286 448.172 102.765 425.717 129.004 401.218C181.471 352.23 260.168 295.219 352.66 241.819C445.152 188.418 533.873 148.77 602.531 127.827C636.868 117.353 666.133 111.574 688.318 111.07C699.411 110.817 708.682 111.885 715.913 114.309C723.136 116.73 728.265 120.481 731.201 125.567Z" stroke="#5697B6" stroke-opacity="0.7" stroke-width="2"/>
<path opacity="0.827586" d="M746.746 152.345C749.228 157.667 749.359 164.02 747.199 171.326C745.037 178.639 740.595 186.845 734.025 195.788C720.887 213.672 699.368 234.329 671.093 256.449C614.557 300.677 531.191 350.612 434.396 395.748C337.601 440.884 245.763 472.649 175.541 487.529C140.422 494.97 110.765 498.176 88.6196 496.745C77.5465 496.03 68.4046 494.158 61.4123 491.113C54.4277 488.072 49.6455 483.888 47.1635 478.565C44.6815 473.243 44.5504 466.89 46.7102 459.585C48.8724 452.271 53.3148 444.065 59.8843 435.122C73.0228 417.238 94.542 396.581 122.816 374.461C179.353 330.233 262.719 280.298 359.513 235.162C456.308 190.026 548.147 158.261 618.369 143.381C653.488 135.94 683.145 132.734 705.29 134.165C716.363 134.88 725.505 136.752 732.497 139.797C739.482 142.838 744.264 147.022 746.746 152.345Z" stroke="#5697B6" stroke-opacity="0.7" stroke-width="2"/>
<path opacity="0.862069" d="M759.632 180.362C761.64 185.881 761.217 192.221 758.429 199.31C755.638 206.408 750.497 214.196 743.173 222.531C728.526 239.202 705.288 257.906 675.193 277.477C615.018 316.61 527.617 359.088 427.256 395.616C326.896 432.145 232.638 455.784 161.387 464.487C125.753 468.839 95.9294 469.448 73.9933 466.093C63.0247 464.415 54.0807 461.754 47.3803 458.111C40.6874 454.472 36.2881 449.888 34.2794 444.369C32.2708 438.85 32.6938 432.51 35.4821 425.421C38.2735 418.324 43.4142 410.536 50.7381 402.2C65.3853 385.529 88.623 366.826 118.718 347.255C178.893 308.122 266.295 265.643 366.655 229.115C467.015 192.587 561.273 168.947 632.524 160.244C668.158 155.892 697.982 155.283 719.918 158.638C730.887 160.316 739.831 162.978 746.531 166.62C753.224 170.259 757.623 174.844 759.632 180.362Z" stroke="#5697B6" stroke-opacity="0.7" stroke-width="2"/>
<path opacity="0.896552" d="M769.756 209.384C771.276 215.057 770.302 221.336 766.907 228.155C763.507 234.982 757.708 242.293 749.685 249.958C733.641 265.289 708.861 281.896 677.175 298.77C613.818 332.509 523.047 367.209 419.885 394.851C316.723 422.493 220.764 437.828 149.025 440.287C113.147 441.517 83.3841 439.525 61.8238 434.27C51.0432 431.643 42.3652 428.212 36.0078 423.999C29.6575 419.791 25.6745 414.841 24.1545 409.168C22.6345 403.495 23.6085 397.216 27.004 390.397C30.4033 383.57 36.2032 376.259 44.2258 368.594C60.2702 353.263 85.0496 336.656 116.736 319.782C180.093 286.043 270.864 251.343 374.026 223.701C477.188 196.059 573.147 180.724 644.886 178.265C680.764 177.035 710.527 179.027 732.087 184.282C742.868 186.909 751.546 190.34 757.903 194.553C764.253 198.761 768.236 203.712 769.756 209.384Z" stroke="#5697B6" stroke-opacity="0.7" stroke-width="2"/>
<path opacity="0.931035" d="M777.044 239.166C778.064 244.95 776.546 251.12 772.569 257.618C768.588 264.122 762.173 270.899 753.513 277.837C736.193 291.711 710.061 306.095 677.025 320.143C610.968 348.232 517.518 374.888 412.34 393.434C307.161 411.98 210.23 418.892 138.55 415.09C102.702 413.189 73.2254 408.61 52.2052 401.496C41.6946 397.939 33.3487 393.765 27.3827 389.014C21.4232 384.269 17.8869 378.99 16.867 373.206C15.8472 367.422 17.3648 361.252 21.3418 354.754C25.3232 348.25 31.7381 341.473 40.3983 334.535C57.7178 320.661 83.8503 306.277 116.886 292.229C182.943 264.14 276.393 237.484 381.571 218.938C486.75 200.392 583.681 193.48 655.361 197.282C691.209 199.183 720.686 203.762 741.706 210.876C752.216 214.433 760.562 218.607 766.528 223.358C772.488 228.103 776.024 233.382 777.044 239.166Z" stroke="#5697B6" stroke-opacity="0.7" stroke-width="2"/>
<path opacity="0.965517" d="M781.438 269.46C781.95 275.311 779.901 281.325 775.372 287.451C770.839 293.584 763.858 299.776 754.626 305.932C736.163 318.244 708.877 330.296 674.742 341.411C606.488 363.636 511.071 382.046 404.676 391.354C298.282 400.663 201.117 399.101 130.041 389.066C94.4951 384.048 65.5301 376.917 45.2098 367.998C35.0492 363.539 27.0989 358.653 21.5696 353.4C16.0464 348.154 12.9836 342.586 12.4718 336.736C11.9599 330.885 14.0095 324.871 18.5376 318.745C23.0708 312.612 30.052 306.42 39.2838 300.264C57.7466 287.952 85.0334 275.9 119.168 264.785C187.422 242.56 282.839 224.15 389.234 214.841C495.628 205.533 592.793 207.095 663.869 217.13C699.415 222.148 728.38 229.279 748.7 238.198C758.861 242.657 766.811 247.543 772.34 252.796C777.864 258.042 780.926 263.609 781.438 269.46Z" stroke="#5697B6" stroke-opacity="0.7" stroke-width="2"/>
<path d="M782.907 300.01C782.907 305.883 780.341 311.695 775.296 317.404C770.246 323.118 762.751 328.678 753.018 334.006C733.553 344.662 705.319 354.29 670.346 362.388C600.415 378.579 503.756 388.603 396.955 388.603C290.154 388.603 193.495 378.579 123.564 362.388C88.5909 354.29 60.3576 344.662 40.8919 334.006C31.1587 328.678 23.6644 323.118 18.614 317.404C13.5691 311.695 11.0032 305.883 11.0032 300.01C11.0032 294.137 13.5691 288.324 18.614 282.616C23.6644 276.901 31.1587 271.341 40.8919 266.013C60.3576 255.357 88.5909 245.729 123.564 237.632C193.495 221.44 290.154 211.416 396.955 211.416C503.756 211.416 600.415 221.44 670.346 237.632C705.319 245.729 733.553 255.357 753.018 266.013C762.751 271.341 770.246 276.901 775.296 282.616C780.341 288.324 782.907 294.137 782.907 300.01Z" stroke="#5697B6" stroke-opacity="0.7" stroke-width="2"/>
<defs>
<linearGradient id="paint0_linear_0_556" x1="318.309" y1="208.309" x2="406.691" y2="296.691" gradientUnits="userSpaceOnUse">
<stop stop-color="#5697B6"/>
<stop offset="1" stop-color="#D2E45D"/>
</linearGradient>
</defs>
</svg>
