<svg width="210" height="37" viewBox="0 0 210 37" fill="none" xmlns="http://www.w3.org/2000/svg">
<path d="M47.7446 23.2656H43.0293V13.7711H47.1788C47.8526 13.7711 48.4307 13.8343 48.913 13.9609C49.3935 14.0893 49.7697 14.2726 50.0419 14.5109C50.3158 14.749 50.514 15.0218 50.6359 15.3289C50.7597 15.6359 50.8217 15.9868 50.8217 16.3813C50.8217 16.6084 50.787 16.8307 50.7175 17.0486C50.6462 17.2682 50.5561 17.4533 50.4472 17.604C50.3403 17.7567 50.2436 17.8823 50.1573 17.9809C50.0691 18.0778 49.9912 18.1512 49.9237 18.2015C50.3853 18.4342 50.7401 18.7477 50.9877 19.1423C51.2354 19.5368 51.3594 19.9892 51.3594 20.4991C51.3594 20.8991 51.2918 21.2612 51.1567 21.585C51.0216 21.9107 50.8152 22.2019 50.5374 22.4588C50.2596 22.7157 49.8842 22.9139 49.4114 23.0535C48.9365 23.1948 48.3809 23.2656 47.7446 23.2656ZM45.3377 19.455V21.2946H47.4745C48.4054 21.2946 48.8708 20.9886 48.8708 20.3762C48.8708 20.0393 48.7572 19.802 48.5302 19.6644C48.303 19.5247 47.9512 19.455 47.4745 19.455H45.3377ZM45.3377 15.7281V17.7102H47.3168C47.8085 17.7102 48.1501 17.6319 48.3415 17.4756C48.5349 17.3193 48.6315 17.0523 48.6315 16.6745C48.6315 16.0435 48.1932 15.7281 47.3168 15.7281H45.3377ZM60.3088 23.2656H52.9754V13.7711H60.3088V15.8983H55.2838V17.5259H59.4755V19.5108H55.2838V21.1468H60.3088V23.2656ZM69.5116 23.2656H62.178V13.7711H64.4865V21.1468H69.5116V23.2656ZM73.4613 23.2656H71.1529V13.7711H73.4613V17.9502L77.1182 13.7711H80.0206L76.7269 17.6013L80.7217 23.2656H77.7235L75.1054 19.3461L73.4613 21.1327V23.2656ZM80.975 18.5225C80.975 17.858 81.1045 17.2244 81.3635 16.6214C81.6224 16.0165 81.9715 15.4936 82.4107 15.0524C82.8498 14.6114 83.3745 14.2605 83.9844 14C84.5943 13.7394 85.2362 13.6091 85.9099 13.6091C86.5744 13.6091 87.2125 13.7394 87.8243 14C88.436 14.2605 88.9615 14.6114 89.4007 15.0524C89.84 15.4936 90.1918 16.0174 90.4564 16.6241C90.7192 17.2309 90.8505 17.8637 90.8505 18.5225C90.8505 19.1851 90.7202 19.8197 90.4593 20.4265C90.1984 21.0332 89.8464 21.5562 89.4036 21.9954C88.9625 22.4327 88.436 22.7826 87.8243 23.0451C87.2125 23.3057 86.5744 23.436 85.9099 23.436C85.011 23.436 84.1824 23.2154 83.4242 22.7742C82.666 22.3332 82.0681 21.7367 81.6308 20.9847C81.1935 20.2328 80.975 19.4122 80.975 18.5225ZM83.0835 18.5225C83.0835 19.2949 83.3603 19.9529 83.914 20.4962C84.4658 21.0378 85.1311 21.3087 85.9099 21.3087C86.6794 21.3087 87.3392 21.0378 87.889 20.4962C88.4389 19.9529 88.7138 19.2949 88.7138 18.5225C88.7138 17.7595 88.4389 17.1053 87.889 16.5599C87.3392 16.0147 86.6794 15.7419 85.9099 15.7419C85.1311 15.7419 84.4658 16.0127 83.914 16.5544C83.3603 17.0978 83.0835 17.7538 83.0835 18.5225ZM98.5275 15.8983H95.1409V13.7711H104.259V15.8983H100.864V23.2656H98.5275V15.8983ZM113.166 23.2656H105.833V13.7711H113.166V15.8983H108.144V17.5259H112.336V19.5108H108.144V21.1468H113.166V23.2656ZM114.219 18.4472C114.219 17.792 114.35 17.1695 114.611 16.5795C114.871 15.9895 115.229 15.4759 115.683 15.0385C116.137 14.603 116.687 14.2559 117.333 13.9972C117.978 13.7385 118.668 13.6091 119.402 13.6091C120.401 13.6091 121.29 13.8213 122.071 14.2456C122.853 14.6699 123.464 15.2479 123.903 15.9793L121.944 17.11C121.711 16.6651 121.377 16.3142 120.942 16.0575C120.507 15.8006 119.993 15.6722 119.402 15.6722C118.573 15.6722 117.89 15.9374 117.355 16.4678C116.822 16.9964 116.556 17.6562 116.556 18.4472C116.556 18.9459 116.675 19.4112 116.913 19.843C117.152 20.2748 117.49 20.6228 117.927 20.8871C118.364 21.1513 118.856 21.2834 119.402 21.2834C119.971 21.2834 120.471 21.1532 120.903 20.8926C121.336 20.634 121.674 20.284 121.916 19.843L123.875 20.9625C123.427 21.7069 122.813 22.3053 122.034 22.7575C121.255 23.2097 120.378 23.436 119.402 23.436C118.664 23.436 117.974 23.3065 117.33 23.0478C116.686 22.7891 116.137 22.4384 115.683 21.9954C115.229 21.5525 114.871 21.0239 114.611 20.4098C114.35 19.7955 114.219 19.1414 114.219 18.4472ZM127.732 23.2656H125.421V13.7711H127.732V17.4588H131.938V13.7711H134.261V23.2656H131.938V19.5778H127.732V23.2656ZM138.576 23.2656H136.254V13.7711H138.576L143.42 19.5639V13.7711H145.746V23.2656H143.42L138.576 17.4588V23.2656ZM147.134 18.5225C147.134 17.858 147.263 17.2244 147.523 16.6214C147.782 16.0165 148.131 15.4936 148.57 15.0524C149.009 14.6114 149.533 14.2605 150.144 14C150.754 13.7394 151.396 13.6091 152.069 13.6091C152.734 13.6091 153.372 13.7394 153.983 14C154.595 14.2605 155.121 14.6114 155.56 15.0524C155.999 15.4936 156.351 16.0174 156.615 16.6241C156.878 17.2309 157.01 17.8637 157.01 18.5225C157.01 19.1851 156.88 19.8197 156.618 20.4265C156.358 21.0332 156.006 21.5562 155.563 21.9954C155.121 22.4327 154.595 22.7826 153.983 23.0451C153.372 23.3057 152.734 23.436 152.069 23.436C151.17 23.436 150.342 23.2154 149.583 22.7742C148.826 22.3332 148.228 21.7367 147.791 20.9847C147.353 20.2328 147.134 19.4122 147.134 18.5225ZM149.243 18.5225C149.243 19.2949 149.52 19.9529 150.074 20.4962C150.625 21.0378 151.29 21.3087 152.069 21.3087C152.838 21.3087 153.499 21.0378 154.048 20.4962C154.598 19.9529 154.873 19.2949 154.873 18.5225C154.873 17.7595 154.598 17.1053 154.048 16.5599C153.499 16.0147 152.838 15.7419 152.069 15.7419C151.29 15.7419 150.625 16.0127 150.074 16.5544C149.52 17.0978 149.243 17.7538 149.243 18.5225ZM165.864 23.2656H158.531V13.7711H160.838V21.1468H165.864V23.2656ZM166.393 18.5225C166.393 17.858 166.522 17.2244 166.781 16.6214C167.041 16.0165 167.39 15.4936 167.828 15.0524C168.267 14.6114 168.792 14.2605 169.402 14C170.013 13.7394 170.655 13.6091 171.328 13.6091C171.993 13.6091 172.63 13.7394 173.242 14C173.853 14.2605 174.377 14.6114 174.819 15.0524C175.258 15.4936 175.609 16.0174 175.874 16.6241C176.137 17.2309 176.269 17.8637 176.269 18.5225C176.269 19.1851 176.138 19.8197 175.877 20.4265C175.617 21.0332 175.265 21.5562 174.822 21.9954C174.379 22.4327 173.853 22.7826 173.242 23.0451C172.63 23.3057 171.993 23.436 171.328 23.436C170.429 23.436 169.6 23.2154 168.842 22.7742C168.084 22.3332 167.485 21.7367 167.049 20.9847C166.612 20.2328 166.393 19.4122 166.393 18.5225ZM168.502 18.5225C168.502 19.2949 168.778 19.9529 169.33 20.4962C169.883 21.0378 170.549 21.3087 171.328 21.3087C172.097 21.3087 172.758 21.0378 173.306 20.4962C173.857 19.9529 174.131 19.2949 174.131 18.5225C174.131 17.7595 173.857 17.1053 173.306 16.5599C172.758 16.0147 172.097 15.7419 171.328 15.7419C170.549 15.7419 169.883 16.0127 169.33 16.5544C168.778 17.0978 168.502 17.7538 168.502 18.5225ZM177.319 18.5225C177.319 17.8674 177.449 17.2402 177.712 16.6409C177.974 16.0416 178.331 15.5187 178.786 15.072C179.238 14.6271 179.789 14.2717 180.44 14.0056C181.092 13.7413 181.784 13.6091 182.516 13.6091C183.415 13.6091 184.23 13.7943 184.962 14.1647C185.695 14.5331 186.31 15.0404 186.806 15.6861L184.813 16.6884C184.314 16.0667 183.538 15.756 182.487 15.756C181.654 15.756 180.972 16.0147 180.44 16.532C179.91 17.0494 179.644 17.7037 179.644 18.4945C179.644 19.2632 179.915 19.9221 180.46 20.4711C181.006 21.0202 181.691 21.2946 182.516 21.2946C183.513 21.2946 184.297 21.0294 184.866 20.4991V19.5778H181.952V17.8191H186.907V21.3366C186.884 21.3868 186.816 21.4779 186.701 21.6102C186.587 21.7423 186.4 21.9163 186.141 22.1322C185.882 22.3462 185.592 22.5481 185.269 22.7379C184.946 22.9259 184.54 23.0898 184.052 23.2293C183.565 23.3671 183.057 23.436 182.53 23.436C181.759 23.436 181.045 23.3 180.384 23.0283C179.725 22.7548 179.175 22.3909 178.732 21.9368C178.291 21.4826 177.945 20.9597 177.695 20.3678C177.444 19.7778 177.319 19.1628 177.319 18.5225ZM190.964 23.2656H188.653V13.7711H190.964V23.2656ZM200.434 23.2656H193.1V13.7711H200.434V15.8983H195.409V17.5259H199.603V19.5108H195.409V21.1468H200.434V23.2656ZM201.864 19.9463H204.159C204.165 19.9872 204.175 20.0422 204.189 20.1109C204.206 20.178 204.259 20.2981 204.348 20.4711C204.438 20.6442 204.549 20.7968 204.685 20.9289C204.819 21.0592 205.024 21.1792 205.298 21.2891C205.574 21.3988 205.889 21.4538 206.242 21.4538C206.718 21.4538 207.072 21.3701 207.302 21.2025C207.534 21.0369 207.65 20.8406 207.65 20.6135C207.65 20.4962 207.617 20.3902 207.551 20.2952C207.485 20.1985 207.407 20.1184 207.317 20.0552C207.227 19.9918 207.098 19.9295 206.928 19.8681C206.759 19.8067 206.611 19.7592 206.48 19.7258C206.353 19.6903 206.18 19.6457 205.96 19.5918C205.048 19.3777 204.378 19.1822 203.947 19.0055C202.654 18.4731 202.007 17.6786 202.007 16.6214C202.007 16.0518 202.18 15.5372 202.525 15.0775C202.872 14.6161 203.343 14.2559 203.936 13.9972C204.529 13.7385 205.185 13.6091 205.904 13.6091C206.501 13.6091 207.048 13.7041 207.546 13.8939C208.04 14.0856 208.443 14.3341 208.752 14.6393C209.062 14.9464 209.301 15.285 209.468 15.6555C209.635 16.0258 209.718 16.3999 209.718 16.7777H207.424C207.424 16.5097 207.281 16.2565 206.994 16.0184C206.708 15.7782 206.336 15.6583 205.879 15.6583C205.497 15.6583 205.147 15.7373 204.825 15.8955C204.505 16.0518 204.345 16.2575 204.345 16.5124C204.345 16.7246 204.483 16.8931 204.761 17.0178C205.038 17.1444 205.56 17.3053 206.323 17.5008C207.194 17.7222 207.821 17.9196 208.206 18.0927C209.252 18.5598 209.828 19.2409 209.939 20.1362C209.953 20.2497 209.96 20.366 209.96 20.485C209.96 21.3803 209.604 22.0959 208.891 22.6319C208.177 23.1679 207.252 23.436 206.117 23.436C205.54 23.436 205.009 23.3624 204.528 23.2154C204.043 23.0665 203.64 22.8729 203.32 22.6347C202.998 22.3964 202.727 22.1228 202.504 21.8139C202.278 21.505 202.115 21.1923 202.013 20.8759C201.913 20.5614 201.864 20.2516 201.864 19.9463Z" fill="white"/>
<path d="M0 0.000244141L19.2708 11.1108V14.0314L36.6209 23.745V25.8402L0 4.69855V0.000244141Z" fill="white"/>
<path d="M19.2708 28.2527L26.805 32.4708L25.1291 33.4271L0 18.9197V14.2214L19.2708 25.3319V28.2527Z" fill="white"/>
<path d="M19.2708 35.3633L20.5152 36.0601L18.9349 36.962L0 26.0304V21.3325L19.2708 32.4431V35.3633Z" fill="white"/>
<path d="M19.2708 18.2213V21.1416L33.0947 28.8816L31.3232 29.8923L0 11.8087V7.11084L19.2708 18.2213Z" fill="white"/>
<path d="M19.3662 8.63016L36.6208 0V18.3054L19.3662 8.63016Z" fill="#D2E45D"/>
</svg>
